<?xml version="1.0" standalone="no"?>
<!DOCTYPE svg PUBLIC "-//W3C//DTD SVG 20010904//EN"
 "http://www.w3.org/TR/2001/REC-SVG-20010904/DTD/svg10.dtd">
<svg version="1.0" xmlns="http://www.w3.org/2000/svg"
 width="333.000000pt" height="333.000000pt" viewBox="0 0 333.000000 333.000000"
 preserveAspectRatio="xMidYMid meet">
<metadata>
Created by potrace 1.11, written by Peter Selinger 2001-2013
</metadata>
<g transform="translate(0.000000,333.000000) scale(0.100000,-0.100000)"
fill="#000000" stroke="none">
<path d="M1400 3140 c-546 -100 -991 -488 -1158 -1010 -50 -158 -63 -234 -69
-415 -4 -143 -2 -189 15 -290 101 -591 534 -1061 1110 -1204 142 -35 240 -44
418 -38 233 8 388 45 590 143 284 135 541 390 686 678 52 103 111 284 134 411
24 133 25 373 1 505 -110 606 -545 1064 -1147 1207 -148 35 -426 42 -580 13z
m555 -88 c179 -42 338 -109 475 -200 317 -211 531 -526 612 -905 31 -146 31
-408 0 -554 -118 -549 -514 -963 -1056 -1100 -136 -34 -412 -44 -556 -19 -440
76 -821 353 -1023 745 -67 129 -98 214 -129 352 -31 139 -33 446 -4 578 40
185 115 361 218 516 68 102 219 259 328 341 163 123 402 225 610 259 121 20
417 13 525 -13z"/>
<path d="M1214 2460 c-36 -14 -73 -69 -95 -141 -18 -60 -21 -88 -17 -192 4
-107 8 -130 32 -184 35 -78 57 -98 106 -98 72 0 118 77 141 230 22 147 -29
343 -100 379 -34 18 -37 18 -67 6z"/>
<path d="M2014 2460 c-68 -27 -114 -149 -114 -304 0 -107 14 -175 48 -242 28
-54 47 -69 95 -69 33 0 44 6 69 35 34 41 63 129 72 220 15 147 -40 327 -110
356 -18 8 -35 14 -36 13 -2 0 -12 -4 -24 -9z"/>
<path d="M642 1276 c-45 -46 -82 -87 -82 -90 0 -4 5 -16 10 -27 15 -27 49 -24
81 7 l27 26 73 -62 c315 -267 712 -407 1044 -371 282 32 519 145 773 369 l73
65 28 -27 c30 -28 50 -33 69 -14 26 26 11 54 -67 132 -66 66 -82 77 -107 74
-41 -4 -45 -41 -8 -79 33 -35 34 -34 -93 -138 -412 -341 -849 -401 -1309 -181
-114 55 -282 165 -364 239 l-55 49 21 23 c32 36 36 47 24 69 -21 39 -52 24
-138 -64z"/>
</g>
</svg>
