<?xml version="1.0" encoding="UTF-8"?>
<svg width="44px" height="45px" viewBox="0 0 44 45" version="1.1" xmlns="http://www.w3.org/2000/svg" xmlns:xlink="http://www.w3.org/1999/xlink">
    <!-- Generator: Sketch 52.6 (67491) - http://www.bohemiancoding.com/sketch -->
    <title>burgerStar_opt</title>
    <desc>Created with Sketch.</desc>
    <g id="symbols" stroke="none" stroke-width="1" fill="none" fill-rule="evenodd">
        <g id="burgerStar_opt-copy" transform="translate(-9.000000, -8.000000)">
            <g id="burgerStar_opt" transform="translate(3.000000, 3.000000)">
                <polygon id="Path" fill="#FFFFFF" transform="translate(27.910176, 27.545087) rotate(18.000000) translate(-27.910176, -27.545087) " points="34.8075831 6.17589329 38.31997 13.209982 46.0500444 14.3598643 44.7401095 22.0798565 50.3178983 27.5838774 44.7217509 33.0460016 46.0480186 40.76879 38.3203591 41.902276 34.8528002 48.9289609 27.9288915 45.2562136 20.9827793 48.9142487 17.5003493 41.8801918 9.77027486 40.7303094 11.0802416 33.0403616 5.50245273 27.5363407 11.0686116 22.0441404 9.74234385 14.321352 17.4700033 13.187866 20.9675191 6.16121283 27.8614709 9.83392835 34.83754 6.17592506"></polygon>
                <path d="M26.0656051,27.6524687 L19.9730572,21.590847 L21.7367914,19.8360656 L27.9836461,26.0512108 L34.7511788,20.4014017 L36.3544819,22.3024449 L29.7541175,27.8126952 L35.8466654,33.8743169 L34.0829311,35.6290983 L27.8360765,29.4139531 L21.0685438,35.0637622 L19.4652406,33.162719 L26.0656051,27.6524687 Z" id="Combined-Shape" fill="#000000" fill-rule="nonzero"></path>
            </g>
        </g>
    </g>
</svg>