<?xml version="1.0" encoding="UTF-8"?>
<svg width="67px" height="64px" viewBox="0 0 67 64" version="1.1" xmlns="http://www.w3.org/2000/svg" xmlns:xlink="http://www.w3.org/1999/xlink">
    <!-- Generator: Sketch 53.2 (72643) - https://sketchapp.com -->
    <title>burgerStar_opt</title>
    <desc>Created with Sketch.</desc>
    <g id="burgerStar_opt" stroke="none" stroke-width="1" fill="none" fill-rule="evenodd">
        <g transform="translate(2.000000, 3.000000)">
            <polygon id="Path" fill="#000000" points="39.32 0.195804196 44 9.35944056 54.32 10.8475524 52.56 20.9118881 60 28.0783217 52.52 35.2055944 54.28 45.2699301 43.96 46.758042 39.32 55.9216783 30.08 51.1440559 20.8 55.9216783 16.16 46.758042 5.84 45.2699301 7.6 35.2447552 0.16 28.0783217 7.6 20.9118881 5.84 10.8475524 16.16 9.35944056 20.84 0.195804196 30.04 4.97342657 39.36 0.195804196"></polygon>
            <path d="M18,20.7552448 L40.4,20.7552448 L40.4,23.4965035 L18,23.4965035 L18,20.7552448 Z M18,27.4125874 L40.4,27.4125874 L40.4,30.1538462 L18,30.1538462 L18,27.4125874 Z M18,34.0699301 L40.4,34.0699301 L40.4,36.8111888 L18,36.8111888 L18,34.0699301 Z" id="Shape" fill="#FFFFFF" fill-rule="nonzero"></path>
        </g>
    </g>
</svg>