<?xml version="1.0" encoding="UTF-8"?>
<svg width="61px" height="61px" viewBox="0 0 61 61" version="1.1" xmlns="http://www.w3.org/2000/svg" xmlns:xlink="http://www.w3.org/1999/xlink">
    <!-- Generator: Sketch 53.2 (72643) - https://sketchapp.com -->
    <title>burgerStar_opt-copy</title>
    <desc>Created with Sketch.</desc>
    <g id="burgerStar_opt-copy" stroke="none" stroke-width="1" fill="none" fill-rule="evenodd">
        <g id="burgerStar_opt" transform="translate(2.000000, 3.000000)">
            <polygon id="Path" fill="#FFFFFF" transform="translate(28.910176, 27.545087) rotate(18.000000) translate(-28.910176, -27.545087) " points="35.8075831 6.17589329 39.31997 13.209982 47.0500444 14.3598643 45.7401095 22.0798565 51.3178983 27.5838774 45.7217509 33.0460016 47.0480186 40.76879 39.3203591 41.902276 35.8528002 48.9289609 28.9288915 45.2562136 21.9827793 48.9142487 18.5003493 41.8801918 10.7702749 40.7303094 12.0802416 33.0403616 6.50245273 27.5363407 12.0686116 22.0441404 10.7423438 14.321352 18.4700033 13.187866 21.9675191 6.16121283 28.8614709 9.83392835 35.83754 6.17592506"></polygon>
            <path d="M27.0656051,27.6524687 L20.9730572,21.590847 L22.7367914,19.8360656 L28.9836461,26.0512108 L35.7511788,20.4014017 L37.3544819,22.3024449 L30.7541175,27.8126952 L36.8466654,33.8743169 L35.0829311,35.6290983 L28.8360765,29.4139531 L22.0685438,35.0637622 L20.4652406,33.162719 L27.0656051,27.6524687 Z" id="Combined-Shape" fill="#000000" fill-rule="nonzero"></path>
        </g>
    </g>
</svg>