<?xml version="1.0" encoding="UTF-8"?>
<svg width="80px" height="80px" viewBox="0 0 80 80" version="1.1" xmlns="http://www.w3.org/2000/svg" xmlns:xlink="http://www.w3.org/1999/xlink">
    <!-- Generator: Sketch 53.2 (72643) - https://sketchapp.com -->
    <title>burgerStar_opt-3</title>
    <desc>Created with Sketch.</desc>
    <g id="burgerStar_opt-3" stroke="none" stroke-width="1" fill="none" fill-rule="evenodd">
        <g id="button" transform="translate(10.000000, 7.000000)">
            <path d="M27.6,58.9814815 L33,58.9814815 L36.6,64.1202212 L47.4,59.6810148 L46.2,52.962963 L50.4,48.1481481 L57,48.6267307 L59.4,36.1111111 L54,32.5 L52.8,26.4814815 L55.8,19.6573396 L49.2,11.8853842 L42.6,13.8425926 L37.2,11.8853842 L36,5.2733383 C33.1930503,4.96765598 31.1930503,4.81481481 30,4.81481481 C28.9907688,4.81481481 26.9907688,4.96765598 24,5.2733383 L22.8,11.8853842 L18,13.8425926 L10.6794602,11.8853842 L4.1320449,19.6573396 L7.2,26.4814815 L6,32.5 L3.55271368e-15,36.1111111 L3,48.6267307 L9.6,48.1481481 L13.8,52.962963 L12.96462,59.6810148 L22.769638,64.1202212 L27.6,58.9814815 Z" id="Oval-Copy-6" stroke="#000000" stroke-width="1.2" fill="#000000"></path>
            <path d="M31.8,0.6 L28.2,0.6 L28.2,15.1181615 L27.6700507,15.1804598 C17.7546079,16.3460714 10.2,24.8069848 10.2,34.9074074 C10.2,45.8778321 19.0651766,54.7703704 30,54.7703704 C40.9348234,54.7703704 49.8,45.8778321 49.8,34.9074074 C49.8,24.8069848 42.2453921,16.3460714 32.3299493,15.1804598 L31.8,15.1181615 L31.8,0.6 Z" id="Combined-Shape-Copy-3" stroke="#000000" stroke-width="1.2" fill="#FFFFFF"></path>
            <path d="M18,27 L42,27 L42,29.902439 L18,29.902439 L18,27 Z M18,34.0487805 L42,34.0487805 L42,36.9512195 L18,36.9512195 L18,34.0487805 Z M18,41.097561 L42,41.097561 L42,44 L18,44 L18,41.097561 Z" id="Shape-Copy" fill="#000000" fill-rule="nonzero"></path>
        </g>
    </g>
</svg>