<?xml version="1.0" encoding="UTF-8"?>
<svg width="150px" height="143px" viewBox="0 0 150 143" version="1.1" xmlns="http://www.w3.org/2000/svg" xmlns:xlink="http://www.w3.org/1999/xlink">
    <!-- Generator: Sketch 52.6 (67491) - http://www.bohemiancoding.com/sketch -->
    <title>burgerStar_opt Copy</title>
    <desc>Created with Sketch.</desc>
    <g id="burgerStar_opt-Copy" stroke="none" stroke-width="1" fill="none" fill-rule="evenodd">
        <g id="burgerStar_opt" transform="translate(-18.000000, -20.000000)">
            <polygon id="Path" fill="#FFFFFF" transform="translate(93.200000, 91.650000) rotate(18.000000) translate(-93.200000, -91.650000) " points="116.3 20.5 128 43.9 153.8 47.7 149.4 73.4 168 91.7 149.3 109.9 153.7 135.6 127.9 139.4 116.3 162.8 93.2 150.6 70 162.8 58.4 139.4 32.6 135.6 37 110 18.4 91.7 37 73.4 32.6 47.7 58.4 43.9 70.1 20.5 93.1 32.7 116.4 20.5"></polygon>
            <path d="M87.0405026,92.007305 L66.6957446,71.8386364 L72.5853571,66 L93.4453895,86.6794832 L116.044115,67.8810274 L121.398002,74.2063167 L99.3574994,92.5404222 L119.702258,112.709091 L113.812645,118.547727 L92.9526126,97.868244 L70.3538872,116.6667 L65,110.341411 L87.0405026,92.007305 Z" id="Combined-Shape" fill="#000000" fill-rule="nonzero"></path>
        </g>
    </g>
</svg>