<?xml version="1.0" encoding="UTF-8"?>
<svg width="178px" height="113px" viewBox="0 0 178 113" version="1.1" xmlns="http://www.w3.org/2000/svg" xmlns:xlink="http://www.w3.org/1999/xlink">
    <!-- Generator: Sketch 53.2 (72643) - https://sketchapp.com -->
    <title>cloud-line</title>
    <desc>Created with Sketch.</desc>
    <g id="cloud-line" stroke="none" stroke-width="1" fill="none" fill-rule="evenodd">
        <path d="M42.9304813,92.9972078 C42.8112737,92.999067 42.6918418,93 42.5721925,93 C30.1059148,93 20,82.87146 20,70.3772727 C20,57.8830855 30.1059148,47.7545455 42.5721925,47.7545455 C42.9683828,47.7545455 43.362189,47.7647756 43.7533626,47.7849866 C46.3644485,38.373565 54.8937702,31.4319327 65.070546,31.2404264 C67.4801551,21.3446779 76.3842728,14 87,14 C97.6220193,14 106.530399,21.353387 108.933732,31.2580251 C109.264188,31.2436339 109.596488,31.2363636 109.930481,31.2363636 C120.286747,31.2363636 129.014048,38.2264029 131.671685,47.7558386 C144.025626,47.8869135 154,57.9646654 154,70.3772727 C154,82.5103303 144.469841,92.4125167 132.502674,92.9748024 L132.502674,93 L42.9304813,93 Z" id="cloud-copy-2" stroke="#FFFFFF" stroke-width="2.625" fill="#FFFFFF" transform="translate(87.000000, 53.500000) scale(-1, 1) translate(-87.000000, -53.500000) "></path>
        <path d="M42.5721925,47.7545455 C30.1059148,47.7545455 20,57.8830855 20,70.3772727 C20,82.87146 30.1059148,93 42.5721925,93 C55.0384702,93 47.8893373,93 60.355615,93 L87,93 L115.355615,93 C127.849802,93 115.855615,52.2454545 111.355615,36.6227273 C106.855615,21 99.4662777,14 87,14 C74.5337223,14 64.4278075,24.12854 64.4278075,36.6227273 C64.4278075,49.1029598 76.5497512,31.2363636 64.0695187,31.2363636 C51.603241,31.2363636 41.4973262,41.3649036 41.4973262,53.8590909 C41.4973262,89.2172151 73.139202,31.2363636 108.497326,31.2363636 C120.963604,31.2363636 131.069519,41.3649036 131.069519,53.8590909 C131.069519,66.3393234 118.947575,47.7545455 131.427807,47.7545455 C143.894085,47.7545455 154,57.8830855 154,70.3772727 C154,82.87146 143.894085,93 131.427807,93" id="Path" stroke="#449AFF" stroke-width="2"></path>
    </g>
</svg>