<?xml version="1.0" encoding="UTF-8"?>
<svg width="138px" height="83px" viewBox="0 0 138 83" version="1.1" xmlns="http://www.w3.org/2000/svg" xmlns:xlink="http://www.w3.org/1999/xlink">
    <!-- Generator: Sketch 52.6 (67491) - http://www.bohemiancoding.com/sketch -->
    <title>cloud copy 2</title>
    <desc>Created with Sketch.</desc>
    <g id="Symbols" stroke="none" stroke-width="1" fill="none" fill-rule="evenodd">
        <g id="service-blocks" transform="translate(-172.000000, -24.000000)" stroke="#C0D5ED" stroke-width="2.625">
            <g id="cloud-copy-2">
                <path d="M196.930481,104.997208 C196.811274,104.999067 196.691842,105 196.572193,105 C184.105915,105 174,94.87146 174,82.3772727 C174,69.8830855 184.105915,59.7545455 196.572193,59.7545455 C196.968383,59.7545455 197.362189,59.7647756 197.753363,59.7849866 C200.364449,50.373565 208.89377,43.4319327 219.070546,43.2404264 C221.480155,33.3446779 230.384273,26 241,26 C251.622019,26 260.530399,33.353387 262.933732,43.2580251 C263.264188,43.2436339 263.596488,43.2363636 263.930481,43.2363636 C274.286747,43.2363636 283.014048,50.2264029 285.671685,59.7558386 C298.025626,59.8869135 308,69.9646654 308,82.3772727 C308,94.5103303 298.469841,104.412517 286.502674,104.974802 L286.502674,105 L196.930481,105 Z" transform="translate(241.000000, 65.500000) scale(-1, 1) translate(-241.000000, -65.500000) "></path>
            </g>
        </g>
    </g>
</svg>