<?xml version="1.0" encoding="UTF-8"?>
<svg width="94px" height="55px" viewBox="0 0 94 55" version="1.1" xmlns="http://www.w3.org/2000/svg" xmlns:xlink="http://www.w3.org/1999/xlink">
    <!-- Generator: Sketch 52.6 (67491) - http://www.bohemiancoding.com/sketch -->
    <title>cloud copy</title>
    <desc>Created with Sketch.</desc>
    <g id="Box-Study-Template" stroke="none" stroke-width="1" fill="none" fill-rule="evenodd">
        <g id="xs-Enter-mobile-Breakpoint-Here" transform="translate(-145.000000, -41.000000)" stroke="#4A90E2" stroke-width="1.78125">
            <g id="header" transform="translate(6.000000, 6.000000)">
                <g id="contact" transform="translate(140.000000, 36.000000)">
                    <path d="M15.7433155,52.9981267 C15.6614715,52.999374 15.5794735,53 15.4973262,53 C6.93838928,53 0,46.2049035 0,37.8227273 C0,29.440551 6.93838928,22.6454545 15.4973262,22.6454545 C15.7693374,22.6454545 16.0397119,22.6523178 16.3082788,22.6658771 C18.1009646,16.3518854 23.9569169,11.6948409 30.943957,11.566362 C32.5983154,4.9274421 38.7115903,0 46,0 C53.2927297,0 59.408931,4.93328496 61.05898,11.5781688 C61.2858604,11.5685139 61.5140064,11.5636364 61.7433155,11.5636364 C68.8535874,11.5636364 74.845466,16.2531564 76.6701118,22.6463221 C85.1519226,22.7342586 92,29.4952819 92,37.8227273 C92,45.9626266 85.4569061,52.6058656 77.2406417,52.9830953 L77.2406417,53 L15.7433155,53 Z" id="cloud-copy"></path>
                </g>
            </g>
        </g>
    </g>
</svg>