<?xml version="1.0" encoding="UTF-8"?>
<svg width="113px" height="113px" viewBox="0 0 113 113" version="1.1" xmlns="http://www.w3.org/2000/svg" xmlns:xlink="http://www.w3.org/1999/xlink">
    <!-- Generator: Sketch 52.6 (67491) - http://www.bohemiancoding.com/sketch -->
    <title>Consulting</title>
    <desc>Created with Sketch.</desc>
    <g id="Consulting" stroke="none" stroke-width="1" fill="none" fill-rule="evenodd">
        <g id="papers-2" transform="translate(10.000000, 21.000000)">
            <rect id="Rectangle-Copy" stroke="#000000" fill="#FFFFFF" x="7.20932848" y="11.2018316" width="51" height="51"></rect>
            <g id="papers" transform="translate(46.861778, 30.757993) rotate(2.000000) translate(-46.861778, -30.757993) translate(1.861778, 2.257993)">
                <rect id="Rectangle" stroke="#000000" fill="#FFFFFF" x="0.5" y="5.5" width="51" height="51"></rect>
                <path d="M-3.12478385,31.3733735 C-1.26133994,30.9101254 0.681082388,30.8029672 2.46554788,29.9836291 C19.9598389,21.9511187 -3.99073031,14.023905 -0.902232776,37.8163387 C-0.777375124,38.7781874 7.49924921,29.0584182 8.84660596,32.6906599 C9.53001503,34.5330131 7.9845221,39.3077516 11.8598834,36.7700452 C13.1825313,35.9039345 16.0015573,31.0849907 14.5936155,29.9246402 C13.6549876,29.1510732 12.8895829,30.2295891 12.2974014,33.1601878 C10.4448026,45.1775536 23.8919876,31.6081375 24.0844898,25.4897841 C24.2196666,21.1934203 22.2587406,22.5469025 20.8886375,25.833235 C19.5330037,29.0848612 19.305198,41.4190336 25.329855,36.0121346 C27.8461069,33.6471047 30.2883172,30.1781777 31.7781018,27.1220817 C32.8864999,24.8483497 31.9904585,19.0080539 27.8613016,26.6867902 C23.7321447,34.3655266 34.0612923,33.187723 37.9521266,30.5770601 C38.8634186,29.9656036 37.9521266,35.250601 40.6011174,35.250601 C43.2501082,35.250601 43.5181506,33.5347394 43.6661891,32.564583 C44.8171315,25.0219909 35.9027075,27.8373047 38.2772797,31.0849907 C38.8102333,31.8139076 39.863658,31.9537744 40.6011174,31.6081375 C43.3925116,30.2998499 45.6906759,27.6154823 48.4807573,26.3027628" id="Path" stroke="#979797" stroke-width="0.726106795" transform="translate(22.677987, 29.965604) rotate(57.000000) translate(-22.677987, -29.965604) "></path>
                <g id="pencil" transform="translate(59.847444, 24.934069) rotate(-14.000000) translate(-59.847444, -24.934069) translate(33.847444, 5.934069)" stroke="#000000">
                    <path d="M0.709448872,37.8563965 L3.15810939,31.1020724 C31.7082443,10.5107098 45.9833117,0.21502854 45.9833117,0.21502854 C49.4813754,5.0328075e-12 51.1451566,1.41193802 51.1451566,4.97750218 C51.1451566,4.97750218 36.7588674,15.6591022 7.98628895,37.0223022 L0.709448872,37.8563965 Z" id="Path-169" stroke-width="0.653061224" fill="#FFFFFF"></path>
                    <path d="M4.73065903,32.6765189 L48.5014327,0.738341049" id="Line-15-Copy" stroke-width="0.5" stroke-linecap="square"></path>
                    <path d="M6.69054441,34.9753695 L50.879277,2.6272578" id="Line-15-Copy-2" stroke-width="0.5" stroke-linecap="square"></path>
                    <path d="M3.09311481,31.2097565 C3.58233674,31.3368909 3.9459076,31.5422505 4.1838274,31.8258351 C4.42174719,32.1094198 4.56752643,32.4372123 4.6211651,32.8092127 C5.20348457,33.0304111 5.62601574,33.2911294 5.88875862,33.5913676 C6.1515015,33.8916058 6.30855178,34.3866225 6.35990945,35.0764178 C6.97420394,35.2351937 7.39939337,35.4552801 7.63547776,35.7366771 C7.87156215,36.0180741 7.97911554,36.4153733 7.95813793,36.9285746" id="Path" stroke-width="0.5"></path>
                    <path d="M0.845658354,37.5581846 L1.32605995,36.1061936 C1.78615657,36.3291345 2.06686932,36.5234849 2.1681982,36.6892447 C2.50986082,37.2481566 2.39971824,37.5039157 2.39971824,37.5039157 C2.39971824,37.5039157 1.88169828,37.5220053 0.845658354,37.5581846 Z" id="Path-171" stroke-width="0.5" fill="#000000"></path>
                </g>
            </g>
        </g>
    </g>
</svg>