<?xml version="1.0" encoding="UTF-8"?>
<svg width="195px" height="148px" viewBox="0 0 195 148" version="1.1" xmlns="http://www.w3.org/2000/svg" xmlns:xlink="http://www.w3.org/1999/xlink">
    <!-- Generator: Sketch 53.2 (72643) - https://sketchapp.com -->
    <title>consuting-cloud </title>
    <desc>Created with Sketch.</desc>
    <g id="consuting-cloud-" stroke="none" stroke-width="1" fill="none" fill-rule="evenodd">
        <path d="M42.5508021,117.996642 C42.4075751,117.998878 42.2640786,118 42.1203209,118 C27.1421812,118 15,105.82011 15,90.7954545 C15,75.770799 27.1421812,63.5909091 42.1203209,63.5909091 C42.5963405,63.5909091 43.0694958,63.6032111 43.5394879,63.6275156 C46.6766881,52.3099832 56.9246045,43.9624508 69.1519247,43.7321583 C72.047052,31.8322075 82.745283,23 95.5,23 C108.262277,23 118.965629,31.8426806 121.853215,43.7533214 C122.250256,43.7360154 122.649511,43.7272727 123.050802,43.7272727 C135.493778,43.7272727 145.979565,52.1330161 149.172696,63.5924641 C164.015864,63.7500858 176,75.8689014 176,90.7954545 C176,105.38584 164.549586,117.293533 150.171123,117.969699 L150.171123,118 L42.5508021,118 Z" id="cloud-copy-2" stroke="#FFFFFF" stroke-width="3.15" fill="#FFFFFF" transform="translate(95.500000, 70.500000) scale(-1, 1) translate(-95.500000, -70.500000) "></path>
        <g id="papers-2" transform="translate(63.000000, 55.000000)">
            <rect id="Rectangle-Copy" stroke="#000000" stroke-width="0.88172043" fill="#FFFFFF" fill-rule="nonzero" x="5.91575199" y="9.34286889" width="45.8494624" height="45.3968254"></rect>
            <g id="papers" transform="translate(41.318987, 26.852216) rotate(2.000000) translate(-41.318987, -26.852216) translate(1.641567, 1.971264)">
                <rect id="Rectangle" stroke="#000000" stroke-width="0.88172043" fill="#FFFFFF" fill-rule="nonzero" x="-9.09494702e-13" y="4.36507937" width="45.8494624" height="45.3968254"></rect>
                <path d="M-2.64711513,27.4814741 C-1.01364564,27.0668058 0.687561377,26.9648758 2.25329334,26.2374693 C17.6031955,19.1062237 -3.33635448,12.2323334 -0.726671283,33.1368952 C-0.621170498,33.9819969 6.6644704,25.4040668 7.82977136,28.5919528 C8.42083771,30.208919 7.04862294,34.4127197 10.4519712,32.1663162 C11.6135226,31.3996262 14.101016,27.1518993 12.8728386,26.1373886 C12.0540537,25.4610481 11.3795788,26.4122561 10.8494138,28.9910124 C9.17950111,39.5633059 21.0077804,27.5804453 21.2006615,22.2008006 C21.3361043,18.4231648 19.6137402,19.6208596 18.4010142,22.5154482 C17.2010956,25.3794676 16.9525887,36.2238177 22.2492638,31.4464512 C24.461892,29.357258 26.6140788,26.2978809 27.9306821,23.6052262 C28.9102336,21.6018941 28.1488826,16.4710286 24.5028707,23.238118 C20.8568588,30.0052074 29.9057219,28.9286864 33.3229084,26.6180824 C34.1232649,26.0769042 33.3043263,30.7267716 35.6237772,30.7162392 C37.9432281,30.7057068 38.1847477,29.1961612 38.3182273,28.342671 C39.3559794,21.7071126 31.5393346,24.2176068 33.6055922,27.0633309 C34.0693471,27.7020307 34.9911675,27.8208045 35.6382597,27.5140097 C38.0876004,26.3527453 40.1105413,23.9836771 42.5587502,22.8185217" id="Path" stroke="#979797" stroke-width="0.705376344" transform="translate(19.955818, 26.191657) rotate(57.000000) translate(-19.955818, -26.191657) "></path>
                <g id="pencil" transform="translate(52.768714, 21.767838) rotate(-14.000000) translate(-52.768714, -21.767838) translate(29.843983, 5.180536)" stroke="#000000">
                    <path d="M0.625535564,33.049235 L2.78456957,27.1526029 C27.9578068,9.17601652 40.5444254,0.187723329 40.5444254,0.187723329 C43.6287396,4.39367986e-12 45.0957295,1.23264431 45.0957295,4.34543841 C45.0957295,4.34543841 32.4110444,13.6706448 7.04167413,32.3210575 L0.625535564,33.049235 Z" id="Path-169" stroke-width="0.88172043" fill="#FFFFFF" fill-rule="nonzero"></path>
                    <path d="M4.14156265,28.4693189 L42.735148,0.586782737" id="Line-15-Copy" stroke-width="0.561643836" stroke-linecap="square"></path>
                    <path d="M5.8991897,30.5340527 L44.861298,2.29363776" id="Line-15-Copy-2" stroke-width="0.561643836" stroke-linecap="square"></path>
                    <path d="M2.72726252,27.2466128 C3.15861949,27.3576032 3.47918735,27.5368853 3.68896609,27.7844592 C3.89874483,28.0320332 4.02728136,28.3182012 4.07457568,28.6429635 C4.58801865,28.8360732 4.96057302,29.0636844 5.19223878,29.3257971 C5.42390455,29.5879098 5.56237899,30.0200673 5.6076621,30.6222695 C6.14929809,30.7608834 6.52419631,30.9530223 6.73235673,31.1986864 C6.94051716,31.4443504 7.03534918,31.7911989 7.0168528,32.2392318" id="Path" stroke-width="0.88172043" fill="#FFFFFF" fill-rule="nonzero"></path>
                    <path d="M0.745634248,32.7888914 L1.16921415,31.5212801 C1.57489074,31.7159111 1.82240091,31.8855821 1.91174465,32.030293 C2.21299556,32.5182319 2.1158806,32.7415137 2.1158806,32.7415137 C2.1158806,32.7415137 1.65913181,32.7573062 0.745634248,32.7888914 Z" id="Path-171" stroke-width="0.561643836" fill="#000000"></path>
                </g>
            </g>
        </g>
        <path d="M42.1203209,63.5909091 C27.1421812,63.5909091 15,75.770799 15,90.7954545 C15,105.82011 27.1421812,118 42.1203209,118 C57.0984605,118 48.5088306,118 63.4869702,118 L95.5,118 L129.56906,118 C144.580733,118 130.169806,68.9913694 124.76309,50.2045455 C119.356373,31.4177215 110.47814,23 95.5,23 C80.5218604,23 68.3796791,35.1798899 68.3796791,50.2045455 C68.3796791,65.21242 82.9441041,43.7272727 67.9491979,43.7272727 C52.9710582,43.7272727 40.828877,55.9071626 40.828877,70.9318182 C40.828877,113.451081 78.8463546,43.7272727 121.328877,43.7272727 C136.307017,43.7272727 148.449198,55.9071626 148.449198,70.9318182 C148.449198,85.9396927 133.884773,63.5909091 148.879679,63.5909091 C163.857819,63.5909091 176,75.770799 176,90.7954545 C176,105.82011 163.857819,118 148.879679,118" id="Path" stroke="#449AFF" stroke-width="2"></path>
    </g>
</svg>