<?xml version="1.0" encoding="UTF-8"?>
<svg width="80px" height="80px" viewBox="0 0 80 80" version="1.1" xmlns="http://www.w3.org/2000/svg" xmlns:xlink="http://www.w3.org/1999/xlink">
    <!-- Generator: Sketch 53.2 (72643) - https://sketchapp.com -->
    <title>Live prep </title>
    <desc>Created with Sketch.</desc>
    <g id="Live-prep-" stroke="none" stroke-width="1" fill="none" fill-rule="evenodd">
        <g id="micro-only" transform="translate(4.000000, 21.000000)">
            <g id="Group">
                <g id="main" stroke="#000000">
                    <path d="M64.6993362,5.10205078 C66.7263748,5.96875 72.8199726,14.905188 72.8199726,19.9584961 C72.8199726,25.0118042 65.1825677,32.0485302 53.6544947,30.581543 C42.1264216,29.1145557 35.1058025,25.0118042 28.2801004,25.0118042 C24.4796125,25.0118042 16.8437866,26.2068255 13.9676931,30.581543 C11.678303,34.063848 14,40.5 18,46.5 C19,48 19.5,48 19,48.5 C18.6666667,48.8333333 17.9841195,49.2610677 16.9523586,49.7832031 C7.66129918,37.4039249 8.22574613,28.9255373 18.6456994,24.3480404 C34.2756294,17.4817951 47.4347496,32.681273 62.7017809,27.5616883 C72.8798018,24.1486319 73.1747071,17.2931601 63.586497,6.99527316" id="Path" stroke-width="0.8" fill="#FFFFFF"></path>
                    <path d="M58.0129005,2.13657386 C61.671959,2.64128433 63.6629321,3.04288746 63.9858197,3.34138326 C64.2027816,3.54195525 64.7344068,4.2121179 64.558113,5.29200685 C64.3975926,6.27527594 63.6356859,7.12464928 63.2365467,6.97890953 C62.758525,6.80436704 61.9885423,6.63667627 60.9265985,6.47583724 L58.19429,6.47583724 L58.0129005,2.13657386 Z" id="Path-12" stroke-width="0.8" fill="#EDEDED"></path>
                    <path d="M1.89875938,10.3280275 C-0.0539464823,11.0723045 -0.171629153,14.4503972 0.773722889,17.3924953 C1.62679287,20.0473958 3.95274352,21.9164905 4.95038596,21.7445262 C6.25586392,21.5195001 19.9282348,18.1293631 45.9674986,11.5741151 C46.3939747,11.5777983 46.7148771,11.5796399 46.9302057,11.5796399 C47.3101666,11.5796399 48.0695005,11.4058487 49.2082074,11.0582664 C51.7715064,10.4075192 53.1251499,10.0354132 53.2691379,9.94194838 C53.4131258,9.84848355 53.7043682,9.55855008 54.1428651,9.07214797 L57.1956186,8.09559908 C58.2349098,6.62599945 58.7158714,5.35474509 58.6385033,4.281836 C58.5224511,2.67247237 56.9313249,0.200042224 56.3680472,0.200042224 C55.8047695,0.200042224 54.0881095,0.43398991 53,0.43398991 C51.9118905,0.43398991 51.7343986,0.200042224 50.1736583,0.200042224 C48.6129181,0.200042224 45.6682402,0.913818663 44.5350015,1.22306247 C43.779509,1.42922502 43.337811,1.75686223 43.2099073,2.20597411 C17.5538149,6.90233025 3.78343223,9.60968137 1.89875938,10.3280275 Z" id="Path-10" fill="#FFFFFF" fill-rule="nonzero"></path>
                    <path d="M13.8960455,7.65966763 C16.0972187,8.69483734 17.4156655,10.4968597 17.8513859,13.0657346 C18.2871062,15.6346095 17.84776,17.5819132 16.5333474,18.9076456 L46.066621,11.5096981 C47.0973042,11.4371167 47.7676093,10.9145334 48.0775362,9.94194838 C48.3757365,9.0061625 48.5597717,6.92666455 48.0775362,5.39616019 C47.4028924,3.2549964 46.2246383,2.20945567 45,2 C44.6047358,1.9323961 44.0235869,2.01412186 43.2565532,2.2451773 L13.8960455,7.65966763 Z" id="Path-9" stroke-width="0.5" fill="#000000"></path>
                    <path d="M43.7382987,1.51546819 C44.4983512,0.778872029 47.8312737,1.28138019 48.8134818,4.68848963 C49.79569,8.09559908 48.8015264,11.2405082 47.7984452,11.5096981" id="Path-11" stroke-width="0.5"></path>
                </g>
                <g id="shadows" stroke="#000000">
                    <path d="M50.8969953,3.24733381 C50.726829,3.27824217 50.6187242,3.44565491 50.6559614,3.62289084 L50.6945324,3.80784866 C50.7314216,3.98607429 50.8974241,4.1043122 51.0643531,4.07337033 L53.5556778,3.61695003 C53.7281567,3.58571459 53.8498901,3.41561086 53.826134,3.23788046 L53.8011435,3.05307174 C53.7770704,2.87707865 53.6159242,2.75989093 53.4408825,2.79094095 L50.8969953,3.24733381 Z M50.494256,2.09055599 C50.3236526,2.11671049 50.218717,2.25388663 50.2541659,2.39631562 L50.2927425,2.55247112 C50.3285929,2.69868454 50.4947695,2.79860006 50.6643323,2.77206825 L53.1556426,2.38678189 C53.3286542,2.36033295 53.4475835,2.22004701 53.4249232,2.07693546 L53.3999367,1.92095347 C53.376703,1.77756824 53.2156622,1.67870863 53.0381508,1.70528942 L50.494256,2.09055599 Z M50.494256,2.09055599 L50.4942125,2.09056258 L50.4942968,2.09054974 C50.4942832,2.09055182 50.4942696,2.09055391 50.494256,2.09055599 Z M49.6742448,1.00550592 C49.5159304,1.0313609 49.4174866,1.16843891 49.4510396,1.31203586 L49.4872552,1.468187 C49.520924,1.61445089 49.6752654,1.71329764 49.832024,1.68717095 L52.1709303,1.30188289 C52.331582,1.27572305 52.4430234,1.13570346 52.4215852,0.991487888 L52.3981266,0.835500838 C52.3762699,0.691823816 52.2267348,0.594045353 52.0625027,0.620240227 L49.6742448,1.00550592 Z M49.6742448,1.00550592 L49.6741985,1.00551339 L49.6742879,1.00549888 C49.6742735,1.00550123 49.6742592,1.00550357 49.6742448,1.00550592 Z M51.12955,4.57794903 C50.9352815,4.6131405 50.8165931,4.78292243 50.8607521,4.95741107 L50.9070234,5.1415316 C50.951245,5.31874179 51.1425387,5.43533503 51.3345099,5.3999131 L54.1228495,4.89080327 C54.319566,4.85525701 54.4537438,4.68219338 54.4245202,4.50681745 L54.3934947,4.32257491 C54.363745,4.1477384 54.1779701,4.03208435 53.9769091,4.06774725 L51.12955,4.57794903 Z M51.1280723,5.97749043 C50.9513798,6.01295044 50.8376244,6.25178243 50.8915513,6.45777551 C50.8915513,6.67031771 51.0140764,6.77151754 51.2726679,6.77238529 L54.1257062,6.23381464 C54.3218866,6.19454825 54.4533171,6.01889011 54.421262,5.84406422 L54.3872672,5.6604353 C54.3547147,5.48626597 54.1671936,5.37419019 53.9667616,5.41363718 L51.1280723,5.97749043 Z M51.1280723,5.97749043 L51.1280262,5.97749959 L51.1281141,5.97748205 C51.1281002,5.97748484 51.1280863,5.97748764 51.1280723,5.97749043 Z M51.0919282,7.4090017 C50.9377646,7.43853014 50.8386628,7.63445029 50.8853425,7.80544855 C50.8850117,7.97847741 50.9906873,8.06078769 51.21797,8.06108271 L53.7588812,7.60300223 C53.9309384,7.57013543 54.0452757,7.42595945 54.0180698,7.2845283 L53.9881027,7.13025059 C53.9603499,6.98874246 53.7965394,6.89654936 53.6201331,6.92969025 L51.0919282,7.4090017 Z M51.0919282,7.4090017 L51.0918843,7.40901001 L51.0919676,7.40899414 C51.0919545,7.40899666 51.0919413,7.40899918 51.0919282,7.4090017 Z M50.8477831,8.68487315 C50.7173232,8.71527158 50.6340352,8.91306456 50.6786352,9.08348583 C50.6818589,9.25830388 50.7744314,9.33781676 50.9673615,9.33573544 L53.1862954,8.84760333 C53.3330582,8.81350495 53.430153,8.66843269 53.4030281,8.52514866 L53.3736437,8.37127581 C53.3463549,8.22960674 53.2043203,8.14155279 53.0552627,8.17564328 L50.8477831,8.68487315 Z M50.8477831,8.68487315 L50.8477331,8.68488469 L50.8478265,8.68486303 C50.8478121,8.6848664 50.8477976,8.68486978 50.8477831,8.68487315 Z" id="Combined-Shape" stroke-width="0.1" fill="#EDEDED"></path>
                    <path d="M2.08638297,9.97306425 C3.87751071,9.67265527 5.26429298,11.2140043 6.2467298,14.5971114 C7.72038502,19.6717719 6,21.5 4.8166712,21.5" id="Path-22" stroke-width="0.5" stroke-linecap="round"></path>
                    <path d="M7.77869899,13.6353979 L7.77707773,13.6356548 C7.32418015,13.6997996 7.0162597,14.0323424 7.12149678,14.5131918 C7.1820633,14.7899324 7.4074626,14.9324845 7.86149458,14.9137981 C8.47314307,14.8886248 10.1629156,14.5950369 12.925431,14.0335515 C12.9293023,14.0327776 12.9293023,14.0327776 12.9331805,14.0320045 C13.01072,14.0167433 13.0490732,14.0090572 13.0891144,14.0003236 C13.5423863,13.9014578 13.6995316,13.7368532 13.5680755,13.2967239 C13.4139942,12.7808429 13.2087405,12.7038401 12.6584263,12.7800296 L7.77869899,13.6353979 Z" id="Rectangle" stroke-width="0.1" fill="#EDEDED" transform="translate(10.354942, 13.833905) rotate(-2.000000) translate(-10.354942, -13.833905) "></path>
                    <path d="M8.29002804,16.3660709 L8.28733249,16.3665282 C7.87324589,16.4251761 7.61971308,16.7691652 7.72929749,17.2698785 C7.78138221,17.507864 8.0175947,17.6091595 8.51627836,17.5886354 C9.12740284,17.5634837 10.7440026,17.2530859 13.3615057,16.6577605 C13.8485248,16.5603271 14.0525639,16.3782239 14.0128418,15.9177144 C13.9712947,15.4360454 13.7752644,15.3061971 13.3439588,15.3658515 L8.29002804,16.3660709 Z" id="Rectangle-Copy-13" stroke-width="0.1" fill="#EDEDED" transform="translate(10.860224, 16.471826) rotate(-2.000000) translate(-10.860224, -16.471826) "></path>
                    <path d="M6.7444526,11.6435056 C6.46778642,11.7086986 6.24373754,12.0945423 6.33917523,12.3509628 C6.41506852,12.5548717 6.77657106,12.7167337 7.04981063,12.7054881 C7.66161631,12.6803083 9.29872762,12.4049784 11.9560064,11.879988 C12.1811289,11.8349498 12.160772,11.8391635 12.2358377,11.8201871 C12.6477906,11.7160465 12.8431397,11.5432571 12.8130793,11.1947582 C12.7741001,10.7428611 12.4351617,10.5949111 11.9303192,10.6647747 L6.7444526,11.6435056 Z" id="Rectangle-Copy-15" stroke-width="0.1" fill="#EDEDED" transform="translate(9.566286, 11.677752) rotate(-2.000000) translate(-9.566286, -11.677752) "></path>
                    <path d="M5.51454819,9.74137512 C5.23803038,9.79994759 5.0163535,10.1432113 5.10980306,10.3686681 C5.18493693,10.5499364 5.54742606,10.6956774 5.82140552,10.6854649 C6.43357102,10.6626466 8.07068682,10.4147263 10.7281387,9.94209954 C10.9533727,9.9015369 10.9329659,9.90533907 11.0081204,9.88824363 C11.419435,9.79468172 11.6137701,9.6401231 11.5841147,9.33210261 C11.5454453,8.9304579 11.2056601,8.79727608 10.7002586,8.86028444 L5.51454819,9.74137512 Z" id="Rectangle-Copy-15" stroke-width="0.1" fill="#EDEDED" transform="translate(8.337420, 9.766180) rotate(-2.000000) translate(-8.337420, -9.766180) "></path>
                    <path d="M8.19835223,18.3723539 L8.19606631,18.3726867 C7.79493615,18.4216585 7.55244769,18.6978548 7.6555033,19.0958451 C7.70400677,19.2831605 7.93365686,19.3651059 8.41648422,19.346853 C9.00924877,19.324444 10.576342,19.0669262 13.1139592,18.57453 C13.5848011,18.4939775 13.7806903,18.3468704 13.7438957,17.9815735 C13.7052021,17.5974227 13.5165305,17.4930533 13.0972037,17.5430875 L8.19835223,18.3723539 Z" id="Rectangle-Copy-14" stroke-width="0.1" fill="#EDEDED" transform="translate(10.689508, 18.440429) rotate(-4.000000) translate(-10.689508, -18.440429) "></path>
                    <path d="M1.89875938,10.3280275 C-0.0539464823,11.0723045 -0.171629153,14.4503972 0.773722889,17.3924953 C1.62679287,20.0473958 3.95274352,21.9164905 4.95038596,21.7445262 C6.25586392,21.5195001 19.9282348,18.1293631 45.9674986,11.5741151 C46.3939747,11.5777983 46.7148771,11.5796399 46.9302057,11.5796399 C47.3101666,11.5796399 48.0695005,11.4058487 49.2082074,11.0582664 C51.7715064,10.4075192 53.1251499,10.0354132 53.2691379,9.94194838 C53.4131258,9.84848355 53.7043682,9.55855008 54.1428651,9.07214797 L57.1956186,8.09559908 C58.2349098,6.62599945 58.7158714,5.35474509 58.6385033,4.281836 C58.5224511,2.67247237 56.9313249,0.200042224 56.3680472,0.200042224 C55.8047695,0.200042224 54.0881095,0.43398991 53,0.43398991 C51.9118905,0.43398991 51.7343986,0.200042224 50.1736583,0.200042224 C48.6129181,0.200042224 45.6682402,0.913818663 44.5350015,1.22306247 C43.779509,1.42922502 43.337811,1.75686223 43.2099073,2.20597411 C17.5538149,6.90233025 3.78343223,9.60968137 1.89875938,10.3280275 Z" id="Path-10" fill-rule="nonzero"></path>
                </g>
                <g id="balls" transform="translate(1.000000, 12.000000)" fill="#979797">
                    <ellipse id="Oval" cx="1.8062517" cy="0.43398991" rx="1" ry="1"></ellipse>
                    <ellipse id="Oval-Copy" cx="0.90312585" cy="0.976477298" rx="1" ry="1"></ellipse>
                    <ellipse id="Oval-Copy-2" cx="0.30104195" cy="2.06145207" rx="1" ry="1"></ellipse>
                    <ellipse id="Oval-Copy-3" cx="2.80972487" cy="1.30196973" rx="1" ry="1"></ellipse>
                    <ellipse id="Oval-Copy-4" cx="2.4083356" cy="2.60393946" rx="1" ry="1"></ellipse>
                    <ellipse id="Oval-Copy-5" cx="1.50520975" cy="2.06145207" rx="1" ry="1"></ellipse>
                    <ellipse id="Oval-Copy-6" cx="3.6125034" cy="2.82093442" rx="1" ry="1"></ellipse>
                    <ellipse id="Oval-Copy-7" cx="4.01389267" cy="4.3398991" rx="1" ry="1"></ellipse>
                    <ellipse id="Oval-Copy-8" cx="3.0104195" cy="4.55689406" rx="1" ry="1"></ellipse>
                    <ellipse id="Oval-Copy-9" cx="2.18255414" cy="3.87878482" rx="1" ry="1"></ellipse>
                    <ellipse id="Oval-Copy-10" cx="1.30451512" cy="3.36342181" rx="1" ry="1"></ellipse>
                    <ellipse id="Oval-Copy-11" cx="0.3125633" cy="3.79741172" rx="1" ry="1"></ellipse>
                    <ellipse id="Oval-Copy-12" cx="0.90312585" cy="5.3163764" rx="1" ry="1"></ellipse>
                    <ellipse id="Oval-Copy-13" cx="1.90659902" cy="5.09938145" rx="1" ry="1"></ellipse>
                    <ellipse id="Oval-Copy-14" cx="2.78463804" cy="6.04873438" rx="1" ry="1"></ellipse>
                    <ellipse id="Oval-Copy-15" cx="4.01389267" cy="5.85886379" rx="1" ry="1"></ellipse>
                    <ellipse id="Oval-Copy-16" cx="3.81319803" cy="7.16083352" rx="1" ry="1"></ellipse>
                    <ellipse id="Oval-Copy-17" cx="2.70937755" cy="7.48632595" rx="1" ry="1"></ellipse>
                    <ellipse id="Oval-Copy-18" cx="1.70590438" cy="6.61834613" rx="1" ry="1"></ellipse>
                </g>
                <path d="" id="Path-5" stroke="#979797"></path>
            </g>
        </g>
    </g>
</svg>