<?xml version="1.0" encoding="UTF-8"?>
<svg width="195px" height="154px" viewBox="0 0 195 154" version="1.1" xmlns="http://www.w3.org/2000/svg" xmlns:xlink="http://www.w3.org/1999/xlink">
    <!-- Generator: Sketch 52.6 (67491) - http://www.bohemiancoding.com/sketch -->
    <title>Live prep-cloud</title>
    <desc>Created with Sketch.</desc>
    <g id="Live-prep-cloud" stroke="none" stroke-width="1" fill="none" fill-rule="evenodd">
        <g id="micro-only" transform="translate(61.000000, 67.000000)">
            <g id="Group">
                <g id="main" transform="translate(-0.000000, -0.000000)" stroke="#000000" stroke-width="0.5">
                    <path d="M62.7810841,2.13657386 C66.7408872,2.64128433 68.8955019,3.04288746 69.2449282,3.34138326 C69.4797225,3.54195525 70.0550429,4.2121179 69.8642593,5.29200685 C69.6905454,6.27527594 68.8660163,7.12464928 68.4340711,6.97890953 C67.9167599,6.80436704 67.0834909,6.63667627 65.9342641,6.47583724 L62.9773823,6.47583724 L62.7810841,2.13657386 Z" id="Path-12" fill="#EDEDED"></path>
                    <path d="M2.0548218,10.3280275 C-0.0583804397,11.0723045 -0.185735658,14.4503972 0.837316552,17.3924953 C1.76050187,20.0473958 4.27762655,21.9164905 5.357267,21.7445262 C6.77004452,21.5195001 21.5661719,18.1293631 49.7456492,11.5741151 C50.2071781,11.5777983 50.554456,11.5796399 50.7874829,11.5796399 C51.1986735,11.5796399 52.0204184,11.4058487 53.2527176,11.0582664 C56.0266987,10.4075192 57.4916006,10.0354132 57.6474232,9.94194838 C57.8032457,9.84848355 58.1184259,9.55855008 58.5929636,9.07214797 L61.8966284,8.09559908 C63.0213408,6.62599945 63.5418334,5.35474509 63.4581063,4.281836 C63.3325155,2.67247237 61.6106119,0.200042224 61.0010374,0.200042224 C60.5946544,0.200042224 59.2530532,0.319770886 56.9762337,0.55922821 C55.7705884,0.319770886 55.0173163,0.200042224 54.7164175,0.200042224 C54.2650694,0.200042224 49.4217942,0.913818663 48.1954126,1.22306247 C47.3778249,1.42922502 46.8998229,1.75686223 46.7614066,2.20597411 C18.9965942,6.90233025 4.09439926,9.60968137 2.0548218,10.3280275 Z" id="Path-10" fill="#FFFFFF" stroke-linecap="round" stroke-linejoin="round"></path>
                    <path d="M15.0381862,7.65966763 C17.4202778,8.69483734 18.8470901,10.4968597 19.318623,13.0657346 C19.790156,15.6346095 19.3146992,17.5819132 17.8922526,18.9076456 L49.8529186,11.5096981 C50.9683156,11.4371167 51.6937142,10.9145334 52.0291145,9.94194838 C52.3518244,9.0061625 52.5509858,6.92666455 52.0291145,5.39616019 C50.945553,2.21837353 49.2064769,1.1680459 46.8118863,2.2451773 L15.0381862,7.65966763 Z" id="Path-9" fill="#000000"></path>
                    <path d="M47.3332273,1.51546819 C48.1557499,0.778872029 51.7626112,1.28138019 52.8255488,4.68848963 C53.8884864,8.09559908 52.8126107,11.2405082 51.7270845,11.5096981" id="Path-11"></path>
                </g>
                <g id="shadows" transform="translate(1.737521, 0.433990)">
                    <path d="M53.3076791,3.28310351 L56.0607082,2.82670148 C56.2803906,2.79069236 56.4835155,2.92705251 56.5137452,3.13127041 L56.5408009,3.31615502 C56.570341,3.52037292 56.4193177,3.7151154 56.2041361,3.75112453 L53.5081536,4.20752656 C53.2979208,4.24353568 53.0909425,4.10717553 53.0451993,3.90295763 L53.0034745,3.71807302 C52.9570418,3.51385512 53.0929455,3.31911264 53.3076791,3.28310351 Z M52.8732989,2.12610109 L55.626328,1.74082793 C55.8460104,1.71043071 56.0491353,1.82553955 56.079365,1.99793071 L56.1064207,2.15400162 C56.1359608,2.32639278 55.9849375,2.49078524 55.769756,2.52118245 L53.0737734,2.90645561 C52.8635406,2.93685282 52.6565623,2.82174398 52.6108192,2.64935282 L52.5690944,2.49328192 C52.5226617,2.32089076 52.6585653,2.1564983 52.8732989,2.12610109 Z M51.9853715,1.04112631 L54.5699747,0.655853151 C54.7762173,0.625455939 54.9669154,0.740564777 54.9952956,0.912955937 L55.0206961,1.06902684 C55.048429,1.241418 54.906645,1.40581046 54.704628,1.43620767 L52.1735812,1.82148083 C51.9762102,1.85187804 51.7818945,1.73676921 51.7389498,1.56437804 L51.6997777,1.40830714 C51.6561856,1.23591598 51.7837749,1.07152352 51.9853715,1.04112631 Z M51.0591098,0.318113794 L53.1384354,0.00396950613 C53.3043586,-0.0208157938 53.4577761,0.0730417282 53.4806081,0.213606149 L53.5010429,0.340863348 C53.5233542,0.481427769 53.4092883,0.615470202 53.2467646,0.640255501 L51.2105254,0.954399789 C51.0517395,0.979185089 50.8954116,0.885327567 50.8608624,0.744763146 L50.8293482,0.617505947 C50.7942782,0.476941527 50.8969244,0.342899094 51.0591098,0.318113794 Z M53.5593656,4.6137158 L56.6408033,4.10350588 C56.8866988,4.063203 57.1170246,4.19556718 57.1545152,4.39916238 L57.1881063,4.58348934 C57.2248231,4.78709803 57.0587487,4.98476642 56.817904,5.02498121 L53.8004831,5.53407472 C53.5651919,5.57419267 53.3305418,5.44190389 53.2756422,5.2386123 L53.2255896,5.05457241 C53.1699162,4.85129431 53.3190236,4.65392183 53.5593656,4.6137158 Z M53.5567674,6.01343247 L56.6288234,5.44957006 C56.8739774,5.40498571 57.1065803,5.53331361 57.1476216,5.73622408 L57.1844275,5.91993725 C57.2246953,6.12287471 57.0620991,6.32340878 56.8219936,6.36781699 L53.7338764,6.90649232 C53.4161511,6.90649232 53.2572884,6.78524497 53.2572884,6.54275029 C53.1980726,6.34047391 53.3171643,6.05782315 53.5567674,6.01343247 Z M53.5181179,7.44485984 L56.254168,6.96554007 C56.4725076,6.92763657 56.6793721,7.035106 56.7155585,7.2056026 L56.7480075,7.35996918 C56.7835052,7.53048981 56.6383961,7.69934232 56.4245515,7.737089 L53.6742459,8.19526423 C53.3913732,8.19581583 53.2501477,8.09417033 53.2505695,7.89032773 C53.1982011,7.72039571 53.3047207,7.48259091 53.5181179,7.44485984 Z M53.2518155,8.721139 L55.640786,8.21189758 C55.8314358,8.17160617 56.0151863,8.27675911 56.0506308,8.44679327 L56.0824467,8.60074461 C56.1172879,8.77081036 55.993708,8.9411957 55.8069967,8.98128089 L53.4050646,9.46954258 C53.157009,9.47320618 53.030948,9.37315281 53.0268816,9.16938247 C52.9772584,9.00009071 53.0654962,8.76120366 53.2518155,8.721139 Z" id="Combined-Shape" fill="#EDEDED"></path>
                    <path d="M0.0934829384,9.97435112 C2.03182666,9.66342269 3.53259104,11.2587453 4.59577608,14.760319 C6.19055365,20.0126794 4.53124475,21.3215026 3.53692141,21.3215026" id="Path-22" stroke="#000000" stroke-width="0.5" stroke-linecap="round"></path>
                    <path d="M6.24386825,13.5787038 L11.5217285,12.7372386 C11.9430059,12.6844069 12.3564348,12.639719 12.5688169,13.2916978 C12.781199,13.9436766 12.2472969,14.0147152 11.8344827,14.0899916 C8.8434271,14.6442386 7.01492498,14.933147 6.3489763,14.9567167 C5.78488977,14.9766812 5.55602513,14.7822957 5.49189139,14.5145311 C5.35108193,13.926638 5.83208094,13.6315358 6.24386825,13.5787038 Z" id="Rectangle" fill="#EDEDED" transform="translate(9.041943, 13.833946) rotate(-2.000000) translate(-9.041943, -13.833946) "></path>
                    <path d="M6.79633602,16.309605 L12.2622851,15.3237736 C12.6835626,15.2709419 12.9970808,15.3494333 13.0521966,15.9225361 C13.1073125,16.495639 12.7191893,16.6387287 12.3063751,16.7140051 C9.47319176,17.3024257 7.72362577,17.6084208 7.05767709,17.6319905 C6.49359056,17.651955 6.21412057,17.5392924 6.14998683,17.2715279 C6.00917737,16.6836348 6.38454871,16.3624371 6.79633602,16.309605 Z" id="Rectangle-Copy-13" fill="#EDEDED" transform="translate(9.588635, 16.472107) rotate(-2.000000) translate(-9.588635, -16.472107) "></path>
                    <path d="M5.12326354,11.586441 L10.733196,10.6222799 C11.1544735,10.5694482 11.6988939,10.6267539 11.7540097,11.1998568 C11.8091256,11.7729596 11.1982193,11.8606377 10.785405,11.9359141 C7.908038,12.4539613 6.13638017,12.7247697 5.47043149,12.7483394 C5.20587998,12.7577026 4.75130988,12.6155154 4.64741808,12.359081 C4.52978792,12.0687364 4.79772049,11.6556517 5.12326354,11.586441 Z" id="Rectangle-Copy-15" fill="#EDEDED" transform="translate(8.188351, 11.677798) rotate(-2.000000) translate(-8.188351, -11.677798) "></path>
                    <path d="M3.79337687,9.68411401 L9.40331242,8.81763926 C9.82459005,8.77016067 10.3690102,8.82166309 10.4241243,9.33671138 C10.4792383,9.85175967 9.86833171,9.93055411 9.45551721,9.99820378 C6.57814857,10.4637641 4.80648988,10.7071343 4.14054113,10.7283143 C3.87598959,10.7367282 3.42141994,10.608943 3.31752895,10.3784848 C3.19989972,10.1175515 3.4678336,9.74631267 3.79337687,9.68411401 Z" id="Rectangle-Copy-15" fill="#EDEDED" transform="translate(6.858464, 9.766227) rotate(-2.000000) translate(-6.858464, -9.766227) "></path>
                    <path d="M6.6991406,18.3086925 L11.9939352,17.5071132 C12.4020217,17.4641602 12.7057255,17.5280078 12.7591275,17.994111 C12.8125295,18.4602142 12.4365611,18.5765747 12.0366733,18.6377821 C9.29220659,19.1162418 7.59742431,19.3650445 6.95232641,19.3841902 C6.40590137,19.4004075 6.13517904,19.3087698 6.07304778,19.0909962 C5.9366349,18.6128611 6.30024708,18.3516461 6.6991406,18.3086925 Z" id="Rectangle-Copy-14" fill="#EDEDED" transform="translate(9.404019, 18.440956) rotate(-4.000000) translate(-9.404019, -18.440956) "></path>
                </g>
                <g id="balls" transform="translate(1.085950, 12.368712)" fill="#979797">
                    <ellipse id="Oval" cx="1.95471074" cy="0.43398991" rx="1" ry="1"></ellipse>
                    <ellipse id="Oval-Copy" cx="0.977355372" cy="0.976477298" rx="1" ry="1"></ellipse>
                    <ellipse id="Oval-Copy-2" cx="0.325785124" cy="2.06145207" rx="1" ry="1"></ellipse>
                    <ellipse id="Oval-Copy-3" cx="3.04066116" cy="1.30196973" rx="1" ry="1"></ellipse>
                    <ellipse id="Oval-Copy-4" cx="2.60628099" cy="2.60393946" rx="1" ry="1"></ellipse>
                    <ellipse id="Oval-Copy-5" cx="1.62892562" cy="2.06145207" rx="1" ry="1"></ellipse>
                    <ellipse id="Oval-Copy-6" cx="3.90942149" cy="2.82093442" rx="1" ry="1"></ellipse>
                    <ellipse id="Oval-Copy-7" cx="4.34380165" cy="4.3398991" rx="1" ry="1"></ellipse>
                    <ellipse id="Oval-Copy-8" cx="3.25785124" cy="4.55689406" rx="1" ry="1"></ellipse>
                    <ellipse id="Oval-Copy-9" cx="2.36194215" cy="3.87878482" rx="1" ry="1"></ellipse>
                    <ellipse id="Oval-Copy-10" cx="1.41173554" cy="3.36342181" rx="1" ry="1"></ellipse>
                    <ellipse id="Oval-Copy-11" cx="0.338253435" cy="3.79741172" rx="1" ry="1"></ellipse>
                    <ellipse id="Oval-Copy-12" cx="0.977355372" cy="5.3163764" rx="1" ry="1"></ellipse>
                    <ellipse id="Oval-Copy-13" cx="2.06330579" cy="5.09938145" rx="1" ry="1"></ellipse>
                    <ellipse id="Oval-Copy-14" cx="3.0135124" cy="6.04873438" rx="1" ry="1"></ellipse>
                    <ellipse id="Oval-Copy-15" cx="4.34380165" cy="5.85886379" rx="1" ry="1"></ellipse>
                    <ellipse id="Oval-Copy-16" cx="4.12661157" cy="7.16083352" rx="1" ry="1"></ellipse>
                    <ellipse id="Oval-Copy-17" cx="2.93206612" cy="7.48632595" rx="1" ry="1"></ellipse>
                    <ellipse id="Oval-Copy-18" cx="1.8461157" cy="6.61834613" rx="1" ry="1"></ellipse>
                </g>
                <path d="" id="Path-5" stroke="#979797"></path>
                <path d="M70.0170898,5.10205078 C72.2107344,5.96875 78.8051758,14.905188 78.8051758,19.9584961 C78.8051758,25.0118042 70.5400391,32.0485302 58.0644531,30.581543 C45.5888672,29.1145557 37.9912109,25.0118042 30.6044922,25.0118042 C26.4916355,25.0118042 18.2282074,26.2068255 15.1157227,30.581543 C12.6381635,34.063848 13.8878652,39.5755009 19.75,47.9975586" id="Path-7" stroke="#000000" stroke-width="0.5"></path>
                <path d="M68.8127844,6.79638672 C79.1890666,17.2268647 78.8699225,24.1486319 67.8553519,27.5616883 C51.3334961,32.681273 37.0928044,17.4817951 20.1782227,24.3480404 C8.90183485,28.9255373 8.290995,37.4039249 18.3457031,49.7832031" id="Path-6" stroke="#000000" stroke-width="0.5"></path>
            </g>
        </g>
        <path d="M56.9304813,115.997208 C56.8112737,115.999067 56.6918418,116 56.5721925,116 C44.1059148,116 34,105.87146 34,93.3772727 C34,80.8830855 44.1059148,70.7545455 56.5721925,70.7545455 C56.9683828,70.7545455 57.362189,70.7647756 57.7533626,70.7849866 C60.3644485,61.373565 68.8937702,54.4319327 79.070546,54.2404264 C81.4801551,44.3446779 90.3842728,37 101,37 C111.622019,37 120.530399,44.353387 122.933732,54.2580251 C123.264188,54.2436339 123.596488,54.2363636 123.930481,54.2363636 C134.286747,54.2363636 143.014048,61.2264029 145.671685,70.7558386 C158.025626,70.8869135 168,80.9646654 168,93.3772727 C168,105.51033 158.469841,115.412517 146.502674,115.974802 L146.502674,116 L56.9304813,116 Z" id="cloud-copy-2" stroke="#C0D5ED" stroke-width="2.625" transform="translate(101.000000, 76.500000) scale(-1, 1) translate(-101.000000, -76.500000) "></path>
    </g>
</svg>