<?xml version="1.0" encoding="UTF-8"?>
<svg width="80px" height="80px" viewBox="0 0 80 80" version="1.1" xmlns="http://www.w3.org/2000/svg" xmlns:xlink="http://www.w3.org/1999/xlink">
    <!-- Generator: Sketch 53.2 (72643) - https://sketchapp.com -->
    <title>mastering</title>
    <desc>Created with Sketch.</desc>
    <g id="mastering" stroke="none" stroke-width="1" fill="none" fill-rule="evenodd">
        <g id="icon-speaker" transform="translate(6.000000, 6.000000)" fill-rule="nonzero" stroke="#000000">
            <path d="M35.1488867,65.5834073 C53.4513309,65.5834073 69.8604187,53.0466332 69.8604187,34.9280318 C69.8604187,16.8094304 55.0742077,1.94213062 36.1406447,0.866503409 C17.2070818,-0.209123802 0.437354603,14.1203623 0.437354603,32.2389637 C0.437354603,50.3575651 16.8464425,65.5834073 35.1488867,65.5834073 Z" id="Oval" stroke-width="0.95890411" fill="#FFFFFF"></path>
            <path d="M34.0314157,49.3899734 C43.2318831,49.3899734 51.0113049,44.6580767 52.260274,33.9565217 C53.5092431,23.2549668 44.109589,15.4110714 34.513881,15.4110714 C24.9181729,15.4110714 16.5822532,23.005956 16.5822532,32.4517662 C16.5822532,41.8975764 24.8309482,49.3899734 34.0314157,49.3899734 Z" id="Oval" stroke-width="0.575342466"></path>
            <ellipse id="Oval" stroke-width="0.95890411" cx="34.6698011" cy="29.8387311" rx="6.86158192" ry="6.88220941"></ellipse>
            <path d="M34.2907002,51.173913 C44.619215,51.173913 53.1571038,46.8237344 54.420882,34.617215 C55.6846603,22.4106956 45.0684932,13.7943289 34.2907002,13.7943289 C23.5129073,13.7943289 14.1605184,22.1125359 14.1605184,32.457947 C14.1605184,42.8033581 23.9621854,51.173913 34.2907002,51.173913 Z" id="Oval" stroke-width="0.575342466"></path>
            <path d="M35,53.0869565 C47.4657534,53.0869565 56.5753425,46.1213398 56.5753425,33 C56.5753425,19.8786602 46.9863014,12.4347826 35.1488867,11.9565217 C23.311472,11.4782609 11.9863014,20.3712692 11.9863014,32.4005224 C11.9863014,44.4297756 22.5342466,53.0869565 35,53.0869565 Z" id="Oval" stroke-width="0.770547945"></path>
            <path d="M34.7452642,57.4866903 C48.5785069,57.4866903 60.9807245,48.4596877 60.9807245,34.459628 C60.9807245,20.4595683 49.8050999,8.97175648 35.4948488,8.14063024 C21.1845977,7.30950399 8.50980392,18.3817527 8.50980392,32.3818124 C8.50980392,46.381872 20.9120215,57.4866903 34.7452642,57.4866903 Z" id="Oval" stroke-width="0.575342466"></path>
            <path d="M35.1488867,59.9157054 C50.4718632,59.9157054 64.2097042,50.1487845 64.2097042,35.0011789 C64.2097042,19.8535734 51.8305508,7.42413764 35.9791957,6.5248863 C20.1278407,5.62563495 6.08806913,17.605445 6.08806913,32.7530506 C6.08806913,47.9006561 19.8259101,59.9157054 35.1488867,59.9157054 Z" id="Oval" stroke-width="0.95890411"></path>
        </g>
    </g>
</svg>