<?xml version="1.0" encoding="UTF-8"?>
<svg width="178px" height="130px" viewBox="0 0 178 130" version="1.1" xmlns="http://www.w3.org/2000/svg" xmlns:xlink="http://www.w3.org/1999/xlink">
    <!-- Generator: Sketch 52.6 (67491) - http://www.bohemiancoding.com/sketch -->
    <title>mastering-cloud</title>
    <desc>Created with Sketch.</desc>
    <g id="mastering-cloud" stroke="none" stroke-width="1" fill="none" fill-rule="evenodd">
        <g id="icon-speaker" transform="translate(50.000000, 33.000000)" fill-rule="nonzero" stroke="#000000">
            <path d="M31.633998,59.1720779 C48.1061978,59.1720779 62.8743769,47.8608789 62.8743769,31.5135231 C62.8743769,15.1661672 49.5667869,1.75227103 32.5265803,0.781795417 C15.4863736,-0.188680193 0.393619143,12.7399782 0.393619143,29.087334 C0.393619143,45.4346898 15.1617982,59.1720779 31.633998,59.1720779 Z" id="Oval" stroke-width="1.07142857" fill="#FFFFFF"></path>
            <path d="M30.6282741,44.5616883 C38.9086948,44.5616883 46.3980492,40.0912412 47.5221213,30.4358531 C48.6461935,20.7804651 39.6284454,14.4104498 31.0624929,13.9045096 C22.4965404,13.3985695 14.9240279,20.7569304 14.9240279,29.2793333 C14.9240279,37.8017361 22.3478534,44.5616883 30.6282741,44.5616883 Z" id="Oval" stroke-width="0.535714286"></path>
            <ellipse id="Oval" stroke-width="0.535714286" cx="31.2707378" cy="26.663961" rx="6.17542373" ry="6.20941558"></ellipse>
            <path d="M30.3741729,46.0227273 C39.6698362,46.0227273 47.8413934,42.2463208 48.9787938,31.2330912 C50.1161942,20.2198617 40.4778336,12.9999422 30.8616302,12.4458173 C21.2454268,11.8916923 12.7444666,19.9508496 12.7444666,29.2849098 C12.7444666,38.6189701 21.0785096,46.0227273 30.3741729,46.0227273 Z" id="Oval" stroke-width="0.535714286"></path>
            <path d="M31.2707378,48.2142857 C41.8052841,48.2142857 51.2500499,42.3718986 51.2500499,30.8442096 C51.2500499,19.3165205 42.7393819,11.6178635 31.8415753,10.9909175 C20.9437687,10.3639714 11.2914257,18.7161355 11.2914257,29.2768444 C11.2914257,39.8375533 20.7361914,48.2142857 31.2707378,48.2142857 Z" id="Oval" stroke-width="0.803571429"></path>
            <path d="M31.2707378,51.8668831 C43.7206562,51.8668831 54.882652,43.7223458 54.882652,31.0909097 C54.882652,18.4594735 44.8245899,8.09469187 31.9453639,7.3448152 C19.0661379,6.59493853 7.65882353,16.5847819 7.65882353,29.216218 C7.65882353,41.8476542 18.8208194,51.8668831 31.2707378,51.8668831 Z" id="Oval" stroke-width="0.535714286"></path>
            <path d="M31.633998,54.0584416 C45.4246769,54.0584416 57.7887338,45.2463193 57.7887338,31.5795195 C57.7887338,17.9127197 46.6474957,6.69836578 32.3812762,5.88702381 C18.1150566,5.07568185 5.47926221,15.8843648 5.47926221,29.5511646 C5.47926221,43.2179643 17.8433191,54.0584416 31.633998,54.0584416 Z" id="Oval" stroke-width="0.535714286"></path>
        </g>
        <path d="M36.9304813,95.9972078 C36.8112737,95.999067 36.6918418,96 36.5721925,96 C24.1059148,96 14,85.87146 14,73.3772727 C14,60.8830855 24.1059148,50.7545455 36.5721925,50.7545455 C36.9683828,50.7545455 37.362189,50.7647756 37.7533626,50.7849866 C40.3644485,41.373565 48.8937702,34.4319327 59.070546,34.2404264 C61.4801551,24.3446779 70.3842728,17 81,17 C91.6220193,17 100.530399,24.353387 102.933732,34.2580251 C103.264188,34.2436339 103.596488,34.2363636 103.930481,34.2363636 C114.286747,34.2363636 123.014048,41.2264029 125.671685,50.7558386 C138.025626,50.8869135 148,60.9646654 148,73.3772727 C148,85.5103303 138.469841,95.4125167 126.502674,95.9748024 L126.502674,96 L36.9304813,96 Z" id="cloud-copy-2" stroke="#C0D5ED" stroke-width="2.625" transform="translate(81.000000, 56.500000) scale(-1, 1) translate(-81.000000, -56.500000) "></path>
    </g>
</svg>