<?xml version="1.0" encoding="UTF-8"?>
<svg width="195px" height="148px" viewBox="0 0 195 148" version="1.1" xmlns="http://www.w3.org/2000/svg" xmlns:xlink="http://www.w3.org/1999/xlink">
    <!-- Generator: Sketch 53.2 (72643) - https://sketchapp.com -->
    <title>mastering-cloud</title>
    <desc>Created with Sketch.</desc>
    <g id="mastering-cloud" stroke="none" stroke-width="1" fill="none" fill-rule="evenodd">
        <path d="M42.5508021,117.996642 C42.4075751,117.998878 42.2640786,118 42.1203209,118 C27.1421812,118 15,105.82011 15,90.7954545 C15,75.770799 27.1421812,63.5909091 42.1203209,63.5909091 C42.5963405,63.5909091 43.0694958,63.6032111 43.5394879,63.6275156 C46.6766881,52.3099832 56.9246045,43.9624508 69.1519247,43.7321583 C72.047052,31.8322075 82.745283,23 95.5,23 C108.262277,23 118.965629,31.8426806 121.853215,43.7533214 C122.250256,43.7360154 122.649511,43.7272727 123.050802,43.7272727 C135.493778,43.7272727 145.979565,52.1330161 149.172696,63.5924641 C164.015864,63.7500858 176,75.8689014 176,90.7954545 C176,105.38584 164.549586,117.293533 150.171123,117.969699 L150.171123,118 L42.5508021,118 Z" id="cloud-copy-2" stroke="#FFFFFF" stroke-width="3.15" fill="#FFFFFF" transform="translate(95.500000, 70.500000) scale(-1, 1) translate(-95.500000, -70.500000) "></path>
        <g id="icon-speaker" transform="translate(57.000000, 43.000000)" fill-rule="nonzero" stroke="#000000">
            <path d="M35.1488867,65.5834073 C53.4513309,65.5834073 69.8604187,53.0466332 69.8604187,34.9280318 C69.8604187,16.8094304 55.0742077,1.94213062 36.1406447,0.866503409 C17.2070818,-0.209123802 0.437354603,14.1203623 0.437354603,32.2389637 C0.437354603,50.3575651 16.8464425,65.5834073 35.1488867,65.5834073 Z" id="Oval" stroke-width="0.95890411" fill="#FFFFFF"></path>
            <path d="M34.0314157,49.3899734 C43.2318831,49.3899734 51.0113049,44.6580767 52.260274,33.9565217 C53.5092431,23.2549668 44.109589,15.4110714 34.513881,15.4110714 C24.9181729,15.4110714 16.5822532,23.005956 16.5822532,32.4517662 C16.5822532,41.8975764 24.8309482,49.3899734 34.0314157,49.3899734 Z" id="Oval" stroke-width="0.575342466"></path>
            <ellipse id="Oval" stroke-width="0.95890411" cx="34.6698011" cy="29.8387311" rx="6.86158192" ry="6.88220941"></ellipse>
            <path d="M34.2907002,51.173913 C44.619215,51.173913 53.1571038,46.8237344 54.420882,34.617215 C55.6846603,22.4106956 45.0684932,13.7943289 34.2907002,13.7943289 C23.5129073,13.7943289 14.1605184,22.1125359 14.1605184,32.457947 C14.1605184,42.8033581 23.9621854,51.173913 34.2907002,51.173913 Z" id="Oval" stroke-width="0.575342466"></path>
            <path d="M35,53.0869565 C47.4657534,53.0869565 56.5753425,46.1213398 56.5753425,33 C56.5753425,19.8786602 46.9863014,12.4347826 35.1488867,11.9565217 C23.311472,11.4782609 11.9863014,20.3712692 11.9863014,32.4005224 C11.9863014,44.4297756 22.5342466,53.0869565 35,53.0869565 Z" id="Oval" stroke-width="0.770547945"></path>
            <path d="M34.7452642,57.4866903 C48.5785069,57.4866903 60.9807245,48.4596877 60.9807245,34.459628 C60.9807245,20.4595683 49.8050999,8.97175648 35.4948488,8.14063024 C21.1845977,7.30950399 8.50980392,18.3817527 8.50980392,32.3818124 C8.50980392,46.381872 20.9120215,57.4866903 34.7452642,57.4866903 Z" id="Oval" stroke-width="0.575342466"></path>
            <path d="M35.1488867,59.9157054 C50.4718632,59.9157054 64.2097042,50.1487845 64.2097042,35.0011789 C64.2097042,19.8535734 51.8305508,7.42413764 35.9791957,6.5248863 C20.1278407,5.62563495 6.08806913,17.605445 6.08806913,32.7530506 C6.08806913,47.9006561 19.8259101,59.9157054 35.1488867,59.9157054 Z" id="Oval" stroke-width="0.95890411"></path>
        </g>
        <path d="M42.1203209,63.5909091 C27.1421812,63.5909091 15,75.770799 15,90.7954545 C15,105.82011 27.1421812,118 42.1203209,118 C57.0984605,118 48.5088306,118 63.4869702,118 L95.5,118 L129.56906,118 C144.580733,118 130.169806,68.9913694 124.76309,50.2045455 C119.356373,31.4177215 110.47814,23 95.5,23 C80.5218604,23 68.3796791,35.1798899 68.3796791,50.2045455 C68.3796791,65.21242 82.9441041,43.7272727 67.9491979,43.7272727 C52.9710582,43.7272727 40.828877,55.9071626 40.828877,70.9318182 C40.828877,113.451081 78.8463546,43.7272727 121.328877,43.7272727 C136.307017,43.7272727 148.449198,55.9071626 148.449198,70.9318182 C148.449198,85.9396927 133.884773,63.5909091 148.879679,63.5909091 C163.857819,63.5909091 176,75.770799 176,90.7954545 C176,105.82011 163.857819,118 148.879679,118" id="Path" stroke="#449AFF" stroke-width="2"></path>
    </g>
</svg>