<?xml version="1.0" encoding="UTF-8"?>
<svg width="113px" height="113px" viewBox="0 0 113 113" version="1.1" xmlns="http://www.w3.org/2000/svg" xmlns:xlink="http://www.w3.org/1999/xlink">
    <!-- Generator: Sketch 52.6 (67491) - http://www.bohemiancoding.com/sketch -->
    <title>mixing</title>
    <desc>Created with Sketch.</desc>
    <g id="mixing" stroke="none" stroke-width="1" fill="none" fill-rule="evenodd">
        <g id="visier" transform="translate(19.000000, 32.000000)" fill-rule="nonzero">
            <path d="M2.54452555,0.343216761 C0.894160584,0.685222752 0.0689781022,1.3034179 0.0689781022,2.1978022 C0.0689781022,3.53937865 2.3055773,49.3579243 2.75289714,49.6560524 C3.20021698,49.9541805 74.473178,41.0103375 74.7713912,40.7122094 C74.9702,40.5134573 74.3323401,29.2498664 72.8578114,6.92143677 C72.6647569,5.62765153 72.1209098,4.88138287 71.2262701,4.6826308 C70.3316304,4.48387874 47.4377156,3.03740739 2.54452555,0.343216761 Z" id="around" stroke="#2E3645" stroke-width="1.0989011" fill="#FFFFFF"></path>
            <g id="meas" transform="translate(10.719511, 14.371257)" stroke="#000000" stroke-linecap="round" stroke-width="0.5">
                <path d="M14.833044,0.146410476 L14.6874236,2.04974666" id="Path"></path>
                <path d="M1.41287605,3.9064937 L1.2947325,5.80472078" id="Path" transform="translate(1.353804, 4.855607) rotate(-47.000000) translate(-1.353804, -4.855607) "></path>
                <path d="M4.27243967,1.93500578 L4.15261977,3.83499311" id="Path-Copy-2" transform="translate(4.212530, 2.884999) rotate(-37.000000) translate(-4.212530, -2.884999) "></path>
                <path d="M8.65993384,0.285979249 L8.53021735,2.18836429" id="Path-Copy" transform="translate(8.595076, 1.237172) rotate(-20.000000) translate(-8.595076, -1.237172) "></path>
                <path d="M6.2123083,2.09728217 L6.79702002,2.82105177" id="Path-2" transform="translate(6.504664, 2.459167) rotate(15.000000) translate(-6.504664, -2.459167) "></path>
                <path d="M2.7221129,3.92987627 L3.3091787,4.65453352" id="Path-2-Copy" transform="translate(3.015646, 4.292205) rotate(3.000000) translate(-3.015646, -4.292205) "></path>
                <path d="M10.9645977,1.03211208 L11.5467979,1.75602827" id="Path-2-Copy-2" transform="translate(11.255698, 1.394070) rotate(27.000000) translate(-11.255698, -1.394070) "></path>
                <path d="M10.8893449,0.975574412 L11.4715451,1.6994906" id="v" transform="translate(11.180445, 1.337533) rotate(27.000000) translate(-11.180445, -1.337533) "></path>
                <path d="M17.3400442,1.84930999 L17.9182617,2.57672999" id="v-copy" transform="translate(17.629153, 2.213020) rotate(53.000000) translate(-17.629153, -2.213020) "></path>
                <path d="M20.8034819,2.19615714 C21.6076008,2.61554978 22.1900826,2.95717422 22.5509272,3.22103047 C22.9117718,3.48488671 23.3971733,3.92411814 24.0071316,4.53872475 L22.8421681,6.00282951 L19.9297593,3.80667237 L20.8034819,2.19615714 Z" id="Path-4" fill="#FF0000"></path>
            </g>
            <g id="meas" transform="translate(46.164479, 14.956899)" stroke="#000000" stroke-linecap="round" stroke-width="0.5">
                <path d="M11.9342441,0 L11.7886237,2.04974666" id="Path"></path>
                <path d="M1.67200167,4.92826669 L1.62772178,5.32454678" id="Path" transform="translate(1.649862, 5.126407) rotate(-47.000000) translate(-1.649862, -5.126407) "></path>
                <path d="M3.65176997,1.88746857 L3.40494646,3.59403038" id="Path-Copy-2" transform="translate(3.528358, 2.740749) rotate(-37.000000) translate(-3.528358, -2.740749) "></path>
                <path d="M7.09178349,0.285640961 L6.89043754,2.0649854" id="Path-Copy" transform="translate(6.991111, 1.175313) rotate(-20.000000) translate(-6.991111, -1.175313) "></path>
                <path d="M5.09020721,1.98460828 L5.5886476,2.68780896" id="Path-2" transform="translate(5.339427, 2.336209) rotate(15.000000) translate(-5.339427, -2.336209) "></path>
                <path d="M2.34567453,3.73108826 L2.81966978,4.42410104" id="Path-2-Copy" transform="translate(2.582672, 4.077595) rotate(3.000000) translate(-2.582672, -4.077595) "></path>
                <path d="M8.831069,0.973608229 L9.35559206,1.6751251" id="Path-2-Copy-2" transform="translate(9.093331, 1.324367) rotate(27.000000) translate(-9.093331, -1.324367) "></path>
                <path d="M8.77160999,0.919897448 L9.29613304,1.62141432" id="v" transform="translate(9.033872, 1.270656) rotate(27.000000) translate(-9.033872, -1.270656) "></path>
                <path d="M13.8461999,1.7717194 L14.412094,2.43301858" id="v-copy" transform="translate(14.129147, 2.102369) rotate(53.000000) translate(-14.129147, -2.102369) "></path>
                <path d="M16.4796821,2.04974666 C17.1114897,2.43687833 17.569154,2.75222397 17.8526748,2.99578358 C18.1361955,3.23934319 18.5175824,3.64478758 18.9968353,4.21211676 L18.0815069,5.56359808 L15.7931857,3.53637611 L16.4796821,2.04974666 Z" id="Path-4" fill="#FF0000"></path>
            </g>
            <path d="M8.16035179,24.6201659 L27.7223727,27.3016983" id="pointer-right" stroke="#000000" stroke-width="0.5" transform="translate(17.941362, 25.960932) rotate(39.000000) translate(-17.941362, -25.960932) "></path>
            <path d="M45.0897012,24.3234063 L59.9818556,26.9925743" id="pointer-left" stroke="#000000" stroke-width="0.5" transform="translate(52.535778, 25.657990) rotate(39.000000) translate(-52.535778, -25.657990) "></path>
            <path d="M2.25328467,1.19431467 C47.1043796,3.73209625 69.9667883,5.09859402 70.8405109,5.29380799 C71.7142336,5.48902196 72.1510949,6.17227084 72.1510949,7.34355465 C73.510219,29.50034 74.0927007,40.6763396 73.8985401,40.8715536 C73.6072993,41.1643745 4.00072993,49.9490031 3.56386861,49.6561821 C3.1270073,49.3633612 0.94270073,3.97611371 0.94270073,2.65841942 C0.94270073,1.77995657 1.37956204,1.29192165 2.25328467,1.19431467 Z M9.38868613,11.0038165 L10.1167883,24.1807594 L37.6390511,23.448707 L37.0565693,11.5894584 L9.38868613,11.0038165 Z M47.1043796,11.8822794 L47.6868613,23.155886 L68.2193431,22.7166546 L67.6368613,12.3215108 L47.1043796,11.8822794 Z" id="Combined-Shape" stroke="#000000" stroke-width="0.879120879" fill="#FFFFFF"></path>
        </g>
    </g>
</svg>