<?xml version="1.0" encoding="UTF-8"?>
<svg width="80px" height="80px" viewBox="0 0 80 80" version="1.1" xmlns="http://www.w3.org/2000/svg" xmlns:xlink="http://www.w3.org/1999/xlink">
    <!-- Generator: Sketch 53.2 (72643) - https://sketchapp.com -->
    <title>mixing</title>
    <desc>Created with Sketch.</desc>
    <g id="mixing" stroke="none" stroke-width="1" fill="none" fill-rule="evenodd">
        <g id="visier" transform="translate(2.000000, 13.000000)" fill-rule="nonzero" stroke="#000000">
            <path d="M3,0.194314667 C1,0.194314667 1.18614339e-16,0.182305718 0,1.5 C0,2.81769428 2.1270073,48.3633612 2.56386861,48.6561821 C3.00072993,48.9490031 72.6072993,40.1643745 72.8985401,39.8715536 C73.0927007,39.6763396 72.510219,28.50034 71.1510949,6.34355465 C71.1510949,5.17227084 70.7142336,4.48902196 69.8405109,4.29380799 C68.529927,4.00098704 5,0.194314667 3,0.194314667 Z" id="Combined-Shape" fill="#FFFFFF"></path>
            <g id="meas" transform="translate(9.719511, 13.371257)" stroke-linecap="round" stroke-width="0.6">
                <path d="M14.833044,0.146410476 L14.6874236,2.04974666" id="Path"></path>
                <path d="M1.41287605,3.9064937 L1.2947325,5.80472078" id="Path" transform="translate(1.353804, 4.855607) rotate(-47.000000) translate(-1.353804, -4.855607) "></path>
                <path d="M4.27243967,1.93500578 L4.15261977,3.83499311" id="Path-Copy-2" transform="translate(4.212530, 2.884999) rotate(-37.000000) translate(-4.212530, -2.884999) "></path>
                <path d="M8.65993384,0.285979249 L8.53021735,2.18836429" id="Path-Copy" transform="translate(8.595076, 1.237172) rotate(-20.000000) translate(-8.595076, -1.237172) "></path>
                <path d="M6.2123083,2.09728217 L6.79702002,2.82105177" id="Path-2" transform="translate(6.504664, 2.459167) rotate(15.000000) translate(-6.504664, -2.459167) "></path>
                <path d="M2.7221129,3.92987627 L3.3091787,4.65453352" id="Path-2-Copy" transform="translate(3.015646, 4.292205) rotate(3.000000) translate(-3.015646, -4.292205) "></path>
                <path d="M10.9645977,1.03211208 L11.5467979,1.75602827" id="Path-2-Copy-2" transform="translate(11.255698, 1.394070) rotate(27.000000) translate(-11.255698, -1.394070) "></path>
                <path d="M10.8893449,0.975574412 L11.4715451,1.6994906" id="v" transform="translate(11.180445, 1.337533) rotate(27.000000) translate(-11.180445, -1.337533) "></path>
                <path d="M17.3400442,1.84930999 L17.9182617,2.57672999" id="v-copy" transform="translate(17.629153, 2.213020) rotate(53.000000) translate(-17.629153, -2.213020) "></path>
                <path d="M20.8034819,2.19615714 C21.6076008,2.61554978 22.1900826,2.95717422 22.5509272,3.22103047 C22.9117718,3.48488671 23.3971733,3.92411814 24.0071316,4.53872475 L22.8421681,6.00282951 L19.9297593,3.80667237 L20.8034819,2.19615714 Z" id="Path-4" fill="#FF0000"></path>
            </g>
            <g id="meas" transform="translate(46.164479, 13.956899)" stroke-linecap="round" stroke-width="0.6">
                <path d="M10.9342441,0 L10.7886237,2.04974666" id="Path"></path>
                <path d="M0.672001667,4.92826669 L0.627721782,5.32454678" id="Path" transform="translate(0.649862, 5.126407) rotate(-47.000000) translate(-0.649862, -5.126407) "></path>
                <path d="M2.65176997,1.88746857 L2.40494646,3.59403038" id="Path-Copy-2" transform="translate(2.528358, 2.740749) rotate(-37.000000) translate(-2.528358, -2.740749) "></path>
                <path d="M6.09178349,0.285640961 L5.89043754,2.0649854" id="Path-Copy" transform="translate(5.991111, 1.175313) rotate(-20.000000) translate(-5.991111, -1.175313) "></path>
                <path d="M4.09020721,1.98460828 L4.5886476,2.68780896" id="Path-2" transform="translate(4.339427, 2.336209) rotate(15.000000) translate(-4.339427, -2.336209) "></path>
                <path d="M1.34567453,3.73108826 L1.81966978,4.42410104" id="Path-2-Copy" transform="translate(1.582672, 4.077595) rotate(3.000000) translate(-1.582672, -4.077595) "></path>
                <path d="M7.831069,0.973608229 L8.35559206,1.6751251" id="Path-2-Copy-2" transform="translate(8.093331, 1.324367) rotate(27.000000) translate(-8.093331, -1.324367) "></path>
                <path d="M7.77160999,0.919897448 L8.29613304,1.62141432" id="v" transform="translate(8.033872, 1.270656) rotate(27.000000) translate(-8.033872, -1.270656) "></path>
                <path d="M12.8461999,1.7717194 L13.412094,2.43301858" id="v-copy" transform="translate(13.129147, 2.102369) rotate(53.000000) translate(-13.129147, -2.102369) "></path>
                <path d="M15.4796821,2.04974666 C16.1114897,2.43687833 16.569154,2.75222397 16.8526748,2.99578358 C17.1361955,3.23934319 17.5175824,3.64478758 17.9968353,4.21211676 L17.0815069,5.56359808 L14.7931857,3.53637611 L15.4796821,2.04974666 Z" id="Path-4" fill="#FF0000"></path>
            </g>
            <path d="M7.16035179,23.6201659 L26.7223727,26.3016983" id="pointer-right" stroke-width="0.5" transform="translate(16.941362, 24.960932) rotate(39.000000) translate(-16.941362, -24.960932) "></path>
            <path d="M44.0897012,23.3234063 L58.9818556,25.9925743" id="pointer-left" stroke-width="0.5" transform="translate(51.535778, 24.657990) rotate(39.000000) translate(-51.535778, -24.657990) "></path>
            <path d="M2.5,0.194314667 C46.6032419,2.57799541 69.0857855,3.86649824 69.9476309,4.05982315 C70.8094763,4.25314806 71.240399,4.92978526 71.240399,6.08973473 C72.5810474,28.0321122 73.155611,39.0999635 72.9640898,39.2932884 C72.676808,39.5832757 3.43092269,48.2899874 3,48 C2.56907731,47.7100126 0.5,2.80494316 0.5,1.5 C0.5,0.630037896 1.16666667,0.194809452 2.5,0.194314667 Z M9,10 L9.71782178,23 L36.8514851,22.2777778 L36.2772277,10.5777778 L9,10 Z M46.1831683,10.8666667 L46.7574257,21.9888889 L67,21.5555556 L66.4257426,11.3 L46.1831683,10.8666667 Z" id="Combined-Shape" stroke-width="0.879120879" fill="#FFFFFF"></path>
        </g>
    </g>
</svg>