<?xml version="1.0" encoding="UTF-8"?>
<svg width="195px" height="148px" viewBox="0 0 195 148" version="1.1" xmlns="http://www.w3.org/2000/svg" xmlns:xlink="http://www.w3.org/1999/xlink">
    <!-- Generator: Sketch 53.2 (72643) - https://sketchapp.com -->
    <title>mixing-cloud</title>
    <desc>Created with Sketch.</desc>
    <g id="mixing-cloud" stroke="none" stroke-width="1" fill="none" fill-rule="evenodd">
        <path d="M42.5508021,117.996642 C42.4075751,117.998878 42.2640786,118 42.1203209,118 C27.1421812,118 15,105.82011 15,90.7954545 C15,75.770799 27.1421812,63.5909091 42.1203209,63.5909091 C42.5963405,63.5909091 43.0694958,63.6032111 43.5394879,63.6275156 C46.6766881,52.3099832 56.9246045,43.9624508 69.1519247,43.7321583 C72.047052,31.8322075 82.745283,23 95.5,23 C108.262277,23 118.965629,31.8426806 121.853215,43.7533214 C122.250256,43.7360154 122.649511,43.7272727 123.050802,43.7272727 C135.493778,43.7272727 145.979565,52.1330161 149.172696,63.5924641 C164.015864,63.7500858 176,75.8689014 176,90.7954545 C176,105.38584 164.549586,117.293533 150.171123,117.969699 L150.171123,118 L42.5508021,118 Z" id="cloud-copy-2" stroke="#FFFFFF" stroke-width="3.15" fill="#FFFFFF" transform="translate(95.500000, 70.500000) scale(-1, 1) translate(-95.500000, -70.500000) "></path>
        <g id="visier" transform="translate(61.000000, 58.000000)" fill-rule="nonzero" stroke="#000000">
            <path d="M3,0.194314667 C1,0.194314667 1.18614339e-16,0.182305718 0,1.5 C0,2.81769428 2.1270073,48.3633612 2.56386861,48.6561821 C3.00072993,48.9490031 72.6072993,40.1643745 72.8985401,39.8715536 C73.0927007,39.6763396 72.510219,28.50034 71.1510949,6.34355465 C71.1510949,5.17227084 70.7142336,4.48902196 69.8405109,4.29380799 C68.529927,4.00098704 5,0.194314667 3,0.194314667 Z" id="Combined-Shape" fill="#FFFFFF"></path>
            <g id="meas" transform="translate(9.719511, 13.371257)" stroke-linecap="round" stroke-width="0.6">
                <path d="M14.833044,0.146410476 L14.6874236,2.04974666" id="Path"></path>
                <path d="M1.41287605,3.9064937 L1.2947325,5.80472078" id="Path" transform="translate(1.353804, 4.855607) rotate(-47.000000) translate(-1.353804, -4.855607) "></path>
                <path d="M4.27243967,1.93500578 L4.15261977,3.83499311" id="Path-Copy-2" transform="translate(4.212530, 2.884999) rotate(-37.000000) translate(-4.212530, -2.884999) "></path>
                <path d="M8.65993384,0.285979249 L8.53021735,2.18836429" id="Path-Copy" transform="translate(8.595076, 1.237172) rotate(-20.000000) translate(-8.595076, -1.237172) "></path>
                <path d="M6.2123083,2.09728217 L6.79702002,2.82105177" id="Path-2" transform="translate(6.504664, 2.459167) rotate(15.000000) translate(-6.504664, -2.459167) "></path>
                <path d="M2.7221129,3.92987627 L3.3091787,4.65453352" id="Path-2-Copy" transform="translate(3.015646, 4.292205) rotate(3.000000) translate(-3.015646, -4.292205) "></path>
                <path d="M10.9645977,1.03211208 L11.5467979,1.75602827" id="Path-2-Copy-2" transform="translate(11.255698, 1.394070) rotate(27.000000) translate(-11.255698, -1.394070) "></path>
                <path d="M10.8893449,0.975574412 L11.4715451,1.6994906" id="v" transform="translate(11.180445, 1.337533) rotate(27.000000) translate(-11.180445, -1.337533) "></path>
                <path d="M17.3400442,1.84930999 L17.9182617,2.57672999" id="v-copy" transform="translate(17.629153, 2.213020) rotate(53.000000) translate(-17.629153, -2.213020) "></path>
                <path d="M20.8034819,2.19615714 C21.6076008,2.61554978 22.1900826,2.95717422 22.5509272,3.22103047 C22.9117718,3.48488671 23.3971733,3.92411814 24.0071316,4.53872475 L22.8421681,6.00282951 L19.9297593,3.80667237 L20.8034819,2.19615714 Z" id="Path-4" fill="#FF0000"></path>
            </g>
            <g id="meas" transform="translate(46.164479, 13.956899)" stroke-linecap="round" stroke-width="0.6">
                <path d="M10.9342441,0 L10.7886237,2.04974666" id="Path"></path>
                <path d="M0.672001667,4.92826669 L0.627721782,5.32454678" id="Path" transform="translate(0.649862, 5.126407) rotate(-47.000000) translate(-0.649862, -5.126407) "></path>
                <path d="M2.65176997,1.88746857 L2.40494646,3.59403038" id="Path-Copy-2" transform="translate(2.528358, 2.740749) rotate(-37.000000) translate(-2.528358, -2.740749) "></path>
                <path d="M6.09178349,0.285640961 L5.89043754,2.0649854" id="Path-Copy" transform="translate(5.991111, 1.175313) rotate(-20.000000) translate(-5.991111, -1.175313) "></path>
                <path d="M4.09020721,1.98460828 L4.5886476,2.68780896" id="Path-2" transform="translate(4.339427, 2.336209) rotate(15.000000) translate(-4.339427, -2.336209) "></path>
                <path d="M1.34567453,3.73108826 L1.81966978,4.42410104" id="Path-2-Copy" transform="translate(1.582672, 4.077595) rotate(3.000000) translate(-1.582672, -4.077595) "></path>
                <path d="M7.831069,0.973608229 L8.35559206,1.6751251" id="Path-2-Copy-2" transform="translate(8.093331, 1.324367) rotate(27.000000) translate(-8.093331, -1.324367) "></path>
                <path d="M7.77160999,0.919897448 L8.29613304,1.62141432" id="v" transform="translate(8.033872, 1.270656) rotate(27.000000) translate(-8.033872, -1.270656) "></path>
                <path d="M12.8461999,1.7717194 L13.412094,2.43301858" id="v-copy" transform="translate(13.129147, 2.102369) rotate(53.000000) translate(-13.129147, -2.102369) "></path>
                <path d="M15.4796821,2.04974666 C16.1114897,2.43687833 16.569154,2.75222397 16.8526748,2.99578358 C17.1361955,3.23934319 17.5175824,3.64478758 17.9968353,4.21211676 L17.0815069,5.56359808 L14.7931857,3.53637611 L15.4796821,2.04974666 Z" id="Path-4" fill="#FF0000"></path>
            </g>
            <path d="M7.16035179,23.6201659 L26.7223727,26.3016983" id="pointer-right" stroke-width="0.5" transform="translate(16.941362, 24.960932) rotate(39.000000) translate(-16.941362, -24.960932) "></path>
            <path d="M44.0897012,23.3234063 L58.9818556,25.9925743" id="pointer-left" stroke-width="0.5" transform="translate(51.535778, 24.657990) rotate(39.000000) translate(-51.535778, -24.657990) "></path>
            <path d="M2.5,0.194314667 C46.6032419,2.57799541 69.0857855,3.86649824 69.9476309,4.05982315 C70.8094763,4.25314806 71.240399,4.92978526 71.240399,6.08973473 C72.5810474,28.0321122 73.155611,39.0999635 72.9640898,39.2932884 C72.676808,39.5832757 3.43092269,48.2899874 3,48 C2.56907731,47.7100126 0.5,2.80494316 0.5,1.5 C0.5,0.630037896 1.16666667,0.194809452 2.5,0.194314667 Z M9,10 L9.71782178,23 L36.8514851,22.2777778 L36.2772277,10.5777778 L9,10 Z M46.1831683,10.8666667 L46.7574257,21.9888889 L67,21.5555556 L66.4257426,11.3 L46.1831683,10.8666667 Z" id="Combined-Shape" stroke-width="0.879120879" fill="#FFFFFF"></path>
        </g>
        <path d="M42.1203209,63.5909091 C27.1421812,63.5909091 15,75.770799 15,90.7954545 C15,105.82011 27.1421812,118 42.1203209,118 C57.0984605,118 48.5088306,118 63.4869702,118 L95.5,118 L129.56906,118 C144.580733,118 130.169806,68.9913694 124.76309,50.2045455 C119.356373,31.4177215 110.47814,23 95.5,23 C80.5218604,23 68.3796791,35.1798899 68.3796791,50.2045455 C68.3796791,65.21242 82.9441041,43.7272727 67.9491979,43.7272727 C52.9710582,43.7272727 40.828877,55.9071626 40.828877,70.9318182 C40.828877,113.451081 78.8463546,43.7272727 121.328877,43.7272727 C136.307017,43.7272727 148.449198,55.9071626 148.449198,70.9318182 C148.449198,85.9396927 133.884773,63.5909091 148.879679,63.5909091 C163.857819,63.5909091 176,75.770799 176,90.7954545 C176,105.82011 163.857819,118 148.879679,118" id="Path" stroke="#449AFF" stroke-width="2"></path>
    </g>
</svg>