<?xml version="1.0" encoding="UTF-8"?>
<svg width="167px" height="113px" viewBox="0 0 167 113" version="1.1" xmlns="http://www.w3.org/2000/svg" xmlns:xlink="http://www.w3.org/1999/xlink">
    <!-- Generator: Sketch 52.6 (67491) - http://www.bohemiancoding.com/sketch -->
    <title>mixing-cloud</title>
    <desc>Created with Sketch.</desc>
    <g id="mixing-cloud" stroke="none" stroke-width="1" fill="none" fill-rule="evenodd">
        <path d="M35.9304813,86.9972078 C35.8112737,86.999067 35.6918418,87 35.5721925,87 C23.1059148,87 13,76.87146 13,64.3772727 C13,51.8830855 23.1059148,41.7545455 35.5721925,41.7545455 C35.9683828,41.7545455 36.362189,41.7647756 36.7533626,41.7849866 C39.3644485,32.373565 47.8937702,25.4319327 58.070546,25.2404264 C60.4801551,15.3446779 69.3842728,8 80,8 C90.6220193,8 99.5303995,15.353387 101.933732,25.2580251 C102.264188,25.2436339 102.596488,25.2363636 102.930481,25.2363636 C113.286747,25.2363636 122.014048,32.2264029 124.671685,41.7558386 C137.025626,41.8869135 147,51.9646654 147,64.3772727 C147,76.5103303 137.469841,86.4125167 125.502674,86.9748024 L125.502674,87 L35.9304813,87 Z" id="cloud-copy-2" stroke="#C0D5ED" stroke-width="2.625" transform="translate(80.000000, 47.500000) scale(-1, 1) translate(-80.000000, -47.500000) "></path>
        <g id="visier" transform="translate(45.000000, 31.000000)" fill-rule="nonzero">
            <path d="M2.64630657,0.356945432 C0.929927007,0.712631662 0.0717372263,1.35555461 0.0717372263,2.28571429 C0.0717372263,3.68095379 2.39780039,51.3322412 2.86301302,51.6422945 C3.32822565,51.9523477 77.4521051,42.650751 77.7622469,42.3406977 C77.969008,42.1339956 77.3056337,30.4198611 75.7721238,7.19829424 C75.5713472,5.85275759 75.0057462,5.07663818 74.0753209,4.86993603 C73.1448956,4.66323388 49.3352242,3.15890368 2.64630657,0.356945432 Z" id="around" stroke="#2E3645" stroke-width="1.14285714" fill="#FFFFFF"></path>
            <g id="meas" transform="translate(11.148291, 14.946108)" stroke="#000000" stroke-linecap="round" stroke-width="0.52">
                <path d="M15.4263658,0.152266895 L15.2749205,2.13173653" id="Path"></path>
                <path d="M1.46939109,4.06275345 L1.3465218,6.03690961" id="Path" transform="translate(1.407956, 5.049832) rotate(-47.000000) translate(-1.407956, -5.049832) "></path>
                <path d="M4.44333725,2.01240602 L4.31872456,3.98839284" id="Path-Copy-2" transform="translate(4.381031, 3.000399) rotate(-37.000000) translate(-4.381031, -3.000399) "></path>
                <path d="M9.0063312,0.297418419 L8.87142605,2.27589886" id="Path-Copy" transform="translate(8.938879, 1.286659) rotate(-20.000000) translate(-8.938879, -1.286659) "></path>
                <path d="M6.46080063,2.18117345 L7.06890082,2.93389384" id="Path-2" transform="translate(6.764851, 2.557534) rotate(15.000000) translate(-6.764851, -2.557534) "></path>
                <path d="M2.83099742,4.08707132 L3.44154584,4.84071486" id="Path-2-Copy" transform="translate(3.136272, 4.463893) rotate(3.000000) translate(-3.136272, -4.463893) "></path>
                <path d="M11.4031816,1.07339656 L12.0086698,1.8262694" id="Path-2-Copy-2" transform="translate(11.705926, 1.449833) rotate(27.000000) translate(-11.705926, -1.449833) "></path>
                <path d="M11.3249187,1.01459739 L11.9304069,1.76747023" id="v" transform="translate(11.627663, 1.391034) rotate(27.000000) translate(-11.627663, -1.391034) "></path>
                <path d="M18.033646,1.92328239 L18.6349922,2.67979919" id="v-copy" transform="translate(18.334319, 2.301541) rotate(53.000000) translate(-18.334319, -2.301541) "></path>
                <path d="M21.6356212,2.28400342 C22.4719048,2.72017177 23.0776859,3.07546119 23.4529643,3.34987169 C23.8282427,3.62428218 24.3330602,4.08108286 24.9674168,4.72027374 L23.7558548,6.24294269 L20.7269497,3.95893926 L21.6356212,2.28400342 Z" id="Path-4" fill="#FF0000"></path>
            </g>
            <g id="meas" transform="translate(49.051058, 15.555175)" stroke="#000000" stroke-linecap="round" stroke-width="0.52">
                <path d="M11.3716139,0 L11.2201686,2.13173653" id="Path"></path>
                <path d="M0.698881733,5.12539736 L0.652830653,5.53752865" id="Path" transform="translate(0.675856, 5.331463) rotate(-47.000000) translate(-0.675856, -5.331463) "></path>
                <path d="M2.75784077,1.96296731 L2.50114432,3.73779159" id="Path-Copy-2" transform="translate(2.629493, 2.850379) rotate(-37.000000) translate(-2.629493, -2.850379) "></path>
                <path d="M6.33545483,0.2970666 L6.12605504,2.14758481" id="Path-Copy" transform="translate(6.230755, 1.222326) rotate(-20.000000) translate(-6.230755, -1.222326) "></path>
                <path d="M4.2538155,2.06399261 L4.7721935,2.79532132" id="Path-2" transform="translate(4.513004, 2.429657) rotate(15.000000) translate(-4.513004, -2.429657) "></path>
                <path d="M1.39950151,3.88033179 L1.89245658,4.60106508" id="Path-2-Copy" transform="translate(1.645979, 4.240698) rotate(3.000000) translate(-1.645979, -4.240698) "></path>
                <path d="M8.14431176,1.01255256 L8.68981574,1.7421301" id="Path-2-Copy-2" transform="translate(8.417064, 1.377341) rotate(27.000000) translate(-8.417064, -1.377341) "></path>
                <path d="M8.08247439,0.956693346 L8.62797836,1.68627089" id="v" transform="translate(8.355226, 1.321482) rotate(27.000000) translate(-8.355226, -1.321482) "></path>
                <path d="M13.3600479,1.84258818 L13.9485777,2.53033933" id="v-copy" transform="translate(13.654313, 2.186464) rotate(53.000000) translate(-13.654313, -2.186464) "></path>
                <path d="M16.0988693,2.13173653 C16.7559493,2.53435346 17.2319201,2.86231293 17.5267818,3.11561492 C17.8216434,3.36891692 18.2182857,3.79057909 18.7167088,4.38060143 L17.7647672,5.786142 L15.3849131,3.67783115 L16.0988693,2.13173653 Z" id="Path-4" fill="#FF0000"></path>
            </g>
            <path d="M8.48676586,25.6049726 L28.8312676,28.3937662" id="pointer-right" stroke="#000000" stroke-width="0.52" transform="translate(18.659017, 26.999369) rotate(39.000000) translate(-18.659017, -26.999369) "></path>
            <path d="M46.8932892,25.2963426 L62.3811298,28.0722773" id="pointer-left" stroke="#000000" stroke-width="0.52" transform="translate(54.637209, 26.684310) rotate(39.000000) translate(-54.637209, -26.684310) "></path>
            <path d="M2.34341606,1.24208725 C48.9885547,3.8813801 72.7654599,5.30253778 73.6741314,5.50556031 C74.5828029,5.70858283 75.0371387,6.41916168 75.0371387,7.63729683 C76.4506277,30.6803536 77.0564088,42.3033932 76.8544818,42.5064157 C76.5515912,42.8109495 4.16075912,51.9469632 3.70642336,51.6424294 C3.25208759,51.3378956 0.980408759,4.13515825 0.980408759,2.7647562 C0.980408759,1.85115483 1.43474453,1.34359852 2.34341606,1.24208725 Z M9.76423358,11.4439692 L10.5214599,25.1479897 L39.1446131,24.3866553 L38.5388321,12.0530368 L9.76423358,11.4439692 Z M48.9885547,12.3575706 L49.5943358,24.0821215 L70.9481168,23.6253208 L70.3423358,12.8143713 L48.9885547,12.3575706 Z" id="Combined-Shape" stroke="#000000" stroke-width="0.914285714" fill="#FFFFFF"></path>
        </g>
    </g>
</svg>