<?xml version="1.0" encoding="UTF-8"?>
<svg width="300px" height="549px" viewBox="0 0 300 549" version="1.1" xmlns="http://www.w3.org/2000/svg" xmlns:xlink="http://www.w3.org/1999/xlink">
    <!-- Generator: Sketch 53.2 (72643) - https://sketchapp.com -->
    <title>nadel-eins-logo-record-banner</title>
    <desc>Created with Sketch.</desc>
    <g id="nadel-eins-logo-record-banner" stroke="none" stroke-width="1" fill="none" fill-rule="evenodd">
        <g id="nadel-eins-logo" transform="translate(185.000000, 30.000000)" stroke="#000000">
            <g>
                <g id="needle" transform="translate(43.761880, 32.024886)" stroke-width="1.35">
                    <g id="anthem" fill="#FFFFFF">
                        <path d="M0.135771816,148.253533 C-0.20002371,147.322 0.330111556,146.566843 1.32169855,146.566843 L26.0682081,146.566843 C27.0589729,146.566843 27.5754608,147.32599 27.2251819,148.253533 L22.667509,160.322307 L4.48627781,160.322307 L0.135771816,148.253533 Z" id="Rectangle"></path>
                        <path d="M2.03111038,135.923279 C1.69179156,134.990513 2.22112188,134.234358 3.21672225,134.234358 L24.6454242,134.234358 C25.6395383,134.234358 26.1943311,135.00581 25.8872923,135.949137 L22.4313891,146.566843 L5.90299712,146.566843 L2.03111038,135.923279 Z" id="Rectangle-2"></path>
                        <path d="M8.02807609,125.126335 C8.02807609,124.131403 8.84317176,123.324852 9.82394318,123.324852 L17.5659635,123.324852 C18.5577935,123.324852 19.3618306,124.127054 19.3618306,125.126335 L19.3618306,134.234358 L8.02807609,134.234358 L8.02807609,125.126335 Z" id="Rectangle-3"></path>
                        <path d="M8.97255563,76.3230651 C8.97255563,75.8231507 9.37838668,75.4178901 9.87816231,75.4178901 L17.5117443,75.4178901 C18.0118971,75.4178901 18.417351,75.8279479 18.417351,76.3230651 L18.417351,122.850525 L8.97255563,122.850525 L8.97255563,76.3230651 Z" id="Rectangle-4"></path>
                        <path d="M11.4610463,1.79392288 C11.4967349,0.80316663 12.3319493,0 13.322575,0 L14.4817661,0 C15.4741714,0 16.3026952,0.815016814 16.3315457,1.79392288 L18.364658,70.7780091 C18.3938577,71.7687653 17.6070511,72.5719319 16.6183441,72.5719319 L10.7106962,72.5719319 C9.71703387,72.5719319 8.94086961,71.7569151 8.97613134,70.7780091 L11.4610463,1.79392288 Z" id="Rectangle-4"></path>
                    </g>
                    <g id="stripes" transform="translate(8.500316, 8.063548)">
                        <path d="M0.708359655,105.063287 L9.68091528,105.063287" id="Line"></path>
                        <path d="M0.236119885,96.0510864 L10.1531551,96.0510864" id="Line-2"></path>
                        <path d="M0.708359655,86.090233 L10.1531551,86.090233" id="Line-3"></path>
                        <path d="M0.708359655,77.0780323 L10.1531551,77.0780323" id="Line-4"></path>
                        <path d="M0.708359655,57.1563255 L9.68091528,57.1563255" id="Line-5"></path>
                        <path d="M1.18059942,48.6184511 L9.20867551,48.6184511" id="Line-6"></path>
                        <path d="M1.65283919,40.0805768 L9.20867551,40.0805768" id="Line-7"></path>
                        <path d="M1.65283919,29.1710707 L8.73643574,29.1710707" id="Line-8"></path>
                        <path d="M2.12507896,19.6845436 L8.26419597,19.6845436" id="Line-9"></path>
                        <path d="M2.59731873,10.1980166 L8.26419597,10.1980166" id="Line-10"></path>
                        <path d="M2.59731873,0.711489529 L8.26419597,0.711489529" id="Line-11"></path>
                    </g>
                </g>
                <g id="bottom" transform="translate(38.567242, 228.870323)" stroke-width="1.35">
                    <g id="outline" transform="translate(0.000000, 0.474326)" fill="#FFFFFF">
                        <path d="M9.4447954,14.2297906 L28.3343862,14.2297906 L33.0567839,215.145896 L37.7791816,238.111829 L0,238.111829 C0,238.111829 4.2447622,226.4679 4.7223977,215.145896 C8.9671599,114.52688 9.4447954,14.2297906 9.4447954,14.2297906 Z" id="Rectangle-6"></path>
                        <rect id="Rectangle-7" x="7.55583632" y="11.3838325" width="22.667509" height="2.84595812" rx="1.42297906"></rect>
                        <rect id="Rectangle-7-Copy" x="8.50031586" y="6.64056894" width="20.7785499" height="2.37163176" rx="1.18581588"></rect>
                        <rect id="Rectangle-8" x="10.3892749" y="0" width="17.0006317" height="6.64056894"></rect>
                    </g>
                    <g id="stripes" transform="translate(9.917035, 0.000000)">
                        <path d="M8.73643574,14.9412801 L8.73643574,238.348992" id="Path"></path>
                        <polyline id="Path" transform="translate(15.882869, 126.449561) scale(-1, 1) translate(-15.882869, -126.449561) " points="17.5985444 14.7041169 17.5985444 217.322969 14.1671931 238.195005"></polyline>
                        <polyline id="Path" points="3.54179827 14.9412801 3.54179827 217.560132 0.110446996 238.432168"></polyline>
                        <path d="M13.9310732,0.711489529 L13.9310732,6.87773211" id="Path"></path>
                        <path d="M4.01403804,0.237163176 L4.01403804,7.35205846" id="Path"></path>
                        <path d="M8.73643574,0.237163176 L8.73643574,7.35205846" id="Path"></path>
                    </g>
                </g>
                <g id="smiley" transform="translate(37.150523, 189.975562)">
                    <ellipse id="face" stroke-width="1.35" fill="#FFEE00" cx="20.54243" cy="20.6331963" rx="20.54243" ry="20.6331963"></ellipse>
                    <ellipse id="eye-left" stroke-width="0.5" fill="#000000" cx="14.6394329" cy="13.7554642" rx="1.88895908" ry="4.26893717"></ellipse>
                    <ellipse id="eye-right" stroke-width="0.5" fill="#000000" cx="25.9731873" cy="13.7554642" rx="1.88895908" ry="4.26893717"></ellipse>
                    <path d="M6.61135678,26.5622757 C6.61135678,26.5622757 20.3063101,41.2663927 34.4735032,26.5622757" id="smile" stroke-width="1.35"></path>
                    <path d="M32.5804963,26.5773572 C32.5794793,26.3045316 32.804159,26.0842003 33.0736316,26.0852011 L35.8698568,26.0955862 C36.1432249,26.0966015 36.3656495,26.3163151 36.366675,26.5914189 L36.3665101,26.5471943 C36.3675271,26.8200199 36.1428474,27.0403512 35.8733748,27.0393504 L33.0771496,27.0289653 C32.8037815,27.02795 32.5813569,26.8082364 32.5803314,26.5331326 L32.5804963,26.5773572 Z" id="smileBarRight" stroke-width="0.5" fill="#000000" transform="translate(34.473503, 26.562276) rotate(45.000000) translate(-34.473503, -26.562276) "></path>
                    <path d="M4.71834985,26.5773572 C4.71733288,26.3045316 4.9420126,26.0842003 5.21148521,26.0852011 L8.00771042,26.0955862 C8.28107852,26.0966015 8.50350309,26.3163151 8.50452855,26.5914189 L8.5043637,26.5471943 C8.50538067,26.8200199 8.28070096,27.0403512 8.01122834,27.0393504 L5.21500314,27.0289653 C4.94163503,27.02795 4.71921047,26.8082364 4.71818501,26.5331326 L4.71834985,26.5773572 Z" id="smileBarleft" stroke-width="0.5" fill="#000000" transform="translate(6.611357, 26.562276) scale(-1, 1) rotate(45.000000) translate(-6.611357, -26.562276) "></path>
                </g>
            </g>
        </g>
        <g id="geraete1-2" transform="translate(12.000000, 234.000000)">
            <g id="geraete1">
                <g>
                    <rect id="box" stroke="#000000" stroke-width="1.8" fill="#FFFFFF" x="0.9" y="81.3" width="159.6" height="160.8"></rect>
                    <g id="bigger-buttons" transform="translate(7.200000, 84.008886)" stroke="#000000">
                        <ellipse id="Oval" stroke-width="0.8064" cx="20.0490498" cy="20.049" rx="5.64904977" ry="5.649"></ellipse>
                        <ellipse id="Oval" stroke-width="1.2" cx="20.1721775" cy="20.172" rx="14.1721775" ry="14.172"></ellipse>
                        <ellipse id="Oval" stroke-width="0.6" cx="20.1532936" cy="20.3770297" rx="19.8212273" ry="19.821"></ellipse>
                        <ellipse id="Oval" stroke-width="0.8064" cx="29.0728459" cy="88.2284665" rx="8.91955227" ry="8.905778"></ellipse>
                        <ellipse id="Oval" stroke-width="0.8064" cx="102.213175" cy="79.3226885" rx="4.95530682" ry="4.94765444"></ellipse>
                        <ellipse id="Oval" stroke-width="1.2" cx="121.935296" cy="86.1504516" rx="8.82044613" ry="8.80682491"></ellipse>
                        <ellipse id="Oval" stroke-width="0.8064" cx="136.305685" cy="105.64421" rx="2.97318409" ry="2.96859267"></ellipse>
                        <ellipse id="Oval" stroke-width="0.8064" cx="145.621662" cy="93.7698395" rx="2.97318409" ry="2.96859267"></ellipse>
                        <ellipse id="Oval" stroke-width="0.8064" cx="4.89094863" cy="92.9782148" rx="3.56782091" ry="3.5623112"></ellipse>
                    </g>
                    <g id="small-buttons" transform="translate(7.037977, 163.435339)">
                        <path d="M4.57726193,43.2646609 L4.57726193,39.2795652 L4.57726193,43.2646609 L9.37726193,43.2646609 L9.37726193,39.2795652 L9.37726193,43.2646609 L14.1772619,43.2646609 L14.1772619,39.2795652 L14.1772619,43.2646609 L18.9772619,43.2646609 L18.9772619,39.2795652 L18.9772619,43.2646609 L23.7772619,43.2646609 L23.7772619,39.2795652 L23.7772619,43.2646609 L28.5772619,43.2646609 L28.5772619,39.2795652 L28.5772619,43.2646609 L33.3772619,43.2646609 L33.3772619,39.2795652 L33.3772619,43.2646609 L38.1772619,43.2646609 L38.1772619,39.2795652 L38.1772619,43.2646609 L42.9772619,43.2646609 L42.9772619,39.2795652 L42.9772619,43.2646609 L47.7772619,43.2646609 L47.7772619,39.2795652 L47.7772619,43.2646609 L52.5772619,43.2646609 L52.5772619,39.2795652 L52.5772619,43.2646609 L57.3772619,43.2646609 L57.3772619,39.2795652 L57.3772619,43.2646609 L61.5772619,43.2646609 L61.5772619,39.2795652 L61.5772619,43.2646609 L66.3772619,43.2646609 L66.3772619,39.2795652 L66.3772619,43.2646609 L71.1772619,43.2646609 L71.1772619,39.2795652 L71.1772619,43.2646609 L75.9772619,43.2646609 L75.9772619,39.2795652 L75.9772619,43.2646609 L80.7772619,43.2646609 L80.7772619,39.2795652 L80.7772619,43.2646609 L85.5772619,43.2646609 L85.5772619,39.2795652 L85.5772619,43.2646609 L90.3772619,43.2646609 L90.3772619,39.2795652 L90.3772619,43.2646609 L95.1772619,43.2646609 L95.1772619,39.2795652 L95.1772619,43.2646609 L99.9772619,43.2646609 L99.9772619,39.2795652 L99.9772619,43.2646609 L104.777262,43.2646609 L104.777262,39.2795652 L104.777262,43.2646609 L109.577262,43.2646609 L109.577262,39.2795652 L109.577262,43.2646609 L114.377262,43.2646609 L114.377262,39.2795652 L114.377262,43.2646609 L114.466146,43.2646609 L114.377262,43.2646609 L114.377262,46.8646609 L114.466146,46.8646609 L114.377262,46.8646609 L114.377262,51.0646609 L114.466146,51.0646609 L114.377262,51.0646609 L114.377262,55.2646609 L114.466146,55.2646609 L114.377262,55.2646609 L114.377262,59.4646609 L114.466146,59.4646609 L114.377262,59.4646609 L114.377262,63.6646609 L114.466146,63.6646609 L114.377262,63.6646609 L114.377262,67.5646609 L114.466146,67.5646609 L114.377262,67.5646609 L114.377262,71.7361784 L114.377262,67.5646609 L109.577262,67.5646609 L109.577262,71.7361784 L109.577262,67.5646609 L104.777262,67.5646609 L104.777262,71.7361784 L104.777262,67.5646609 L99.9772619,67.5646609 L99.9772619,71.7361784 L99.9772619,67.5646609 L95.1772619,67.5646609 L95.1772619,71.7361784 L95.1772619,67.5646609 L90.3772619,67.5646609 L90.3772619,71.7361784 L90.3772619,67.5646609 L85.5772619,67.5646609 L85.5772619,71.7361784 L85.5772619,67.5646609 L80.7772619,67.5646609 L80.7772619,71.7361784 L80.7772619,67.5646609 L75.9772619,67.5646609 L75.9772619,71.7361784 L75.9772619,67.5646609 L71.1772619,67.5646609 L71.1772619,71.7361784 L71.1772619,67.5646609 L66.3772619,67.5646609 L66.3772619,71.7361784 L66.3772619,67.5646609 L61.5772619,67.5646609 L61.5772619,71.7361784 L61.5772619,67.5646609 L57.3772619,67.5646609 L57.3772619,71.7361784 L57.3772619,67.5646609 L52.5772619,67.5646609 L52.5772619,71.7361784 L52.5772619,67.5646609 L47.7772619,67.5646609 L47.7772619,71.7361784 L47.7772619,67.5646609 L42.9772619,67.5646609 L42.9772619,71.7361784 L42.9772619,67.5646609 L38.1772619,67.5646609 L38.1772619,71.7361784 L38.1772619,67.5646609 L33.3772619,67.5646609 L33.3772619,71.7361784 L33.3772619,67.5646609 L28.5772619,67.5646609 L28.5772619,71.7361784 L28.5772619,67.5646609 L23.7772619,67.5646609 L23.7772619,71.7361784 L23.7772619,67.5646609 L18.9772619,67.5646609 L18.9772619,71.7361784 L18.9772619,67.5646609 L14.1772619,67.5646609 L14.1772619,71.7361784 L14.1772619,67.5646609 L9.37726193,67.5646609 L9.37726193,71.7361784 L9.37726193,67.5646609 L4.57726193,67.5646609 L4.57726193,71.7361784 L4.57726193,67.5646609 L0.49408911,67.5646609 L4.57726193,67.5646609 L4.57726193,63.6646609 L0.49408911,63.6646609 L4.57726193,63.6646609 L4.57726193,59.4646609 L0.49408911,59.4646609 L4.57726193,59.4646609 L4.57726193,55.2646609 L0.49408911,55.2646609 L4.57726193,55.2646609 L4.57726193,51.0646609 L0.49408911,51.0646609 L4.57726193,51.0646609 L4.57726193,46.8646609 L0.49408911,46.8646609 L4.57726193,46.8646609 L4.57726193,43.2646609 L0.49408911,43.2646609 L4.57726193,43.2646609 Z M114.377262,43.2646609 L109.577262,43.2646609 L109.577262,46.8646609 L104.777262,46.8646609 L104.777262,51.0646609 L99.9772619,51.0646609 L99.9772619,55.2646609 L95.1772619,55.2646609 L95.1772619,59.4646609 L90.3772619,59.4646609 L90.3772619,63.6646609 L85.5772619,63.6646609 L85.5772619,67.5646609 L80.7772619,67.5646609 L80.7772619,63.6646609 L85.5772619,63.6646609 L85.5772619,59.4646609 L90.3772619,59.4646609 L90.3772619,55.2646609 L95.1772619,55.2646609 L95.1772619,51.0646609 L99.9772619,51.0646609 L99.9772619,46.8646609 L104.777262,46.8646609 L104.777262,43.2646609 L99.9772619,43.2646609 L99.9772619,46.8646609 L95.1772619,46.8646609 L95.1772619,51.0646609 L90.3772619,51.0646609 L90.3772619,55.2646609 L85.5772619,55.2646609 L85.5772619,59.4646609 L80.7772619,59.4646609 L80.7772619,63.6646609 L75.9772619,63.6646609 L75.9772619,67.5646609 L71.1772619,67.5646609 L71.1772619,63.6646609 L75.9772619,63.6646609 L75.9772619,59.4646609 L80.7772619,59.4646609 L80.7772619,55.2646609 L85.5772619,55.2646609 L85.5772619,51.0646609 L90.3772619,51.0646609 L90.3772619,46.8646609 L95.1772619,46.8646609 L95.1772619,43.2646609 L90.3772619,43.2646609 L90.3772619,46.8646609 L85.5772619,46.8646609 L85.5772619,51.0646609 L80.7772619,51.0646609 L80.7772619,55.2646609 L75.9772619,55.2646609 L75.9772619,59.4646609 L71.1772619,59.4646609 L71.1772619,63.6646609 L66.3772619,63.6646609 L66.3772619,67.5646609 L61.5772619,67.5646609 L61.5772619,63.6646609 L66.3772619,63.6646609 L66.3772619,59.4646609 L71.1772619,59.4646609 L71.1772619,55.2646609 L75.9772619,55.2646609 L75.9772619,51.0646609 L80.7772619,51.0646609 L80.7772619,46.8646609 L85.5772619,46.8646609 L85.5772619,43.2646609 L80.7772619,43.2646609 L80.7772619,46.8646609 L75.9772619,46.8646609 L75.9772619,51.0646609 L71.1772619,51.0646609 L71.1772619,55.2646609 L66.3772619,55.2646609 L66.3772619,59.4646609 L61.5772619,59.4646609 L61.5772619,63.6646609 L57.3772619,63.6646609 L57.3772619,67.5646609 L52.5772619,67.5646609 L52.5772619,63.6646609 L57.3772619,63.6646609 L57.3772619,59.4646609 L61.5772619,59.4646609 L61.5772619,55.2646609 L66.3772619,55.2646609 L66.3772619,51.0646609 L71.1772619,51.0646609 L71.1772619,46.8646609 L75.9772619,46.8646609 L75.9772619,43.2646609 L71.1772619,43.2646609 L71.1772619,46.8646609 L66.3772619,46.8646609 L66.3772619,51.0646609 L61.5772619,51.0646609 L61.5772619,55.2646609 L57.3772619,55.2646609 L57.3772619,59.4646609 L52.5772619,59.4646609 L52.5772619,63.6646609 L47.7772619,63.6646609 L47.7772619,67.5646609 L42.9772619,67.5646609 L42.9772619,63.6646609 L47.7772619,63.6646609 L47.7772619,59.4646609 L52.5772619,59.4646609 L52.5772619,55.2646609 L57.3772619,55.2646609 L57.3772619,51.0646609 L61.5772619,51.0646609 L61.5772619,46.8646609 L66.3772619,46.8646609 L66.3772619,43.2646609 L61.5772619,43.2646609 L61.5772619,46.8646609 L57.3772619,46.8646609 L57.3772619,51.0646609 L52.5772619,51.0646609 L52.5772619,55.2646609 L47.7772619,55.2646609 L47.7772619,59.4646609 L42.9772619,59.4646609 L42.9772619,63.6646609 L38.1772619,63.6646609 L38.1772619,67.5646609 L33.3772619,67.5646609 L33.3772619,63.6646609 L38.1772619,63.6646609 L38.1772619,59.4646609 L42.9772619,59.4646609 L42.9772619,55.2646609 L47.7772619,55.2646609 L47.7772619,51.0646609 L52.5772619,51.0646609 L52.5772619,46.8646609 L57.3772619,46.8646609 L57.3772619,43.2646609 L52.5772619,43.2646609 L52.5772619,46.8646609 L47.7772619,46.8646609 L47.7772619,51.0646609 L42.9772619,51.0646609 L42.9772619,55.2646609 L38.1772619,55.2646609 L38.1772619,59.4646609 L33.3772619,59.4646609 L33.3772619,63.6646609 L28.5772619,63.6646609 L28.5772619,67.5646609 L23.7772619,67.5646609 L23.7772619,63.6646609 L28.5772619,63.6646609 L28.5772619,59.4646609 L33.3772619,59.4646609 L33.3772619,55.2646609 L38.1772619,55.2646609 L38.1772619,51.0646609 L42.9772619,51.0646609 L42.9772619,46.8646609 L47.7772619,46.8646609 L47.7772619,43.2646609 L42.9772619,43.2646609 L42.9772619,46.8646609 L38.1772619,46.8646609 L38.1772619,51.0646609 L33.3772619,51.0646609 L33.3772619,55.2646609 L28.5772619,55.2646609 L28.5772619,59.4646609 L23.7772619,59.4646609 L23.7772619,63.6646609 L18.9772619,63.6646609 L18.9772619,67.5646609 L14.1772619,67.5646609 L14.1772619,63.6646609 L18.9772619,63.6646609 L18.9772619,59.4646609 L23.7772619,59.4646609 L23.7772619,55.2646609 L28.5772619,55.2646609 L28.5772619,51.0646609 L33.3772619,51.0646609 L33.3772619,46.8646609 L38.1772619,46.8646609 L38.1772619,43.2646609 L33.3772619,43.2646609 L33.3772619,46.8646609 L28.5772619,46.8646609 L28.5772619,51.0646609 L23.7772619,51.0646609 L23.7772619,55.2646609 L18.9772619,55.2646609 L18.9772619,59.4646609 L14.1772619,59.4646609 L14.1772619,63.6646609 L9.37726193,63.6646609 L9.37726193,67.5646609 L4.57726193,67.5646609 L4.57726193,63.6646609 L9.37726193,63.6646609 L9.37726193,59.4646609 L14.1772619,59.4646609 L14.1772619,55.2646609 L18.9772619,55.2646609 L18.9772619,51.0646609 L23.7772619,51.0646609 L23.7772619,46.8646609 L28.5772619,46.8646609 L28.5772619,43.2646609 L23.7772619,43.2646609 L23.7772619,46.8646609 L18.9772619,46.8646609 L18.9772619,51.0646609 L14.1772619,51.0646609 L14.1772619,55.2646609 L9.37726193,55.2646609 L9.37726193,59.4646609 L4.57726193,59.4646609 L4.57726193,63.6646609 L9.37726193,63.6646609 L9.37726193,59.4646609 L14.1772619,59.4646609 L14.1772619,55.2646609 L18.9772619,55.2646609 L18.9772619,51.0646609 L23.7772619,51.0646609 L23.7772619,46.8646609 L28.5772619,46.8646609 L28.5772619,43.2646609 L33.3772619,43.2646609 L33.3772619,46.8646609 L28.5772619,46.8646609 L28.5772619,51.0646609 L23.7772619,51.0646609 L23.7772619,55.2646609 L18.9772619,55.2646609 L18.9772619,59.4646609 L14.1772619,59.4646609 L14.1772619,63.6646609 L9.37726193,63.6646609 L9.37726193,67.5646609 L14.1772619,67.5646609 L14.1772619,63.6646609 L18.9772619,63.6646609 L18.9772619,59.4646609 L23.7772619,59.4646609 L23.7772619,55.2646609 L28.5772619,55.2646609 L28.5772619,51.0646609 L33.3772619,51.0646609 L33.3772619,46.8646609 L38.1772619,46.8646609 L38.1772619,43.2646609 L42.9772619,43.2646609 L42.9772619,46.8646609 L38.1772619,46.8646609 L38.1772619,51.0646609 L33.3772619,51.0646609 L33.3772619,55.2646609 L28.5772619,55.2646609 L28.5772619,59.4646609 L23.7772619,59.4646609 L23.7772619,63.6646609 L18.9772619,63.6646609 L18.9772619,67.5646609 L23.7772619,67.5646609 L23.7772619,63.6646609 L28.5772619,63.6646609 L28.5772619,59.4646609 L33.3772619,59.4646609 L33.3772619,55.2646609 L38.1772619,55.2646609 L38.1772619,51.0646609 L42.9772619,51.0646609 L42.9772619,46.8646609 L47.7772619,46.8646609 L47.7772619,43.2646609 L52.5772619,43.2646609 L52.5772619,46.8646609 L47.7772619,46.8646609 L47.7772619,51.0646609 L42.9772619,51.0646609 L42.9772619,55.2646609 L38.1772619,55.2646609 L38.1772619,59.4646609 L33.3772619,59.4646609 L33.3772619,63.6646609 L28.5772619,63.6646609 L28.5772619,67.5646609 L33.3772619,67.5646609 L33.3772619,63.6646609 L38.1772619,63.6646609 L38.1772619,59.4646609 L42.9772619,59.4646609 L42.9772619,55.2646609 L47.7772619,55.2646609 L47.7772619,51.0646609 L52.5772619,51.0646609 L52.5772619,46.8646609 L57.3772619,46.8646609 L57.3772619,43.2646609 L61.5772619,43.2646609 L61.5772619,46.8646609 L57.3772619,46.8646609 L57.3772619,51.0646609 L52.5772619,51.0646609 L52.5772619,55.2646609 L47.7772619,55.2646609 L47.7772619,59.4646609 L42.9772619,59.4646609 L42.9772619,63.6646609 L38.1772619,63.6646609 L38.1772619,67.5646609 L42.9772619,67.5646609 L42.9772619,63.6646609 L47.7772619,63.6646609 L47.7772619,59.4646609 L52.5772619,59.4646609 L52.5772619,55.2646609 L57.3772619,55.2646609 L57.3772619,51.0646609 L61.5772619,51.0646609 L61.5772619,46.8646609 L66.3772619,46.8646609 L66.3772619,43.2646609 L71.1772619,43.2646609 L71.1772619,46.8646609 L66.3772619,46.8646609 L66.3772619,51.0646609 L61.5772619,51.0646609 L61.5772619,55.2646609 L57.3772619,55.2646609 L57.3772619,59.4646609 L52.5772619,59.4646609 L52.5772619,63.6646609 L47.7772619,63.6646609 L47.7772619,67.5646609 L52.5772619,67.5646609 L52.5772619,63.6646609 L57.3772619,63.6646609 L57.3772619,59.4646609 L61.5772619,59.4646609 L61.5772619,55.2646609 L66.3772619,55.2646609 L66.3772619,51.0646609 L71.1772619,51.0646609 L71.1772619,46.8646609 L75.9772619,46.8646609 L75.9772619,43.2646609 L80.7772619,43.2646609 L80.7772619,46.8646609 L75.9772619,46.8646609 L75.9772619,51.0646609 L71.1772619,51.0646609 L71.1772619,55.2646609 L66.3772619,55.2646609 L66.3772619,59.4646609 L61.5772619,59.4646609 L61.5772619,63.6646609 L57.3772619,63.6646609 L57.3772619,67.5646609 L61.5772619,67.5646609 L61.5772619,63.6646609 L66.3772619,63.6646609 L66.3772619,59.4646609 L71.1772619,59.4646609 L71.1772619,55.2646609 L75.9772619,55.2646609 L75.9772619,51.0646609 L80.7772619,51.0646609 L80.7772619,46.8646609 L85.5772619,46.8646609 L85.5772619,43.2646609 L90.3772619,43.2646609 L90.3772619,46.8646609 L85.5772619,46.8646609 L85.5772619,51.0646609 L80.7772619,51.0646609 L80.7772619,55.2646609 L75.9772619,55.2646609 L75.9772619,59.4646609 L71.1772619,59.4646609 L71.1772619,63.6646609 L66.3772619,63.6646609 L66.3772619,67.5646609 L71.1772619,67.5646609 L71.1772619,63.6646609 L75.9772619,63.6646609 L75.9772619,59.4646609 L80.7772619,59.4646609 L80.7772619,55.2646609 L85.5772619,55.2646609 L85.5772619,51.0646609 L90.3772619,51.0646609 L90.3772619,46.8646609 L95.1772619,46.8646609 L95.1772619,43.2646609 L99.9772619,43.2646609 L99.9772619,46.8646609 L95.1772619,46.8646609 L95.1772619,51.0646609 L90.3772619,51.0646609 L90.3772619,55.2646609 L85.5772619,55.2646609 L85.5772619,59.4646609 L80.7772619,59.4646609 L80.7772619,63.6646609 L75.9772619,63.6646609 L75.9772619,67.5646609 L80.7772619,67.5646609 L80.7772619,63.6646609 L85.5772619,63.6646609 L85.5772619,59.4646609 L90.3772619,59.4646609 L90.3772619,55.2646609 L95.1772619,55.2646609 L95.1772619,51.0646609 L99.9772619,51.0646609 L99.9772619,46.8646609 L104.777262,46.8646609 L104.777262,43.2646609 L109.577262,43.2646609 L109.577262,46.8646609 L104.777262,46.8646609 L104.777262,51.0646609 L99.9772619,51.0646609 L99.9772619,55.2646609 L95.1772619,55.2646609 L95.1772619,59.4646609 L90.3772619,59.4646609 L90.3772619,63.6646609 L85.5772619,63.6646609 L85.5772619,67.5646609 L90.3772619,67.5646609 L90.3772619,63.6646609 L95.1772619,63.6646609 L95.1772619,59.4646609 L99.9772619,59.4646609 L99.9772619,55.2646609 L104.777262,55.2646609 L104.777262,51.0646609 L109.577262,51.0646609 L109.577262,46.8646609 L114.377262,46.8646609 L114.377262,43.2646609 Z M23.7772619,43.2646609 L18.9772619,43.2646609 L18.9772619,46.8646609 L14.1772619,46.8646609 L14.1772619,51.0646609 L9.37726193,51.0646609 L9.37726193,55.2646609 L4.57726193,55.2646609 L4.57726193,51.0646609 L9.37726193,51.0646609 L9.37726193,46.8646609 L14.1772619,46.8646609 L14.1772619,43.2646609 L18.9772619,43.2646609 L18.9772619,46.8646609 L14.1772619,46.8646609 L14.1772619,51.0646609 L9.37726193,51.0646609 L9.37726193,55.2646609 L4.57726193,55.2646609 L4.57726193,59.4646609 L9.37726193,59.4646609 L9.37726193,55.2646609 L14.1772619,55.2646609 L14.1772619,51.0646609 L18.9772619,51.0646609 L18.9772619,46.8646609 L23.7772619,46.8646609 L23.7772619,43.2646609 Z M14.1772619,43.2646609 L9.37726193,43.2646609 L9.37726193,46.8646609 L4.57726193,46.8646609 L4.57726193,43.2646609 L9.37726193,43.2646609 L9.37726193,46.8646609 L4.57726193,46.8646609 L4.57726193,51.0646609 L9.37726193,51.0646609 L9.37726193,46.8646609 L14.1772619,46.8646609 L14.1772619,43.2646609 Z M114.377262,46.8646609 L109.577262,46.8646609 L109.577262,51.0646609 L104.777262,51.0646609 L104.777262,55.2646609 L99.9772619,55.2646609 L99.9772619,59.4646609 L95.1772619,59.4646609 L95.1772619,63.6646609 L90.3772619,63.6646609 L90.3772619,67.5646609 L95.1772619,67.5646609 L95.1772619,63.6646609 L99.9772619,63.6646609 L99.9772619,59.4646609 L104.777262,59.4646609 L104.777262,55.2646609 L109.577262,55.2646609 L109.577262,51.0646609 L114.377262,51.0646609 L114.377262,55.2646609 L109.577262,55.2646609 L109.577262,59.4646609 L104.777262,59.4646609 L104.777262,63.6646609 L99.9772619,63.6646609 L99.9772619,67.5646609 L95.1772619,67.5646609 L95.1772619,63.6646609 L99.9772619,63.6646609 L99.9772619,59.4646609 L104.777262,59.4646609 L104.777262,55.2646609 L109.577262,55.2646609 L109.577262,51.0646609 L114.377262,51.0646609 L114.377262,46.8646609 Z M114.377262,55.2646609 L109.577262,55.2646609 L109.577262,59.4646609 L104.777262,59.4646609 L104.777262,63.6646609 L99.9772619,63.6646609 L99.9772619,67.5646609 L104.777262,67.5646609 L104.777262,63.6646609 L109.577262,63.6646609 L109.577262,59.4646609 L114.377262,59.4646609 L114.377262,63.6646609 L109.577262,63.6646609 L109.577262,67.5646609 L104.777262,67.5646609 L104.777262,63.6646609 L109.577262,63.6646609 L109.577262,59.4646609 L114.377262,59.4646609 L114.377262,55.2646609 Z M114.377262,63.6646609 L114.377262,67.5646609 L109.577262,67.5646609 L109.577262,63.6646609 L114.377262,63.6646609 Z" id="Combined-Shape" stroke="#979797" stroke-width="0.6" stroke-linecap="square"></path>
                        <path d="M11.3164792,1.63781023 L10.1272056,0.549326252 C9.01721684,1.06388231 7.90722811,2.17215691 6.81706061,3.8345688 C5.66380295,5.65757612 4.90118751,7.69930744 4.57726193,9.83112599 L6.65849079,10.1675665 C6.93037984,8.38981396 7.49993271,6.67041344 8.34329511,5.08137772 C9.10970642,3.75780113 10.1182462,2.58970163 11.3164792,1.63781023 L11.3164792,1.63781023 Z M0.295876838,39.2795652 L114.466146,39.2795652 L114.466146,71.7361784 L0.295876838,71.7361784 L0.295876838,39.2795652 Z" id="Shape" stroke="#000000" stroke-width="0.8064"></path>
                        <rect id="Rectangle" stroke="#000000" stroke-width="0.8064" x="138.6" y="57" width="6.14458045" height="2.17696796" rx="0.2688"></rect>
                        <path d="M2.6688,34.2 L8.27578045,34.2 C8.42423459,34.2 8.54458045,34.3203459 8.54458045,34.4688 L8.54458045,36.108168 C8.54458045,36.2566221 8.42423459,36.376968 8.27578045,36.376968 L2.6688,36.376968 C2.52034586,36.376968 2.4,36.2566221 2.4,36.108168 L2.4,34.4688 C2.4,34.3203459 2.52034586,34.2 2.6688,34.2 Z M12.8688,34.2 L18.4757805,34.2 C18.6242346,34.2 18.7445805,34.3203459 18.7445805,34.4688 L18.7445805,36.108168 C18.7445805,36.2566221 18.6242346,36.376968 18.4757805,36.376968 L12.8688,36.376968 C12.7203459,36.376968 12.6,36.2566221 12.6,36.108168 L12.6,34.4688 C12.6,34.3203459 12.7203459,34.2 12.8688,34.2 Z M23.0688,34.2 L28.6757805,34.2 C28.8242346,34.2 28.9445805,34.3203459 28.9445805,34.4688 L28.9445805,36.108168 C28.9445805,36.2566221 28.8242346,36.376968 28.6757805,36.376968 L23.0688,36.376968 C22.9203459,36.376968 22.8,36.2566221 22.8,36.108168 L22.8,34.4688 C22.8,34.3203459 22.9203459,34.2 23.0688,34.2 Z M33.2688,34.2 L38.8757805,34.2 C39.0242346,34.2 39.1445805,34.3203459 39.1445805,34.4688 L39.1445805,36.108168 C39.1445805,36.2566221 39.0242346,36.376968 38.8757805,36.376968 L33.2688,36.376968 C33.1203459,36.376968 33,36.2566221 33,36.108168 L33,34.4688 C33,34.3203459 33.1203459,34.2 33.2688,34.2 Z M43.4688,34.2 L49.0757805,34.2 C49.2242346,34.2 49.3445805,34.3203459 49.3445805,34.4688 L49.3445805,36.108168 C49.3445805,36.2566221 49.2242346,36.376968 49.0757805,36.376968 L43.4688,36.376968 C43.3203459,36.376968 43.2,36.2566221 43.2,36.108168 L43.2,34.4688 C43.2,34.3203459 43.3203459,34.2 43.4688,34.2 Z M53.6688,34.2 L59.2757805,34.2 C59.4242346,34.2 59.5445805,34.3203459 59.5445805,34.4688 L59.5445805,36.108168 C59.5445805,36.2566221 59.4242346,36.376968 59.2757805,36.376968 L53.6688,36.376968 C53.5203459,36.376968 53.4,36.2566221 53.4,36.108168 L53.4,34.4688 C53.4,34.3203459 53.5203459,34.2 53.6688,34.2 Z M63.8688,34.2 L69.4757805,34.2 C69.6242346,34.2 69.7445805,34.3203459 69.7445805,34.4688 L69.7445805,36.108168 C69.7445805,36.2566221 69.6242346,36.376968 69.4757805,36.376968 L63.8688,36.376968 C63.7203459,36.376968 63.6,36.2566221 63.6,36.108168 L63.6,34.4688 C63.6,34.3203459 63.7203459,34.2 63.8688,34.2 Z M74.0688,34.2 L79.6757805,34.2 C79.8242346,34.2 79.9445805,34.3203459 79.9445805,34.4688 L79.9445805,36.108168 C79.9445805,36.2566221 79.8242346,36.376968 79.6757805,36.376968 L74.0688,36.376968 C73.9203459,36.376968 73.8,36.2566221 73.8,36.108168 L73.8,34.4688 C73.8,34.3203459 73.9203459,34.2 74.0688,34.2 Z M84.2688,34.2 L89.8757805,34.2 C90.0242346,34.2 90.1445805,34.3203459 90.1445805,34.4688 L90.1445805,36.108168 C90.1445805,36.2566221 90.0242346,36.376968 89.8757805,36.376968 L84.2688,36.376968 C84.1203459,36.376968 84,36.2566221 84,36.108168 L84,34.4688 C84,34.3203459 84.1203459,34.2 84.2688,34.2 Z M94.4688,34.2 L100.07578,34.2 C100.224235,34.2 100.34458,34.3203459 100.34458,34.4688 L100.34458,36.108168 C100.34458,36.2566221 100.224235,36.376968 100.07578,36.376968 L94.4688,36.376968 C94.3203459,36.376968 94.2,36.2566221 94.2,36.108168 L94.2,34.4688 C94.2,34.3203459 94.3203459,34.2 94.4688,34.2 Z M104.6688,34.2 L110.27578,34.2 C110.424235,34.2 110.54458,34.3203459 110.54458,34.4688 L110.54458,36.108168 C110.54458,36.2566221 110.424235,36.376968 110.27578,36.376968 L104.6688,36.376968 C104.520346,36.376968 104.4,36.2566221 104.4,36.108168 L104.4,34.4688 C104.4,34.3203459 104.520346,34.2 104.6688,34.2 Z" id="Combined-Shape" stroke="#000000" stroke-width="0.6"></path>
                        <rect id="Rectangle" stroke="#000000" stroke-width="0.8064" x="138.449831" y="62.2366819" width="6.14458045" height="2.17696796" rx="0.2688"></rect>
                        <rect id="Rectangle" stroke="#000000" stroke-width="0.8064" x="129.926703" y="62.2366819" width="6.14458045" height="2.17696796" rx="0.2688"></rect>
                        <rect id="Rectangle" stroke="#000000" stroke-width="0.8064" x="121.8" y="62.2366819" width="6.14458045" height="2.17696796" rx="0.2688"></rect>
                        <rect id="Rectangle" stroke="#000000" stroke-width="0.8064" x="129.926703" y="57.0911212" width="6.14458045" height="2.17696796" rx="0.2688"></rect>
                        <rect id="Rectangle" stroke="#000000" stroke-width="0.8064" x="121.8" y="57.0911212" width="6.14458045" height="2.17696796" rx="0.2688"></rect>
                        <rect id="Rectangle" stroke="#000000" stroke-width="0.8064" x="138.449831" y="51.9455606" width="6.14458045" height="2.17696796" rx="0.2688"></rect>
                        <rect id="Rectangle" stroke="#000000" stroke-width="0.8064" x="129.926703" y="51.9455606" width="6.14458045" height="2.17696796" rx="0.2688"></rect>
                        <rect id="Rectangle" stroke="#000000" stroke-width="0.8064" x="121.8" y="51.9455606" width="6.14458045" height="2.17696796" rx="0.2688"></rect>
                        <rect id="Rectangle" stroke="#000000" stroke-width="0.8064" x="138.449831" y="46.8" width="6.14458045" height="2.17696796" rx="0.2688"></rect>
                        <rect id="Rectangle" stroke="#000000" stroke-width="0.8064" x="129.926703" y="46.8" width="6.14458045" height="2.17696796" rx="0.2688"></rect>
                        <rect id="Rectangle" stroke="#000000" stroke-width="0.8064" x="121.8" y="46.8" width="6.14458045" height="2.17696796" rx="0.2688"></rect>
                    </g>
                    <g id="wheel" transform="translate(32.000000, 0.000000)" stroke="#000000">
                        <g transform="translate(105.356360, 105.198476) rotate(33.000000) translate(-105.356360, -105.198476) translate(29.356360, 29.198476)">
                            <path d="M22.5285023,75.8097762 C22.5285023,46.3177705 46.4364967,22.4097762 75.9285023,22.4097762 C105.420508,22.4097762 129.328502,46.3177705 129.328502,75.8097762 C129.328502,105.301782 105.420508,129.209776 75.9285023,129.209776 C46.4364967,129.209776 22.5285023,105.301782 22.5285023,75.8097762 Z M118.45731,65.3580733 C116.816433,65.194975 114.512724,65.6256944 108.194971,67.0345453 C101.877218,68.4433963 98.908654,69.7361095 98.2280859,70.3203885 C97.5475177,70.9046674 97.3427044,71.6848288 97.3427044,72.3067877 C97.3427044,72.7214269 97.3427044,79.5293935 97.3427044,79.9440327 C97.3427044,80.5659915 97.5475177,81.346153 98.2280859,81.9304319 C98.908654,82.5147108 101.877218,83.8074241 108.194971,85.216275 C114.512724,86.6251259 116.816433,87.0558453 118.45731,86.8927471 C119.088017,86.747549 120.742535,81.4033682 120.742704,76.0937431 C120.742874,70.7812691 119.088355,65.5033493 118.45731,65.3580733 Z M65.7780204,118.150984 C66.6853236,116.793049 67.3758234,114.576554 69.0681939,108.391002 C70.7605644,102.20545 70.9980806,99.0025969 70.7979599,98.133012 C70.5978392,97.2634272 70.003269,96.7177298 69.4533329,96.4254427 C69.0867089,96.2305846 63.0671039,93.0312078 62.7004799,92.8363498 C62.1505438,92.5440627 61.3654763,92.3564926 60.5323579,92.6769183 C59.6992396,92.9973441 57.175689,94.9851868 52.9919061,99.8465707 C48.8081233,104.707955 47.3559392,106.51962 46.7370591,108.03085 C46.5721325,108.650498 50.5280226,112.608482 55.2227152,115.103867 C59.9199267,117.600591 65.3560993,118.634421 65.7780204,118.150984 Z M44.4213094,46.1430498 C45.1695667,47.5945686 46.7741555,49.2727544 51.3658095,53.7509479 C55.9574634,58.2291414 58.6447129,59.9894634 59.5026018,60.2360597 C60.3604907,60.482656 61.1262325,60.2273859 61.6486068,59.8882902 C61.9968564,59.6622264 67.7147703,55.9504824 68.0630199,55.7244186 C68.5853942,55.3853229 69.1301454,54.7898957 69.2537115,53.9061947 C69.3772777,53.0224936 68.8614911,49.8525817 66.6363846,43.8381603 C64.4112782,37.823739 63.5301995,35.6758916 62.5079745,34.4022171 C62.0457631,33.9576366 56.6646618,35.497392 52.2050922,38.3920908 C47.7431298,41.2883428 44.2028805,45.53982 44.4213094,46.1430498 Z" id="Combined-Shape" stroke-width="1.5" fill="#FFFFFF" transform="translate(75.928502, 75.809776) rotate(43.000000) translate(-75.928502, -75.809776) "></path>
                            <g id="Group" transform="translate(60.702902, 60.016191)">
                                <ellipse id="center" stroke-width="1.2" cx="14.6136074" cy="14.5873855" rx="5.87900493" ry="5.85975393"></ellipse>
                                <ellipse id="Oval" stroke-width="0.54" cx="14.7490826" cy="14.7032556" rx="14.7490826" ry="14.6993082"></ellipse>
                                <ellipse id="Oval-Copy-2" stroke-width="0.54" cx="14.550401" cy="14.5087613" rx="12.8706698" ry="12.8271823"></ellipse>
                            </g>
                        </g>
                    </g>
                </g>
            </g>
            <g id="geraete1">
                <g>
                    <rect id="box" stroke="#000000" stroke-width="1.8" fill="#FFFFFF" x="0.9" y="81.3" width="159.6" height="160.8"></rect>
                    <g id="bigger-buttons" transform="translate(7.200000, 84.008886)" stroke="#000000">
                        <ellipse id="Oval" stroke-width="0.8064" cx="20.0490498" cy="20.049" rx="5.64904977" ry="5.649"></ellipse>
                        <ellipse id="Oval" stroke-width="1.2" cx="20.1721775" cy="20.172" rx="14.1721775" ry="14.172"></ellipse>
                        <ellipse id="Oval" stroke-width="0.6" cx="20.1532936" cy="20.3770297" rx="19.8212273" ry="19.821"></ellipse>
                        <ellipse id="Oval" stroke-width="0.8064" cx="29.0728459" cy="88.2284665" rx="8.91955227" ry="8.905778"></ellipse>
                        <ellipse id="Oval" stroke-width="0.8064" cx="102.213175" cy="79.3226885" rx="4.95530682" ry="4.94765444"></ellipse>
                        <ellipse id="Oval" stroke-width="1.2" cx="121.935296" cy="86.1504516" rx="8.82044613" ry="8.80682491"></ellipse>
                        <ellipse id="Oval" stroke-width="0.8064" cx="136.305685" cy="105.64421" rx="2.97318409" ry="2.96859267"></ellipse>
                        <ellipse id="Oval" stroke-width="0.8064" cx="145.621662" cy="93.7698395" rx="2.97318409" ry="2.96859267"></ellipse>
                        <ellipse id="Oval" stroke-width="0.8064" cx="4.89094863" cy="92.9782148" rx="3.56782091" ry="3.5623112"></ellipse>
                    </g>
                    <g id="small-buttons" transform="translate(7.037977, 163.435339)">
                        <path d="M4.57726193,43.2646609 L4.57726193,39.2795652 L4.57726193,43.2646609 L9.37726193,43.2646609 L9.37726193,39.2795652 L9.37726193,43.2646609 L14.1772619,43.2646609 L14.1772619,39.2795652 L14.1772619,43.2646609 L18.9772619,43.2646609 L18.9772619,39.2795652 L18.9772619,43.2646609 L23.7772619,43.2646609 L23.7772619,39.2795652 L23.7772619,43.2646609 L28.5772619,43.2646609 L28.5772619,39.2795652 L28.5772619,43.2646609 L33.3772619,43.2646609 L33.3772619,39.2795652 L33.3772619,43.2646609 L38.1772619,43.2646609 L38.1772619,39.2795652 L38.1772619,43.2646609 L42.9772619,43.2646609 L42.9772619,39.2795652 L42.9772619,43.2646609 L47.7772619,43.2646609 L47.7772619,39.2795652 L47.7772619,43.2646609 L52.5772619,43.2646609 L52.5772619,39.2795652 L52.5772619,43.2646609 L57.3772619,43.2646609 L57.3772619,39.2795652 L57.3772619,43.2646609 L61.5772619,43.2646609 L61.5772619,39.2795652 L61.5772619,43.2646609 L66.3772619,43.2646609 L66.3772619,39.2795652 L66.3772619,43.2646609 L71.1772619,43.2646609 L71.1772619,39.2795652 L71.1772619,43.2646609 L75.9772619,43.2646609 L75.9772619,39.2795652 L75.9772619,43.2646609 L80.7772619,43.2646609 L80.7772619,39.2795652 L80.7772619,43.2646609 L85.5772619,43.2646609 L85.5772619,39.2795652 L85.5772619,43.2646609 L90.3772619,43.2646609 L90.3772619,39.2795652 L90.3772619,43.2646609 L95.1772619,43.2646609 L95.1772619,39.2795652 L95.1772619,43.2646609 L99.9772619,43.2646609 L99.9772619,39.2795652 L99.9772619,43.2646609 L104.777262,43.2646609 L104.777262,39.2795652 L104.777262,43.2646609 L109.577262,43.2646609 L109.577262,39.2795652 L109.577262,43.2646609 L114.377262,43.2646609 L114.377262,39.2795652 L114.377262,43.2646609 L114.466146,43.2646609 L114.377262,43.2646609 L114.377262,46.8646609 L114.466146,46.8646609 L114.377262,46.8646609 L114.377262,51.0646609 L114.466146,51.0646609 L114.377262,51.0646609 L114.377262,55.2646609 L114.466146,55.2646609 L114.377262,55.2646609 L114.377262,59.4646609 L114.466146,59.4646609 L114.377262,59.4646609 L114.377262,63.6646609 L114.466146,63.6646609 L114.377262,63.6646609 L114.377262,67.5646609 L114.466146,67.5646609 L114.377262,67.5646609 L114.377262,71.7361784 L114.377262,67.5646609 L109.577262,67.5646609 L109.577262,71.7361784 L109.577262,67.5646609 L104.777262,67.5646609 L104.777262,71.7361784 L104.777262,67.5646609 L99.9772619,67.5646609 L99.9772619,71.7361784 L99.9772619,67.5646609 L95.1772619,67.5646609 L95.1772619,71.7361784 L95.1772619,67.5646609 L90.3772619,67.5646609 L90.3772619,71.7361784 L90.3772619,67.5646609 L85.5772619,67.5646609 L85.5772619,71.7361784 L85.5772619,67.5646609 L80.7772619,67.5646609 L80.7772619,71.7361784 L80.7772619,67.5646609 L75.9772619,67.5646609 L75.9772619,71.7361784 L75.9772619,67.5646609 L71.1772619,67.5646609 L71.1772619,71.7361784 L71.1772619,67.5646609 L66.3772619,67.5646609 L66.3772619,71.7361784 L66.3772619,67.5646609 L61.5772619,67.5646609 L61.5772619,71.7361784 L61.5772619,67.5646609 L57.3772619,67.5646609 L57.3772619,71.7361784 L57.3772619,67.5646609 L52.5772619,67.5646609 L52.5772619,71.7361784 L52.5772619,67.5646609 L47.7772619,67.5646609 L47.7772619,71.7361784 L47.7772619,67.5646609 L42.9772619,67.5646609 L42.9772619,71.7361784 L42.9772619,67.5646609 L38.1772619,67.5646609 L38.1772619,71.7361784 L38.1772619,67.5646609 L33.3772619,67.5646609 L33.3772619,71.7361784 L33.3772619,67.5646609 L28.5772619,67.5646609 L28.5772619,71.7361784 L28.5772619,67.5646609 L23.7772619,67.5646609 L23.7772619,71.7361784 L23.7772619,67.5646609 L18.9772619,67.5646609 L18.9772619,71.7361784 L18.9772619,67.5646609 L14.1772619,67.5646609 L14.1772619,71.7361784 L14.1772619,67.5646609 L9.37726193,67.5646609 L9.37726193,71.7361784 L9.37726193,67.5646609 L4.57726193,67.5646609 L4.57726193,71.7361784 L4.57726193,67.5646609 L0.49408911,67.5646609 L4.57726193,67.5646609 L4.57726193,63.6646609 L0.49408911,63.6646609 L4.57726193,63.6646609 L4.57726193,59.4646609 L0.49408911,59.4646609 L4.57726193,59.4646609 L4.57726193,55.2646609 L0.49408911,55.2646609 L4.57726193,55.2646609 L4.57726193,51.0646609 L0.49408911,51.0646609 L4.57726193,51.0646609 L4.57726193,46.8646609 L0.49408911,46.8646609 L4.57726193,46.8646609 L4.57726193,43.2646609 L0.49408911,43.2646609 L4.57726193,43.2646609 Z M114.377262,43.2646609 L109.577262,43.2646609 L109.577262,46.8646609 L104.777262,46.8646609 L104.777262,51.0646609 L99.9772619,51.0646609 L99.9772619,55.2646609 L95.1772619,55.2646609 L95.1772619,59.4646609 L90.3772619,59.4646609 L90.3772619,63.6646609 L85.5772619,63.6646609 L85.5772619,67.5646609 L80.7772619,67.5646609 L80.7772619,63.6646609 L85.5772619,63.6646609 L85.5772619,59.4646609 L90.3772619,59.4646609 L90.3772619,55.2646609 L95.1772619,55.2646609 L95.1772619,51.0646609 L99.9772619,51.0646609 L99.9772619,46.8646609 L104.777262,46.8646609 L104.777262,43.2646609 L99.9772619,43.2646609 L99.9772619,46.8646609 L95.1772619,46.8646609 L95.1772619,51.0646609 L90.3772619,51.0646609 L90.3772619,55.2646609 L85.5772619,55.2646609 L85.5772619,59.4646609 L80.7772619,59.4646609 L80.7772619,63.6646609 L75.9772619,63.6646609 L75.9772619,67.5646609 L71.1772619,67.5646609 L71.1772619,63.6646609 L75.9772619,63.6646609 L75.9772619,59.4646609 L80.7772619,59.4646609 L80.7772619,55.2646609 L85.5772619,55.2646609 L85.5772619,51.0646609 L90.3772619,51.0646609 L90.3772619,46.8646609 L95.1772619,46.8646609 L95.1772619,43.2646609 L90.3772619,43.2646609 L90.3772619,46.8646609 L85.5772619,46.8646609 L85.5772619,51.0646609 L80.7772619,51.0646609 L80.7772619,55.2646609 L75.9772619,55.2646609 L75.9772619,59.4646609 L71.1772619,59.4646609 L71.1772619,63.6646609 L66.3772619,63.6646609 L66.3772619,67.5646609 L61.5772619,67.5646609 L61.5772619,63.6646609 L66.3772619,63.6646609 L66.3772619,59.4646609 L71.1772619,59.4646609 L71.1772619,55.2646609 L75.9772619,55.2646609 L75.9772619,51.0646609 L80.7772619,51.0646609 L80.7772619,46.8646609 L85.5772619,46.8646609 L85.5772619,43.2646609 L80.7772619,43.2646609 L80.7772619,46.8646609 L75.9772619,46.8646609 L75.9772619,51.0646609 L71.1772619,51.0646609 L71.1772619,55.2646609 L66.3772619,55.2646609 L66.3772619,59.4646609 L61.5772619,59.4646609 L61.5772619,63.6646609 L57.3772619,63.6646609 L57.3772619,67.5646609 L52.5772619,67.5646609 L52.5772619,63.6646609 L57.3772619,63.6646609 L57.3772619,59.4646609 L61.5772619,59.4646609 L61.5772619,55.2646609 L66.3772619,55.2646609 L66.3772619,51.0646609 L71.1772619,51.0646609 L71.1772619,46.8646609 L75.9772619,46.8646609 L75.9772619,43.2646609 L71.1772619,43.2646609 L71.1772619,46.8646609 L66.3772619,46.8646609 L66.3772619,51.0646609 L61.5772619,51.0646609 L61.5772619,55.2646609 L57.3772619,55.2646609 L57.3772619,59.4646609 L52.5772619,59.4646609 L52.5772619,63.6646609 L47.7772619,63.6646609 L47.7772619,67.5646609 L42.9772619,67.5646609 L42.9772619,63.6646609 L47.7772619,63.6646609 L47.7772619,59.4646609 L52.5772619,59.4646609 L52.5772619,55.2646609 L57.3772619,55.2646609 L57.3772619,51.0646609 L61.5772619,51.0646609 L61.5772619,46.8646609 L66.3772619,46.8646609 L66.3772619,43.2646609 L61.5772619,43.2646609 L61.5772619,46.8646609 L57.3772619,46.8646609 L57.3772619,51.0646609 L52.5772619,51.0646609 L52.5772619,55.2646609 L47.7772619,55.2646609 L47.7772619,59.4646609 L42.9772619,59.4646609 L42.9772619,63.6646609 L38.1772619,63.6646609 L38.1772619,67.5646609 L33.3772619,67.5646609 L33.3772619,63.6646609 L38.1772619,63.6646609 L38.1772619,59.4646609 L42.9772619,59.4646609 L42.9772619,55.2646609 L47.7772619,55.2646609 L47.7772619,51.0646609 L52.5772619,51.0646609 L52.5772619,46.8646609 L57.3772619,46.8646609 L57.3772619,43.2646609 L52.5772619,43.2646609 L52.5772619,46.8646609 L47.7772619,46.8646609 L47.7772619,51.0646609 L42.9772619,51.0646609 L42.9772619,55.2646609 L38.1772619,55.2646609 L38.1772619,59.4646609 L33.3772619,59.4646609 L33.3772619,63.6646609 L28.5772619,63.6646609 L28.5772619,67.5646609 L23.7772619,67.5646609 L23.7772619,63.6646609 L28.5772619,63.6646609 L28.5772619,59.4646609 L33.3772619,59.4646609 L33.3772619,55.2646609 L38.1772619,55.2646609 L38.1772619,51.0646609 L42.9772619,51.0646609 L42.9772619,46.8646609 L47.7772619,46.8646609 L47.7772619,43.2646609 L42.9772619,43.2646609 L42.9772619,46.8646609 L38.1772619,46.8646609 L38.1772619,51.0646609 L33.3772619,51.0646609 L33.3772619,55.2646609 L28.5772619,55.2646609 L28.5772619,59.4646609 L23.7772619,59.4646609 L23.7772619,63.6646609 L18.9772619,63.6646609 L18.9772619,67.5646609 L14.1772619,67.5646609 L14.1772619,63.6646609 L18.9772619,63.6646609 L18.9772619,59.4646609 L23.7772619,59.4646609 L23.7772619,55.2646609 L28.5772619,55.2646609 L28.5772619,51.0646609 L33.3772619,51.0646609 L33.3772619,46.8646609 L38.1772619,46.8646609 L38.1772619,43.2646609 L33.3772619,43.2646609 L33.3772619,46.8646609 L28.5772619,46.8646609 L28.5772619,51.0646609 L23.7772619,51.0646609 L23.7772619,55.2646609 L18.9772619,55.2646609 L18.9772619,59.4646609 L14.1772619,59.4646609 L14.1772619,63.6646609 L9.37726193,63.6646609 L9.37726193,67.5646609 L4.57726193,67.5646609 L4.57726193,63.6646609 L9.37726193,63.6646609 L9.37726193,59.4646609 L14.1772619,59.4646609 L14.1772619,55.2646609 L18.9772619,55.2646609 L18.9772619,51.0646609 L23.7772619,51.0646609 L23.7772619,46.8646609 L28.5772619,46.8646609 L28.5772619,43.2646609 L23.7772619,43.2646609 L23.7772619,46.8646609 L18.9772619,46.8646609 L18.9772619,51.0646609 L14.1772619,51.0646609 L14.1772619,55.2646609 L9.37726193,55.2646609 L9.37726193,59.4646609 L4.57726193,59.4646609 L4.57726193,63.6646609 L9.37726193,63.6646609 L9.37726193,59.4646609 L14.1772619,59.4646609 L14.1772619,55.2646609 L18.9772619,55.2646609 L18.9772619,51.0646609 L23.7772619,51.0646609 L23.7772619,46.8646609 L28.5772619,46.8646609 L28.5772619,43.2646609 L33.3772619,43.2646609 L33.3772619,46.8646609 L28.5772619,46.8646609 L28.5772619,51.0646609 L23.7772619,51.0646609 L23.7772619,55.2646609 L18.9772619,55.2646609 L18.9772619,59.4646609 L14.1772619,59.4646609 L14.1772619,63.6646609 L9.37726193,63.6646609 L9.37726193,67.5646609 L14.1772619,67.5646609 L14.1772619,63.6646609 L18.9772619,63.6646609 L18.9772619,59.4646609 L23.7772619,59.4646609 L23.7772619,55.2646609 L28.5772619,55.2646609 L28.5772619,51.0646609 L33.3772619,51.0646609 L33.3772619,46.8646609 L38.1772619,46.8646609 L38.1772619,43.2646609 L42.9772619,43.2646609 L42.9772619,46.8646609 L38.1772619,46.8646609 L38.1772619,51.0646609 L33.3772619,51.0646609 L33.3772619,55.2646609 L28.5772619,55.2646609 L28.5772619,59.4646609 L23.7772619,59.4646609 L23.7772619,63.6646609 L18.9772619,63.6646609 L18.9772619,67.5646609 L23.7772619,67.5646609 L23.7772619,63.6646609 L28.5772619,63.6646609 L28.5772619,59.4646609 L33.3772619,59.4646609 L33.3772619,55.2646609 L38.1772619,55.2646609 L38.1772619,51.0646609 L42.9772619,51.0646609 L42.9772619,46.8646609 L47.7772619,46.8646609 L47.7772619,43.2646609 L52.5772619,43.2646609 L52.5772619,46.8646609 L47.7772619,46.8646609 L47.7772619,51.0646609 L42.9772619,51.0646609 L42.9772619,55.2646609 L38.1772619,55.2646609 L38.1772619,59.4646609 L33.3772619,59.4646609 L33.3772619,63.6646609 L28.5772619,63.6646609 L28.5772619,67.5646609 L33.3772619,67.5646609 L33.3772619,63.6646609 L38.1772619,63.6646609 L38.1772619,59.4646609 L42.9772619,59.4646609 L42.9772619,55.2646609 L47.7772619,55.2646609 L47.7772619,51.0646609 L52.5772619,51.0646609 L52.5772619,46.8646609 L57.3772619,46.8646609 L57.3772619,43.2646609 L61.5772619,43.2646609 L61.5772619,46.8646609 L57.3772619,46.8646609 L57.3772619,51.0646609 L52.5772619,51.0646609 L52.5772619,55.2646609 L47.7772619,55.2646609 L47.7772619,59.4646609 L42.9772619,59.4646609 L42.9772619,63.6646609 L38.1772619,63.6646609 L38.1772619,67.5646609 L42.9772619,67.5646609 L42.9772619,63.6646609 L47.7772619,63.6646609 L47.7772619,59.4646609 L52.5772619,59.4646609 L52.5772619,55.2646609 L57.3772619,55.2646609 L57.3772619,51.0646609 L61.5772619,51.0646609 L61.5772619,46.8646609 L66.3772619,46.8646609 L66.3772619,43.2646609 L71.1772619,43.2646609 L71.1772619,46.8646609 L66.3772619,46.8646609 L66.3772619,51.0646609 L61.5772619,51.0646609 L61.5772619,55.2646609 L57.3772619,55.2646609 L57.3772619,59.4646609 L52.5772619,59.4646609 L52.5772619,63.6646609 L47.7772619,63.6646609 L47.7772619,67.5646609 L52.5772619,67.5646609 L52.5772619,63.6646609 L57.3772619,63.6646609 L57.3772619,59.4646609 L61.5772619,59.4646609 L61.5772619,55.2646609 L66.3772619,55.2646609 L66.3772619,51.0646609 L71.1772619,51.0646609 L71.1772619,46.8646609 L75.9772619,46.8646609 L75.9772619,43.2646609 L80.7772619,43.2646609 L80.7772619,46.8646609 L75.9772619,46.8646609 L75.9772619,51.0646609 L71.1772619,51.0646609 L71.1772619,55.2646609 L66.3772619,55.2646609 L66.3772619,59.4646609 L61.5772619,59.4646609 L61.5772619,63.6646609 L57.3772619,63.6646609 L57.3772619,67.5646609 L61.5772619,67.5646609 L61.5772619,63.6646609 L66.3772619,63.6646609 L66.3772619,59.4646609 L71.1772619,59.4646609 L71.1772619,55.2646609 L75.9772619,55.2646609 L75.9772619,51.0646609 L80.7772619,51.0646609 L80.7772619,46.8646609 L85.5772619,46.8646609 L85.5772619,43.2646609 L90.3772619,43.2646609 L90.3772619,46.8646609 L85.5772619,46.8646609 L85.5772619,51.0646609 L80.7772619,51.0646609 L80.7772619,55.2646609 L75.9772619,55.2646609 L75.9772619,59.4646609 L71.1772619,59.4646609 L71.1772619,63.6646609 L66.3772619,63.6646609 L66.3772619,67.5646609 L71.1772619,67.5646609 L71.1772619,63.6646609 L75.9772619,63.6646609 L75.9772619,59.4646609 L80.7772619,59.4646609 L80.7772619,55.2646609 L85.5772619,55.2646609 L85.5772619,51.0646609 L90.3772619,51.0646609 L90.3772619,46.8646609 L95.1772619,46.8646609 L95.1772619,43.2646609 L99.9772619,43.2646609 L99.9772619,46.8646609 L95.1772619,46.8646609 L95.1772619,51.0646609 L90.3772619,51.0646609 L90.3772619,55.2646609 L85.5772619,55.2646609 L85.5772619,59.4646609 L80.7772619,59.4646609 L80.7772619,63.6646609 L75.9772619,63.6646609 L75.9772619,67.5646609 L80.7772619,67.5646609 L80.7772619,63.6646609 L85.5772619,63.6646609 L85.5772619,59.4646609 L90.3772619,59.4646609 L90.3772619,55.2646609 L95.1772619,55.2646609 L95.1772619,51.0646609 L99.9772619,51.0646609 L99.9772619,46.8646609 L104.777262,46.8646609 L104.777262,43.2646609 L109.577262,43.2646609 L109.577262,46.8646609 L104.777262,46.8646609 L104.777262,51.0646609 L99.9772619,51.0646609 L99.9772619,55.2646609 L95.1772619,55.2646609 L95.1772619,59.4646609 L90.3772619,59.4646609 L90.3772619,63.6646609 L85.5772619,63.6646609 L85.5772619,67.5646609 L90.3772619,67.5646609 L90.3772619,63.6646609 L95.1772619,63.6646609 L95.1772619,59.4646609 L99.9772619,59.4646609 L99.9772619,55.2646609 L104.777262,55.2646609 L104.777262,51.0646609 L109.577262,51.0646609 L109.577262,46.8646609 L114.377262,46.8646609 L114.377262,43.2646609 Z M23.7772619,43.2646609 L18.9772619,43.2646609 L18.9772619,46.8646609 L14.1772619,46.8646609 L14.1772619,51.0646609 L9.37726193,51.0646609 L9.37726193,55.2646609 L4.57726193,55.2646609 L4.57726193,51.0646609 L9.37726193,51.0646609 L9.37726193,46.8646609 L14.1772619,46.8646609 L14.1772619,43.2646609 L18.9772619,43.2646609 L18.9772619,46.8646609 L14.1772619,46.8646609 L14.1772619,51.0646609 L9.37726193,51.0646609 L9.37726193,55.2646609 L4.57726193,55.2646609 L4.57726193,59.4646609 L9.37726193,59.4646609 L9.37726193,55.2646609 L14.1772619,55.2646609 L14.1772619,51.0646609 L18.9772619,51.0646609 L18.9772619,46.8646609 L23.7772619,46.8646609 L23.7772619,43.2646609 Z M14.1772619,43.2646609 L9.37726193,43.2646609 L9.37726193,46.8646609 L4.57726193,46.8646609 L4.57726193,43.2646609 L9.37726193,43.2646609 L9.37726193,46.8646609 L4.57726193,46.8646609 L4.57726193,51.0646609 L9.37726193,51.0646609 L9.37726193,46.8646609 L14.1772619,46.8646609 L14.1772619,43.2646609 Z M114.377262,46.8646609 L109.577262,46.8646609 L109.577262,51.0646609 L104.777262,51.0646609 L104.777262,55.2646609 L99.9772619,55.2646609 L99.9772619,59.4646609 L95.1772619,59.4646609 L95.1772619,63.6646609 L90.3772619,63.6646609 L90.3772619,67.5646609 L95.1772619,67.5646609 L95.1772619,63.6646609 L99.9772619,63.6646609 L99.9772619,59.4646609 L104.777262,59.4646609 L104.777262,55.2646609 L109.577262,55.2646609 L109.577262,51.0646609 L114.377262,51.0646609 L114.377262,55.2646609 L109.577262,55.2646609 L109.577262,59.4646609 L104.777262,59.4646609 L104.777262,63.6646609 L99.9772619,63.6646609 L99.9772619,67.5646609 L95.1772619,67.5646609 L95.1772619,63.6646609 L99.9772619,63.6646609 L99.9772619,59.4646609 L104.777262,59.4646609 L104.777262,55.2646609 L109.577262,55.2646609 L109.577262,51.0646609 L114.377262,51.0646609 L114.377262,46.8646609 Z M114.377262,55.2646609 L109.577262,55.2646609 L109.577262,59.4646609 L104.777262,59.4646609 L104.777262,63.6646609 L99.9772619,63.6646609 L99.9772619,67.5646609 L104.777262,67.5646609 L104.777262,63.6646609 L109.577262,63.6646609 L109.577262,59.4646609 L114.377262,59.4646609 L114.377262,63.6646609 L109.577262,63.6646609 L109.577262,67.5646609 L104.777262,67.5646609 L104.777262,63.6646609 L109.577262,63.6646609 L109.577262,59.4646609 L114.377262,59.4646609 L114.377262,55.2646609 Z M114.377262,63.6646609 L114.377262,67.5646609 L109.577262,67.5646609 L109.577262,63.6646609 L114.377262,63.6646609 Z" id="Combined-Shape" stroke="#979797" stroke-width="0.6" stroke-linecap="square"></path>
                        <path d="M11.3164792,1.63781023 L10.1272056,0.549326252 C9.01721684,1.06388231 7.90722811,2.17215691 6.81706061,3.8345688 C5.66380295,5.65757612 4.90118751,7.69930744 4.57726193,9.83112599 L6.65849079,10.1675665 C6.93037984,8.38981396 7.49993271,6.67041344 8.34329511,5.08137772 C9.10970642,3.75780113 10.1182462,2.58970163 11.3164792,1.63781023 L11.3164792,1.63781023 Z M0.295876838,39.2795652 L114.466146,39.2795652 L114.466146,71.7361784 L0.295876838,71.7361784 L0.295876838,39.2795652 Z" id="Shape" stroke="#000000" stroke-width="0.8064"></path>
                        <rect id="Rectangle" stroke="#000000" stroke-width="0.8064" x="138.6" y="57" width="6.14458045" height="2.17696796" rx="0.2688"></rect>
                        <path d="M2.6688,34.2 L8.27578045,34.2 C8.42423459,34.2 8.54458045,34.3203459 8.54458045,34.4688 L8.54458045,36.108168 C8.54458045,36.2566221 8.42423459,36.376968 8.27578045,36.376968 L2.6688,36.376968 C2.52034586,36.376968 2.4,36.2566221 2.4,36.108168 L2.4,34.4688 C2.4,34.3203459 2.52034586,34.2 2.6688,34.2 Z M12.8688,34.2 L18.4757805,34.2 C18.6242346,34.2 18.7445805,34.3203459 18.7445805,34.4688 L18.7445805,36.108168 C18.7445805,36.2566221 18.6242346,36.376968 18.4757805,36.376968 L12.8688,36.376968 C12.7203459,36.376968 12.6,36.2566221 12.6,36.108168 L12.6,34.4688 C12.6,34.3203459 12.7203459,34.2 12.8688,34.2 Z M23.0688,34.2 L28.6757805,34.2 C28.8242346,34.2 28.9445805,34.3203459 28.9445805,34.4688 L28.9445805,36.108168 C28.9445805,36.2566221 28.8242346,36.376968 28.6757805,36.376968 L23.0688,36.376968 C22.9203459,36.376968 22.8,36.2566221 22.8,36.108168 L22.8,34.4688 C22.8,34.3203459 22.9203459,34.2 23.0688,34.2 Z M33.2688,34.2 L38.8757805,34.2 C39.0242346,34.2 39.1445805,34.3203459 39.1445805,34.4688 L39.1445805,36.108168 C39.1445805,36.2566221 39.0242346,36.376968 38.8757805,36.376968 L33.2688,36.376968 C33.1203459,36.376968 33,36.2566221 33,36.108168 L33,34.4688 C33,34.3203459 33.1203459,34.2 33.2688,34.2 Z M43.4688,34.2 L49.0757805,34.2 C49.2242346,34.2 49.3445805,34.3203459 49.3445805,34.4688 L49.3445805,36.108168 C49.3445805,36.2566221 49.2242346,36.376968 49.0757805,36.376968 L43.4688,36.376968 C43.3203459,36.376968 43.2,36.2566221 43.2,36.108168 L43.2,34.4688 C43.2,34.3203459 43.3203459,34.2 43.4688,34.2 Z M53.6688,34.2 L59.2757805,34.2 C59.4242346,34.2 59.5445805,34.3203459 59.5445805,34.4688 L59.5445805,36.108168 C59.5445805,36.2566221 59.4242346,36.376968 59.2757805,36.376968 L53.6688,36.376968 C53.5203459,36.376968 53.4,36.2566221 53.4,36.108168 L53.4,34.4688 C53.4,34.3203459 53.5203459,34.2 53.6688,34.2 Z M63.8688,34.2 L69.4757805,34.2 C69.6242346,34.2 69.7445805,34.3203459 69.7445805,34.4688 L69.7445805,36.108168 C69.7445805,36.2566221 69.6242346,36.376968 69.4757805,36.376968 L63.8688,36.376968 C63.7203459,36.376968 63.6,36.2566221 63.6,36.108168 L63.6,34.4688 C63.6,34.3203459 63.7203459,34.2 63.8688,34.2 Z M74.0688,34.2 L79.6757805,34.2 C79.8242346,34.2 79.9445805,34.3203459 79.9445805,34.4688 L79.9445805,36.108168 C79.9445805,36.2566221 79.8242346,36.376968 79.6757805,36.376968 L74.0688,36.376968 C73.9203459,36.376968 73.8,36.2566221 73.8,36.108168 L73.8,34.4688 C73.8,34.3203459 73.9203459,34.2 74.0688,34.2 Z M84.2688,34.2 L89.8757805,34.2 C90.0242346,34.2 90.1445805,34.3203459 90.1445805,34.4688 L90.1445805,36.108168 C90.1445805,36.2566221 90.0242346,36.376968 89.8757805,36.376968 L84.2688,36.376968 C84.1203459,36.376968 84,36.2566221 84,36.108168 L84,34.4688 C84,34.3203459 84.1203459,34.2 84.2688,34.2 Z M94.4688,34.2 L100.07578,34.2 C100.224235,34.2 100.34458,34.3203459 100.34458,34.4688 L100.34458,36.108168 C100.34458,36.2566221 100.224235,36.376968 100.07578,36.376968 L94.4688,36.376968 C94.3203459,36.376968 94.2,36.2566221 94.2,36.108168 L94.2,34.4688 C94.2,34.3203459 94.3203459,34.2 94.4688,34.2 Z M104.6688,34.2 L110.27578,34.2 C110.424235,34.2 110.54458,34.3203459 110.54458,34.4688 L110.54458,36.108168 C110.54458,36.2566221 110.424235,36.376968 110.27578,36.376968 L104.6688,36.376968 C104.520346,36.376968 104.4,36.2566221 104.4,36.108168 L104.4,34.4688 C104.4,34.3203459 104.520346,34.2 104.6688,34.2 Z" id="Combined-Shape" stroke="#000000" stroke-width="0.6"></path>
                        <rect id="Rectangle" stroke="#000000" stroke-width="0.8064" x="138.449831" y="62.2366819" width="6.14458045" height="2.17696796" rx="0.2688"></rect>
                        <rect id="Rectangle" stroke="#000000" stroke-width="0.8064" x="129.926703" y="62.2366819" width="6.14458045" height="2.17696796" rx="0.2688"></rect>
                        <rect id="Rectangle" stroke="#000000" stroke-width="0.8064" x="121.8" y="62.2366819" width="6.14458045" height="2.17696796" rx="0.2688"></rect>
                        <rect id="Rectangle" stroke="#000000" stroke-width="0.8064" x="129.926703" y="57.0911212" width="6.14458045" height="2.17696796" rx="0.2688"></rect>
                        <rect id="Rectangle" stroke="#000000" stroke-width="0.8064" x="121.8" y="57.0911212" width="6.14458045" height="2.17696796" rx="0.2688"></rect>
                        <rect id="Rectangle" stroke="#000000" stroke-width="0.8064" x="138.449831" y="51.9455606" width="6.14458045" height="2.17696796" rx="0.2688"></rect>
                        <rect id="Rectangle" stroke="#000000" stroke-width="0.8064" x="129.926703" y="51.9455606" width="6.14458045" height="2.17696796" rx="0.2688"></rect>
                        <rect id="Rectangle" stroke="#000000" stroke-width="0.8064" x="121.8" y="51.9455606" width="6.14458045" height="2.17696796" rx="0.2688"></rect>
                        <rect id="Rectangle" stroke="#000000" stroke-width="0.8064" x="138.449831" y="46.8" width="6.14458045" height="2.17696796" rx="0.2688"></rect>
                        <rect id="Rectangle" stroke="#000000" stroke-width="0.8064" x="129.926703" y="46.8" width="6.14458045" height="2.17696796" rx="0.2688"></rect>
                        <rect id="Rectangle" stroke="#000000" stroke-width="0.8064" x="121.8" y="46.8" width="6.14458045" height="2.17696796" rx="0.2688"></rect>
                    </g>
                    <g id="wheel" transform="translate(32.000000, 0.000000)" stroke="#000000">
                        <g transform="translate(105.356360, 105.198476) rotate(33.000000) translate(-105.356360, -105.198476) translate(29.356360, 29.198476)">
                            <path d="M22.5285023,75.8097762 C22.5285023,46.3177705 46.4364967,22.4097762 75.9285023,22.4097762 C105.420508,22.4097762 129.328502,46.3177705 129.328502,75.8097762 C129.328502,105.301782 105.420508,129.209776 75.9285023,129.209776 C46.4364967,129.209776 22.5285023,105.301782 22.5285023,75.8097762 Z M118.45731,65.3580733 C116.816433,65.194975 114.512724,65.6256944 108.194971,67.0345453 C101.877218,68.4433963 98.908654,69.7361095 98.2280859,70.3203885 C97.5475177,70.9046674 97.3427044,71.6848288 97.3427044,72.3067877 C97.3427044,72.7214269 97.3427044,79.5293935 97.3427044,79.9440327 C97.3427044,80.5659915 97.5475177,81.346153 98.2280859,81.9304319 C98.908654,82.5147108 101.877218,83.8074241 108.194971,85.216275 C114.512724,86.6251259 116.816433,87.0558453 118.45731,86.8927471 C119.088017,86.747549 120.742535,81.4033682 120.742704,76.0937431 C120.742874,70.7812691 119.088355,65.5033493 118.45731,65.3580733 Z M65.7780204,118.150984 C66.6853236,116.793049 67.3758234,114.576554 69.0681939,108.391002 C70.7605644,102.20545 70.9980806,99.0025969 70.7979599,98.133012 C70.5978392,97.2634272 70.003269,96.7177298 69.4533329,96.4254427 C69.0867089,96.2305846 63.0671039,93.0312078 62.7004799,92.8363498 C62.1505438,92.5440627 61.3654763,92.3564926 60.5323579,92.6769183 C59.6992396,92.9973441 57.175689,94.9851868 52.9919061,99.8465707 C48.8081233,104.707955 47.3559392,106.51962 46.7370591,108.03085 C46.5721325,108.650498 50.5280226,112.608482 55.2227152,115.103867 C59.9199267,117.600591 65.3560993,118.634421 65.7780204,118.150984 Z M44.4213094,46.1430498 C45.1695667,47.5945686 46.7741555,49.2727544 51.3658095,53.7509479 C55.9574634,58.2291414 58.6447129,59.9894634 59.5026018,60.2360597 C60.3604907,60.482656 61.1262325,60.2273859 61.6486068,59.8882902 C61.9968564,59.6622264 67.7147703,55.9504824 68.0630199,55.7244186 C68.5853942,55.3853229 69.1301454,54.7898957 69.2537115,53.9061947 C69.3772777,53.0224936 68.8614911,49.8525817 66.6363846,43.8381603 C64.4112782,37.823739 63.5301995,35.6758916 62.5079745,34.4022171 C62.0457631,33.9576366 56.6646618,35.497392 52.2050922,38.3920908 C47.7431298,41.2883428 44.2028805,45.53982 44.4213094,46.1430498 Z" id="Combined-Shape" stroke-width="1.5" fill="#FFFFFF" transform="translate(75.928502, 75.809776) rotate(43.000000) translate(-75.928502, -75.809776) "></path>
                            <g id="Group" transform="translate(60.702902, 60.016191)">
                                <ellipse id="center" stroke-width="1.2" cx="14.6136074" cy="14.5873855" rx="5.87900493" ry="5.85975393"></ellipse>
                                <ellipse id="Oval" stroke-width="0.54" cx="14.7490826" cy="14.7032556" rx="14.7490826" ry="14.6993082"></ellipse>
                                <ellipse id="Oval-Copy-2" stroke-width="0.54" cx="14.550401" cy="14.5087613" rx="12.8706698" ry="12.8271823"></ellipse>
                            </g>
                        </g>
                    </g>
                </g>
            </g>
        </g>
    </g>
</svg>