<?xml version="1.0" encoding="UTF-8"?>
<svg width="113px" height="113px" viewBox="0 0 113 113" version="1.1" xmlns="http://www.w3.org/2000/svg" xmlns:xlink="http://www.w3.org/1999/xlink">
    <!-- Generator: Sketch 52.6 (67491) - http://www.bohemiancoding.com/sketch -->
    <title>recording</title>
    <desc>Created with Sketch.</desc>
    <g id="recording" stroke="none" stroke-width="1" fill="none" fill-rule="evenodd">
        <g id="wheel" transform="translate(56.591731, 56.376246) rotate(33.000000) translate(-56.591731, -56.376246) translate(16.091731, 15.876246)" stroke="#000000">
            <path d="M12.0053203,40.3986307 C12.0053203,24.6824961 24.7457647,11.9420518 40.4618993,11.9420518 C56.1780339,11.9420518 68.9184782,24.6824961 68.9184782,40.3986307 C68.9184782,56.1147653 56.1780339,68.8552097 40.4618993,68.8552097 C24.7457647,68.8552097 12.0053203,56.1147653 12.0053203,40.3986307 Z M63.1252772,34.8289733 C62.2508621,34.7420591 61.0232277,34.9715872 57.6565305,35.7223564 C54.2898333,36.4731256 52.7079012,37.1620057 52.34523,37.4733649 C51.9825588,37.7847241 51.8734148,38.200468 51.8734148,38.5319066 C51.8734148,38.7528656 51.8734148,42.3807952 51.8734148,42.6017543 C51.8734148,42.9331928 51.9825588,43.3489368 52.34523,43.6602959 C52.7079012,43.9716551 54.2898333,44.6605352 57.6565305,45.4113044 C61.0232277,46.1620737 62.2508621,46.3916018 63.1252772,46.3046876 C63.4613775,46.2273123 64.3430615,43.3794265 64.3431517,40.5499552 C64.3432419,37.7189658 63.4615578,34.9063901 63.1252772,34.8289733 Z M35.0527609,62.9620375 C35.536258,62.2384013 35.9042217,61.0572425 36.806077,57.7609946 C37.7079323,54.4647466 37.8345035,52.7579628 37.7278602,52.2945656 C37.621217,51.8311684 37.3043736,51.5403691 37.0113156,51.3846109 C36.8159435,51.2807721 33.6081277,49.575841 33.4127557,49.4720022 C33.1196977,49.3162439 32.7013393,49.2162888 32.257375,49.387042 C31.8134106,49.5577952 30.4686237,50.6171061 28.2391079,53.207712 C26.009592,55.7983179 25.2357307,56.7637451 24.9059328,57.5690713 C24.8180443,57.8992783 26.9261173,60.0084673 29.4278943,61.3382449 C31.9310136,62.6687359 34.8279213,63.2196583 35.0527609,62.9620375 Z M23.671882,24.5893884 C24.0706243,25.3628951 24.9257013,26.2571915 27.3725695,28.6435972 C29.8194377,31.030003 31.2514588,31.9680693 31.7086233,32.0994792 C32.1657878,32.2308891 32.5738476,32.0948569 32.8522181,31.9141546 C33.0377985,31.7936864 36.0848447,29.8157176 36.2704251,29.6952494 C36.5487956,29.5145471 36.8390906,29.1972471 36.9049384,28.7263274 C36.9707861,28.2554078 36.6959262,26.5661784 35.5101787,23.3611249 C34.3244312,20.1560714 33.854909,19.0114948 33.3101706,18.3327604 C33.0638606,18.0958458 30.1963,18.9163734 27.8198189,20.4589431 C25.4420626,22.0023406 23.5554824,24.2679304 23.671882,24.5893884 Z" id="Combined-Shape" stroke-width="0.78" fill="#FFFFFF" transform="translate(40.461899, 40.398631) rotate(43.000000) translate(-40.461899, -40.398631) "></path>
            <g id="Group" transform="translate(31.798815, 32.506733)">
                <ellipse id="center" stroke-width="0.78" cx="7.79392395" cy="7.77993894" rx="3.1354693" ry="3.1252021"></ellipse>
                <ellipse id="Oval" stroke-width="0.5" cx="7.86617736" cy="7.8417363" rx="7.86617736" ry="7.83963103"></ellipse>
                <ellipse id="Oval-Copy-2" stroke-width="0.5" cx="7.76021387" cy="7.73800602" rx="6.8643572" ry="6.84116391"></ellipse>
            </g>
        </g>
    </g>
</svg>