<?xml version="1.0" encoding="UTF-8"?>
<svg width="195px" height="148px" viewBox="0 0 195 148" version="1.1" xmlns="http://www.w3.org/2000/svg" xmlns:xlink="http://www.w3.org/1999/xlink">
    <!-- Generator: Sketch 53.2 (72643) - https://sketchapp.com -->
    <title>recording-cloud</title>
    <desc>Created with Sketch.</desc>
    <g id="recording-cloud" stroke="none" stroke-width="1" fill="none" fill-rule="evenodd">
        <path d="M42.5508021,117.996642 C42.4075751,117.998878 42.2640786,118 42.1203209,118 C27.1421812,118 15,105.82011 15,90.7954545 C15,75.770799 27.1421812,63.5909091 42.1203209,63.5909091 C42.5963405,63.5909091 43.0694958,63.6032111 43.5394879,63.6275156 C46.6766881,52.3099832 56.9246045,43.9624508 69.1519247,43.7321583 C72.047052,31.8322075 82.745283,23 95.5,23 C108.262277,23 118.965629,31.8426806 121.853215,43.7533214 C122.250256,43.7360154 122.649511,43.7272727 123.050802,43.7272727 C135.493778,43.7272727 145.979565,52.1330161 149.172696,63.5924641 C164.015864,63.7500858 176,75.8689014 176,90.7954545 C176,105.38584 164.549586,117.293533 150.171123,117.969699 L150.171123,118 L42.5508021,118 Z" id="cloud-copy-2" stroke="#FFFFFF" stroke-width="3.15" fill="#FFFFFF" transform="translate(95.500000, 70.500000) scale(-1, 1) translate(-95.500000, -70.500000) "></path>
        <g id="wheel" transform="translate(91.128528, 77.128528) rotate(-52.000000) translate(-91.128528, -77.128528) translate(56.128528, 42.128528)" stroke="#000000">
            <path d="M0.342547813,34.8767068 C0.342547813,15.7615179 15.8384701,0.265595654 34.9536589,0.265595654 C54.0688478,0.265595654 69.56477,15.7615179 69.56477,34.8767068 C69.56477,53.9918956 54.0688478,69.4878179 34.9536589,69.4878179 C15.8384701,69.4878179 0.342547813,53.9918956 0.342547813,34.8767068 Z M62.518627,28.1024549 C61.4550952,27.9967431 59.9619504,28.275913 55.8671107,29.1890572 C51.772271,30.1022013 49.8482017,30.940071 49.4070927,31.3187703 C48.9659837,31.6974696 48.8332343,32.2031298 48.8332343,32.6062513 C48.8332343,32.8749989 48.8332343,37.2875698 48.8332343,37.5563175 C48.8332343,37.9594389 48.9659837,38.4650992 49.4070927,38.8437985 C49.8482017,39.2224978 51.772271,40.0603675 55.8671107,40.9735116 C59.9619504,41.8866557 61.4550952,42.1658257 62.518627,42.0601138 C62.9274184,41.966004 63.9997913,38.5021831 63.999901,35.0607594 C64.0000107,31.6174892 62.9276378,28.1966153 62.518627,28.1024549 Z M28.3746429,62.3200822 C28.9627097,61.4399394 29.4102559,60.003322 30.5071627,55.9941681 C31.6040695,51.9850142 31.7580152,49.9090906 31.6283073,49.3454708 C31.4985995,48.781851 31.1132299,48.4281582 30.7567899,48.2387129 C30.5191632,48.112416 26.6175674,46.0387458 26.3799407,45.9124489 C26.0235006,45.7230036 25.5146606,45.6014304 24.9746764,45.8091137 C24.4346923,46.0167971 22.7990577,47.3052136 20.0873466,50.4561106 C17.3756355,53.6070076 16.434405,54.7812354 16.033279,55.760736 C15.9263822,56.1623596 18.490385,58.7277197 21.5332413,60.3450989 C24.5777303,61.9633459 28.1011755,62.6334207 28.3746429,62.3200822 Z M14.5323302,15.648273 C15.0173117,16.5890722 16.057323,17.6767853 19.033395,20.5793181 C22.009467,23.4818509 23.7512028,24.6228003 24.3072419,24.7826313 C24.863281,24.9424622 25.3595951,24.7770093 25.6981711,24.5572251 C25.9238884,24.4107023 29.6299437,22.0049423 29.855661,21.8584195 C30.194237,21.6386352 30.5473165,21.2527102 30.6274056,20.679941 C30.7074948,20.1071718 30.3731887,18.0525992 28.93099,14.1543632 C27.4887914,10.2561271 26.9177219,8.86400379 26.2551686,8.03847405 C25.9555872,7.75031999 22.4678364,8.74830961 19.5773746,10.6245033 C16.6853619,12.5017037 14.3907559,15.2572908 14.5323302,15.648273 Z" id="Combined-Shape" stroke-width="1.15068493" fill="#FFFFFF"></path>
            <g id="Group" transform="translate(25.085214, 24.640124)">
                <ellipse id="center" stroke-width="1.15068493" cx="9.47178257" cy="9.45478691" rx="3.81046616" ry="3.79798866"></ellipse>
                <ellipse id="Oval" stroke-width="0.517808219" cx="9.55959054" cy="9.52988786" rx="9.55959054" ry="9.52732938"></ellipse>
                <ellipse id="Oval-Copy-2" stroke-width="0.517808219" cx="9.43081546" cy="9.40382675" rx="8.34210077" ry="8.31391447"></ellipse>
            </g>
        </g>
        <path d="M42.1203209,63.5909091 C27.1421812,63.5909091 15,75.770799 15,90.7954545 C15,105.82011 27.1421812,118 42.1203209,118 C57.0984605,118 48.5088306,118 63.4869702,118 L95.5,118 L129.56906,118 C144.580733,118 130.169806,68.9913694 124.76309,50.2045455 C119.356373,31.4177215 110.47814,23 95.5,23 C80.5218604,23 68.3796791,35.1798899 68.3796791,50.2045455 C68.3796791,65.21242 82.9441041,43.7272727 67.9491979,43.7272727 C52.9710582,43.7272727 40.828877,55.9071626 40.828877,70.9318182 C40.828877,113.451081 78.8463546,43.7272727 121.328877,43.7272727 C136.307017,43.7272727 148.449198,55.9071626 148.449198,70.9318182 C148.449198,85.9396927 133.884773,63.5909091 148.879679,63.5909091 C163.857819,63.5909091 176,75.770799 176,90.7954545 C176,105.82011 163.857819,118 148.879679,118" id="Path" stroke="#449AFF" stroke-width="2"></path>
    </g>
</svg>