<?xml version="1.0" encoding="UTF-8"?>
<svg width="202px" height="148px" viewBox="0 0 202 148" version="1.1" xmlns="http://www.w3.org/2000/svg" xmlns:xlink="http://www.w3.org/1999/xlink">
    <!-- Generator: Sketch 52.6 (67491) - http://www.bohemiancoding.com/sketch -->
    <title>recording-cloud</title>
    <desc>Created with Sketch.</desc>
    <g id="recording-cloud" stroke="none" stroke-width="1" fill="none" fill-rule="evenodd">
        <g id="wheel" transform="translate(98.490569, 73.401960) rotate(33.000000) translate(-98.490569, -73.401960) translate(20.490569, 3.401960)">
            <path d="M52.0053203,75.3986307 C52.0053203,59.6824961 64.7457647,46.9420518 80.4618993,46.9420518 C96.1780339,46.9420518 108.918478,59.6824961 108.918478,75.3986307 C108.918478,91.1147653 96.1780339,103.85521 80.4618993,103.85521 C64.7457647,103.85521 52.0053203,91.1147653 52.0053203,75.3986307 Z M103.125277,69.8289733 C102.250862,69.7420591 101.023228,69.9715872 97.6565305,70.7223564 C94.2898333,71.4731256 92.7079012,72.1620057 92.34523,72.4733649 C91.9825588,72.7847241 91.8734148,73.200468 91.8734148,73.5319066 C91.8734148,73.7528656 91.8734148,77.3807952 91.8734148,77.6017543 C91.8734148,77.9331928 91.9825588,78.3489368 92.34523,78.6602959 C92.7079012,78.9716551 94.2898333,79.6605352 97.6565305,80.4113044 C101.023228,81.1620737 102.250862,81.3916018 103.125277,81.3046876 C103.461377,81.2273123 104.343062,78.3794265 104.343152,75.5499552 C104.343242,72.7189658 103.461558,69.9063901 103.125277,69.8289733 Z M75.0527609,97.9620375 C75.536258,97.2384013 75.9042217,96.0572425 76.806077,92.7609946 C77.7079323,89.4647466 77.8345035,87.7579628 77.7278602,87.2945656 C77.621217,86.8311684 77.3043736,86.5403691 77.0113156,86.3846109 C76.8159435,86.2807721 73.6081277,84.575841 73.4127557,84.4720022 C73.1196977,84.3162439 72.7013393,84.2162888 72.257375,84.387042 C71.8134106,84.5577952 70.4686237,85.6171061 68.2391079,88.207712 C66.009592,90.7983179 65.2357307,91.7637451 64.9059328,92.5690713 C64.8180443,92.8992783 66.9261173,95.0084673 69.4278943,96.3382449 C71.9310136,97.6687359 74.8279213,98.2196583 75.0527609,97.9620375 Z M63.671882,59.5893884 C64.0706243,60.3628951 64.9257013,61.2571915 67.3725695,63.6435972 C69.8194377,66.030003 71.2514588,66.9680693 71.7086233,67.0994792 C72.1657878,67.2308891 72.5738476,67.0948569 72.8522181,66.9141546 C73.0377985,66.7936864 76.0848447,64.8157176 76.2704251,64.6952494 C76.5487956,64.5145471 76.8390906,64.1972471 76.9049384,63.7263274 C76.9707861,63.2554078 76.6959262,61.5661784 75.5101787,58.3611249 C74.3244312,55.1560714 73.854909,54.0114948 73.3101706,53.3327604 C73.0638606,53.0958458 70.1963,53.9163734 67.8198189,55.4589431 C65.4420626,57.0023406 63.5554824,59.2679304 63.671882,59.5893884 Z" id="Combined-Shape" stroke="#000000" stroke-width="0.78" fill="#FFFFFF" transform="translate(80.461899, 75.398631) rotate(43.000000) translate(-80.461899, -75.398631) "></path>
            <g id="Group" transform="translate(71.798815, 67.506733)" stroke="#000000">
                <ellipse id="center" stroke-width="0.78" cx="7.79392395" cy="7.77993894" rx="3.1354693" ry="3.1252021"></ellipse>
                <ellipse id="Oval" stroke-width="0.5" cx="7.86617736" cy="7.8417363" rx="7.86617736" ry="7.83963103"></ellipse>
                <ellipse id="Oval-Copy-2" stroke-width="0.5" cx="7.76021387" cy="7.73800602" rx="6.8643572" ry="6.84116391"></ellipse>
            </g>
            <path d="M33.8072944,109.587953 C33.6880868,109.589812 33.5686549,109.590745 33.4490056,109.590745 C20.9827279,109.590745 10.8768131,99.462205 10.8768131,86.9680177 C10.8768131,74.4738304 20.9827279,64.3452904 33.4490056,64.3452904 C33.8451959,64.3452904 34.2390021,64.3555206 34.6301757,64.3757316 C37.241256,54.9643145 45.77058,48.0226778 55.9473591,47.8311714 C58.3569682,37.9354228 67.2610859,30.590745 77.8768131,30.590745 C88.4988324,30.590745 97.4072126,37.944132 99.8105448,47.8487701 C100.141001,47.8343789 100.473301,47.8271086 100.807294,47.8271086 C111.16356,47.8271086 119.890861,54.8171479 122.548498,64.3465836 C134.902439,64.4776585 144.876813,74.5554103 144.876813,86.9680177 C144.876813,99.1010753 135.346655,109.003262 123.379487,109.565547 L123.379487,109.590745 L33.8072944,109.590745 Z" id="cloud-copy-2" stroke="#C0D5ED" stroke-width="2.625" transform="translate(77.876813, 70.090745) scale(-1, 1) rotate(-327.000000) translate(-77.876813, -70.090745) "></path>
        </g>
    </g>
</svg>