<?xml version="1.0" encoding="UTF-8"?>
<svg width="80px" height="80px" viewBox="0 0 80 80" version="1.1" xmlns="http://www.w3.org/2000/svg" xmlns:xlink="http://www.w3.org/1999/xlink">
    <!-- Generator: Sketch 53.2 (72643) - https://sketchapp.com -->
    <title>recording</title>
    <desc>Created with Sketch.</desc>
    <g id="recording" stroke="none" stroke-width="1" fill="none" fill-rule="evenodd">
        <g id="wheel" transform="translate(40.000000, 41.000000) rotate(-52.000000) translate(-40.000000, -41.000000) translate(5.000000, 6.000000)" stroke="#000000">
            <path d="M0.342547813,34.8767068 C0.342547813,15.7615179 15.8384701,0.265595654 34.9536589,0.265595654 C54.0688478,0.265595654 69.56477,15.7615179 69.56477,34.8767068 C69.56477,53.9918956 54.0688478,69.4878179 34.9536589,69.4878179 C15.8384701,69.4878179 0.342547813,53.9918956 0.342547813,34.8767068 Z M62.518627,28.1024549 C61.4550952,27.9967431 59.9619504,28.275913 55.8671107,29.1890572 C51.772271,30.1022013 49.8482017,30.940071 49.4070927,31.3187703 C48.9659837,31.6974696 48.8332343,32.2031298 48.8332343,32.6062513 C48.8332343,32.8749989 48.8332343,37.2875698 48.8332343,37.5563175 C48.8332343,37.9594389 48.9659837,38.4650992 49.4070927,38.8437985 C49.8482017,39.2224978 51.772271,40.0603675 55.8671107,40.9735116 C59.9619504,41.8866557 61.4550952,42.1658257 62.518627,42.0601138 C62.9274184,41.966004 63.9997913,38.5021831 63.999901,35.0607594 C64.0000107,31.6174892 62.9276378,28.1966153 62.518627,28.1024549 Z M28.3746429,62.3200822 C28.9627097,61.4399394 29.4102559,60.003322 30.5071627,55.9941681 C31.6040695,51.9850142 31.7580152,49.9090906 31.6283073,49.3454708 C31.4985995,48.781851 31.1132299,48.4281582 30.7567899,48.2387129 C30.5191632,48.112416 26.6175674,46.0387458 26.3799407,45.9124489 C26.0235006,45.7230036 25.5146606,45.6014304 24.9746764,45.8091137 C24.4346923,46.0167971 22.7990577,47.3052136 20.0873466,50.4561106 C17.3756355,53.6070076 16.434405,54.7812354 16.033279,55.760736 C15.9263822,56.1623596 18.490385,58.7277197 21.5332413,60.3450989 C24.5777303,61.9633459 28.1011755,62.6334207 28.3746429,62.3200822 Z M14.5323302,15.648273 C15.0173117,16.5890722 16.057323,17.6767853 19.033395,20.5793181 C22.009467,23.4818509 23.7512028,24.6228003 24.3072419,24.7826313 C24.863281,24.9424622 25.3595951,24.7770093 25.6981711,24.5572251 C25.9238884,24.4107023 29.6299437,22.0049423 29.855661,21.8584195 C30.194237,21.6386352 30.5473165,21.2527102 30.6274056,20.679941 C30.7074948,20.1071718 30.3731887,18.0525992 28.93099,14.1543632 C27.4887914,10.2561271 26.9177219,8.86400379 26.2551686,8.03847405 C25.9555872,7.75031999 22.4678364,8.74830961 19.5773746,10.6245033 C16.6853619,12.5017037 14.3907559,15.2572908 14.5323302,15.648273 Z" id="Combined-Shape" stroke-width="1.15068493" fill="#FFFFFF"></path>
            <g id="Group" transform="translate(25.085214, 24.640124)">
                <ellipse id="center" stroke-width="1.15068493" cx="9.47178257" cy="9.45478691" rx="3.81046616" ry="3.79798866"></ellipse>
                <ellipse id="Oval" stroke-width="0.517808219" cx="9.55959054" cy="9.52988786" rx="9.55959054" ry="9.52732938"></ellipse>
                <ellipse id="Oval-Copy-2" stroke-width="0.517808219" cx="9.43081546" cy="9.40382675" rx="8.34210077" ry="8.31391447"></ellipse>
            </g>
        </g>
    </g>
</svg>