<?xml version="1.0" encoding="UTF-8"?>
<svg width="113px" height="113px" viewBox="0 0 113 113" version="1.1" xmlns="http://www.w3.org/2000/svg" xmlns:xlink="http://www.w3.org/1999/xlink">
    <!-- Generator: Sketch 52.6 (67491) - http://www.bohemiancoding.com/sketch -->
    <title>sound design</title>
    <desc>Created with Sketch.</desc>
    <g id="sound-design" stroke="none" stroke-width="1" fill="none" fill-rule="evenodd">
        <g id="monitor" transform="translate(19.000000, 25.000000)" fill-rule="nonzero">
            <path d="M73.1029669,12.4670651 L76.7541698,23.0996866 L73.7503427,54.1899831 C69.6229582,59.5636691 67.6805656,62.1172159 67.9231648,61.8506235 C68.165764,61.5840311 69.8923647,45.122845 73.1029669,12.4670651 Z" id="Path-8" stroke="#000000" stroke-width="0.636363636" fill="#FFFFFF" stroke-linecap="round"></path>
            <path d="M64.3873337,1.11967908 C69.0681147,3.67894554 71.9138168,5.75834953 72.9244399,7.35789107 C74.4403747,9.75720338 69.5188856,52.689863 67.9231648,61.7272727 C67.5765497,62.4715613 66.6363557,62.8437056 65.1025826,62.8437056 L54.8079974,61.7272727 L64.3873337,1.11967908 Z" id="Path-3" stroke="#000000" stroke-width="0.636363636" fill="#FFFFFF"></path>
            <path d="M6.87064371,7.42709698 C6.43249543,7.54440147 6.08988526,7.88602654 5.97131503,8.32383438 C3.07327605,19.0253248 1.34775293,26.9018309 0.795004342,31.9455164 C0.250313425,36.9156778 0.228107269,44.7593232 0.729811536,55.4691107 C0.75946898,56.1022026 1.25042426,56.6169972 1.88140019,56.6766168 L55.6365685,61.7558574 C55.6833033,61.7600159 55.6833033,61.7600159 55.7301177,61.7631526 C57.3086825,61.8602614 58.6670815,60.6593041 58.7641819,59.0807405 C59.5058567,47.0243555 60.1575812,37.9583541 60.7194899,31.881557 C61.3051254,25.5481641 62.5242536,15.5548748 64.3770268,1.89956111 C64.3865445,1.8294131 64.3901932,1.7585933 64.3879347,1.68783858 C64.3655094,0.985287107 63.7777998,0.433936636 63.0752485,0.456363796 C48.5086327,0.921327404 37.8672496,1.56785342 31.1554822,2.39519566 C24.3738784,3.23114643 16.2784768,4.90835824 6.87064371,7.42709698 Z" id="Rectangle" stroke="#000000" stroke-width="0.636363636" fill="#FFFFFF"></path>
            <path d="M10.313213,10.8835491 C9.32358397,11.1783684 8.56932487,11.9831461 8.33919898,12.9897839 C7.22162823,17.8781191 6.35578388,23.2100056 5.74184981,28.985336 C5.11269285,34.9038694 4.72600521,41.686735 4.58196011,49.3335328 C4.56128648,50.4310163 5.4015926,51.3534754 6.49624175,51.4349653 L47.1547901,54.4617364 C47.2065436,54.465275 47.2065436,54.465275 47.2583674,54.4675628 C48.8387735,54.5277704 50.1687493,53.2954062 50.2289435,51.7150023 C50.6168249,41.5334004 51.0018599,34.2026213 51.3843235,29.7200315 C51.7711282,25.1865629 52.7174359,17.8794987 54.2234486,7.7953861 C54.2438542,7.65875201 54.2505185,7.52041716 54.2433415,7.38245428 C54.1840015,6.24176028 53.2111826,5.36515486 52.0704917,5.42450969 C42.6844807,5.91277918 35.1432571,6.42294965 29.4476339,6.95490048 C23.673637,7.49417113 17.2952861,8.80352745 10.313213,10.8835491 Z" id="Rectangle" stroke="#000000" stroke-width="0.636363636" fill="#EDEDED"></path>
            <path d="M70.5886332,36.6295012 C71.6478633,36.6295012 72.2063656,35.2487649 72.2063656,34.328274 C72.2063656,33.4077831 71.9829647,31.7508995 70.5886332,31.7508995 C69.1943016,31.7508995 68.8553519,33.315734 68.8553519,34.328274 C68.8553519,35.340814 69.529403,36.6295012 70.5886332,36.6295012 Z" id="Oval" stroke="#000000" stroke-width="0.5" fill="#D8D8D8"></path>
            <path d="M71.0508424,36.3095929 C71.8074354,36.3095929 72.2063656,35.1099367 72.2063656,34.310166 C72.2063656,33.5103952 72.0467935,32.0708078 71.0508424,32.0708078 C70.0548913,32.0708078 69.8127844,33.4304181 69.8127844,34.310166 C69.8127844,35.1899138 70.2942495,36.3095929 71.0508424,36.3095929 Z" id="Oval" stroke="#000000" stroke-width="0.5" fill="#D8D8D8"></path>
            <path d="" id="Path-15" stroke="#979797" stroke-width="0.5"></path>
        </g>
    </g>
</svg>