<?xml version="1.0" encoding="UTF-8"?>
<svg width="80px" height="80px" viewBox="0 0 80 80" version="1.1" xmlns="http://www.w3.org/2000/svg" xmlns:xlink="http://www.w3.org/1999/xlink">
    <!-- Generator: Sketch 53.2 (72643) - https://sketchapp.com -->
    <title>sound design </title>
    <desc>Created with Sketch.</desc>
    <g id="sound-design-" stroke="none" stroke-width="1" fill="none" fill-rule="evenodd">
        <g id="monitor-copy" transform="translate(4.000000, 10.000000)" fill-rule="nonzero" stroke="#000000">
            <path d="M69.3054101,11.8194254 L72.7669402,21.8997029 L69.9191561,51.374919 C66.0061812,56.4694525 64.164692,58.8903475 64.3946887,58.6376041 C64.6246854,58.3848607 66.2615925,42.7788011 69.3054101,11.8194254 Z" id="Path-8" stroke-width="0.8" fill="#FFFFFF" stroke-linecap="round"></path>
            <path d="M60.5,1 C61.8199358,1.72168882 63.5284899,2.46464271 64.5405881,3.10583381 C66.9311638,4.62032695 68.4630202,5.91027001 69.1361573,6.97566296 C70.5733422,9.25033567 65.8883625,49.4320661 64.3755363,58 C64.245942,59 63.4540966,59.5 62,59.5 C55.6666667,58.8333333 51.6666667,58.3333333 50,58 C48.3333333,57.6666667 51.8333333,38.6666667 60.5,1 Z" id="Path-3" fill="#FFFFFF"></path>
            <path d="M6.48193952,6.73751158 C15.3939248,4.35312881 23.0666486,2.76441929 29.5001109,1.97138301 C35.8593265,1.18749893 45.9230189,0.575132556 59.691188,0.134283886 L59.6911887,0.134306588 C60.569361,0.10618803 61.3040548,0.795292686 61.3321734,1.67346492 C61.3350061,1.76193336 61.3304505,1.8504839 61.3185542,1.9381946 C59.5699284,14.8306741 58.4189444,24.2689915 57.8656021,30.253147 C57.3358737,35.9819298 56.7216928,44.5175159 56.0230594,55.8599053 L56.0230684,55.8599059 C55.915034,57.6138565 54.4055969,58.9481352 52.6516463,58.8401008 C52.6170386,58.8379691 52.5824681,58.8352719 52.5479486,58.8320102 L1.82676044,54.0394925 C1.03791087,53.9649557 0.424155589,53.3212878 0.387213497,52.5297862 C-0.0856391943,42.3986972 -0.0634277399,34.9731508 0.45384786,30.253147 C0.979191372,25.4595256 2.61373355,17.9946972 5.3574744,7.8586617 L5.35749288,7.8586667 C5.50567718,7.31123841 5.93407917,6.88409045 6.48193952,6.73751158 Z" id="Rectangle" fill="#FFFFFF"></path>
            <path d="M9.90000736,10.384319 C8.9368309,10.6704809 8.20282686,11.45381 7.97982438,12.4335382 C6.93186179,17.0376054 6.11896771,22.0564703 5.541368,27.4900002 C4.94845468,33.0675866 4.58276371,39.4559585 4.44451008,46.6546202 C4.4242612,47.7089492 5.23141284,48.59534 6.28302653,48.6736261 L44.5415871,51.5217568 C44.5916908,51.5251836 44.5916908,51.5251836 44.6418625,51.5274036 C46.177097,51.5860796 47.4692169,50.3890923 47.5278933,48.8538577 C47.8934742,39.2885698 48.2564011,32.3942995 48.6170169,28.1677729 C48.9820305,23.8897034 49.871952,17.0104138 51.2870317,7.52560638 C51.3066099,7.39438022 51.312991,7.26152263 51.3060793,7.12902417 C51.2489316,6.03348849 50.3144957,5.19170235 49.2189572,5.24883283 C40.3921695,5.70927495 33.2945248,6.1902233 27.9270322,6.6915279 C22.4858469,7.19971513 16.4765775,8.43040535 9.90000736,10.384319 Z" id="Rectangle" stroke-width="0.8" fill="#EDEDED"></path>
            <path d="M66.9216912,34.72667 C67.9258964,34.72667 68.4553855,33.4176602 68.4553855,32.544987 C68.4553855,31.6723139 68.2435899,30.1015021 66.9216912,30.1015021 C65.5997925,30.1015021 65.2784505,31.5850465 65.2784505,32.544987 C65.2784505,33.5049275 65.917486,34.72667 66.9216912,34.72667 Z" id="Oval" stroke-width="0.6" fill="#D8D8D8"></path>
            <path d="M67.3598896,34.4233803 C68.077179,34.4233803 68.4553855,33.2860439 68.4553855,32.5278197 C68.4553855,31.7695955 68.3041029,30.4047918 67.3598896,30.4047918 C66.4156762,30.4047918 66.1861462,31.693773 66.1861462,32.5278197 C66.1861462,33.3618663 66.6426001,34.4233803 67.3598896,34.4233803 Z" id="Oval" stroke-width="0.6" fill="#D8D8D8"></path>
        </g>
    </g>
</svg>