<?xml version="1.0" encoding="UTF-8"?>
<svg width="600px" height="600px" viewBox="0 0 600 600" version="1.1" xmlns="http://www.w3.org/2000/svg" xmlns:xlink="http://www.w3.org/1999/xlink">
    <!-- Generator: Sketch 54.1 (76490) - https://sketchapp.com -->
    <title>Artboard Copy</title>
    <desc>Created with Sketch.</desc>
    <g id="Artboard-Copy" stroke="none" stroke-width="1" fill="none" fill-rule="evenodd">
        <g id="rainbow" transform="translate(-26.000000, 107.000000)" stroke="#000000" stroke-width="3">
            <path d="M16,98 C164.216622,139.298781 264.216622,177.298781 316,212 C412.506332,276.671087 487.339666,370.337753 540.5,493 L573,493 C507.333333,336 426.666667,234 331,187 C235.333333,140 130.333333,99.8333333 16,66.5 L16,98 Z" id="Path-29" fill="#F8E71C"></path>
            <path d="M16,98 C164.216622,139.298781 264.216622,177.298781 316,212 C412.506332,276.671087 487.339666,370.337753 540.5,493 L573,493 C507.333333,336 426.666667,234 331,187 C235.333333,140 130.333333,99.8333333 16,66.5 L16,98 Z" id="Path-29" fill="#F8E71C"></path>
            <path d="M0,64.6957796 C160.989329,109.528923 269.606923,150.780975 325.852783,188.451934 C430.675639,258.657592 511.957806,360.340281 569.699282,493.5 L605,493.5 C533.674446,323.063892 446.056254,212.334701 342.145422,161.312427 C238.23459,110.290152 124.186116,66.6860102 0,30.5 L0,64.6957796 Z" id="Path-29-Copy" fill="#67FE9A"></path>
            <path d="M0,64.6957796 C160.989329,109.528923 269.606923,150.780975 325.852783,188.451934 C430.675639,258.657592 511.957806,360.340281 569.699282,493.5 L605,493.5 C533.674446,323.063892 446.056254,212.334701 342.145422,161.312427 C238.23459,110.290152 124.186116,66.6860102 0,30.5 L0,64.6957796 Z" id="Path-29-Copy" fill="#50E3C2"></path>
            <path d="M1,37.0023447 C171.036663,85.5150985 285.758387,130.152848 345.165171,170.915592 C455.878898,246.88327 541.728988,356.911406 602.71544,501 L640,501 C572.333333,334 479.791143,214.182884 362.373429,141.548652 C244.955715,68.9144197 124.497905,21.7315358 1,0 L1,37.0023447 Z" id="Path-29-Copy-2" fill="#9013FE"></path>
        </g>
    </g>
</svg>